<svg xmlns="http://www.w3.org/2000/svg" xmlns:xlink="http://www.w3.org/1999/xlink" width="1366" height="1396" viewBox="0 0 1366 1396">
  <defs>
    <linearGradient id="linear-gradient" x1="0.045" y1="0.134" x2="1.025" y2="0.854" gradientUnits="objectBoundingBox">
      <stop offset="0" stop-color="#00429d"/>
      <stop offset="1" stop-color="#0c3774"/>
    </linearGradient>
    <linearGradient id="linear-gradient-2" x1="1" y1="0.824" x2="0.058" y2="0.161" gradientUnits="objectBoundingBox">
      <stop offset="0" stop-color="#ffa10a"/>
      <stop offset="1" stop-color="#ffef36"/>
    </linearGradient>
  </defs>
  <g id="Group_1042" data-name="Group 1042" transform="translate(0 -80)">
    <g id="Group_977" data-name="Group 977" transform="translate(0 79.825)">
      <g id="Rectangle_721" data-name="Rectangle 721" transform="translate(0 0.175)" fill="#ededed" stroke="#707070" stroke-width="1">
        <rect width="1366" height="1396" stroke="none"/>
        <rect x="0.5" y="0.5" width="1365" height="1395" fill="none"/>
      </g>
      <g id="Path_442" data-name="Path 442" transform="translate(0 210.645)" fill="url(#linear-gradient)">
        <path d="M 0.5 990.3602905273438 L 0.5 -5.042600154876709 L 1365.5 -209.8885345458984 L 1365.5 778.84228515625 L 0.5 990.3602905273438 Z" stroke="none"/>
        <path d="M 1365 -209.307861328125 L 1 -4.6121826171875 L 1 989.7769775390625 L 1365 778.4138793945312 L 1365 -209.307861328125 M 1366 -210.4691772460938 L 1366 779.2708129882812 L 0 990.9437866210938 L 0 -5.473388671875 L 1366 -210.4691772460938 Z" stroke="none" fill="#707070"/>
      </g>
      <circle id="circle_Gradient" cx="173.5" cy="173.5" r="173.5" transform="translate(46 308.116)" fill="url(#linear-gradient-2)"/>
      <circle id="circle_Gradient-2" data-name="circle_Gradient" cx="133.5" cy="133.5" r="133.5" transform="translate(1099 819.212)" fill="url(#linear-gradient-2)"/>
    </g>
    <g id="Group_1062" data-name="Group 1062" transform="translate(-6.56 -290)">
      <g id="Group_1043" data-name="Group 1043">
        <path id="Path_498" data-name="Path 498" d="M1372.4,757.71v.99c-93.65-12.62-180.1-29.81-224.13-52.76-18.11-9.44-27.75-18.97-29.49-29.15-2.25-13.26,9.23-25.52,20.34-37.37,10.26-10.95,19.95-21.29,18.88-31.87-1.07-10.61-31.37-22.28-60.67-33.57-21.01-8.09-42.74-16.46-56.1-25.06-9.43-6.07-13.43-12.16-11.9-18.1,4.79-18.59,63.52-35.48,174.54-50.2,82.56-10.95,164.78-16.56,165.6-16.62l.06,1c-3.28.22-328.03,22.63-339.23,66.07-1.41,5.48,2.45,11.2,11.47,17.01,13.27,8.54,34.95,16.89,55.92,24.97,30.95,11.92,60.18,23.17,61.31,34.4,1.11,11.03-8.73,21.53-19.15,32.66-10.94,11.67-22.25,23.74-20.08,36.51,1.68,9.85,11.15,19.15,28.96,28.44C1192.64,727.96,1278.91,745.09,1372.4,757.71Z" fill="#fff"/>
      </g>
      <g id="Group_1044" data-name="Group 1044">
        <path id="Path_499" data-name="Path 499" d="M1040.01,531.65c-1.39,5.43,2.47,11.1,11.48,16.85,13.28,8.48,34.96,16.77,55.93,24.79,30.94,11.83,60.17,23,61.3,34.14,1.11,10.95-8.73,21.38-19.15,32.42-10.93,11.58-22.23,23.55-20.08,36.21,1.66,9.78,11.13,19.02,28.96,28.25,42.38,21.93,124.47,38.54,213.95,50.9v1.1c-104.6-14.42-176.73-31.62-214.41-51.12-18.12-9.37-27.77-18.85-29.49-28.96-2.23-13.16,9.24-25.31,20.34-37.07,10.26-10.87,19.95-21.13,18.88-31.63-1.07-10.53-31.36-22.11-60.66-33.31-21.01-8.03-42.75-16.34-56.11-24.88-9.41-6.01-13.42-12.05-11.91-17.94,4.73-18.46,63.44-35.23,174.49-49.85,69.02-9.09,137.82-14.47,159.03-16.03v1.01C1325.79,469.98,1050.17,491.99,1040.01,531.65Z" fill="#fff"/>
      </g>
      <g id="Group_1045" data-name="Group 1045">
        <path id="Path_500" data-name="Path 500" d="M1049.72,532.24c-1.36,5.37,2.5,10.99,11.49,16.69,13.27,8.41,34.95,16.63,55.91,24.58,30.95,11.75,60.19,22.84,61.32,33.9,1.11,10.87-8.73,21.22-19.16,32.18-10.91,11.48-22.2,23.35-20.08,35.9,1.65,9.72,11.13,18.89,28.97,28.06,36.38,18.68,105.08,35.25,204.23,49.25v1.01c-99.34-14.03-168.19-30.63-204.69-49.38-18.14-9.31-27.79-18.72-29.49-28.77-2.21-13.05,9.25-25.1,20.34-36.76,10.26-10.79,19.95-20.98,18.88-31.39-1.07-10.45-31.37-21.94-60.68-33.06-21.01-7.97-42.73-16.21-56.09-24.68-9.39-5.96-13.4-11.94-11.92-17.78,4.67-18.33,63.37-34.99,174.45-49.51,60.67-7.93,121.19-13.01,149.36-15.18v1.02C1305.96,473.46,1059.2,495.02,1049.72,532.24Z" fill="#fff"/>
      </g>
      <g id="Group_1046" data-name="Group 1046">
        <path id="Path_501" data-name="Path 501" d="M1059.45,532.82c-1.35,5.32,2.52,10.88,11.49,16.53,13.27,8.35,34.95,16.51,55.92,24.41,30.94,11.64,60.17,22.65,61.31,33.63,1.11,10.79-8.74,21.06-19.16,31.93-10.91,11.39-22.19,23.16-20.09,35.6,1.64,9.65,11.11,18.77,28.98,27.87,35.16,17.92,100.57,33.9,194.51,47.5v1.01c-94.12-13.62-159.68-29.63-194.97-47.61-18.16-9.26-27.81-18.62-29.5-28.6-2.19-12.94,9.27-24.9,20.35-36.46,10.26-10.7,19.95-20.81,18.88-31.14-1.07-10.37-31.37-21.77-60.66-32.8-21.02-7.91-42.75-16.09-56.11-24.5-9.37-5.9-13.39-11.82-11.92-17.61,4.6-18.2,63.28-34.74,174.39-49.16,54.42-7.06,108.73-11.85,139.69-14.31v1.02C1294.55,476.37,1068.39,497.49,1059.45,532.82Z" fill="#fff"/>
      </g>
      <g id="Group_1047" data-name="Group 1047">
        <path id="Path_502" data-name="Path 502" d="M1069.16,533.41c-1.33,5.26,2.54,10.77,11.49,16.36,13.28,8.28,34.95,16.38,55.92,24.21,30.95,11.56,60.18,22.49,61.32,33.39,1.11,10.71-8.74,20.9-19.16,31.69-10.9,11.29-22.17,22.96-20.09,35.29,1.62,9.59,11.09,18.64,28.98,27.68,26.59,13.45,79.63,30.13,184.79,45.8v1.01c-105.41-15.71-158.58-32.43-185.25-45.91-18.18-9.2-27.83-18.49-29.51-28.41-2.16-12.83,9.29-24.69,20.36-36.15,10.26-10.62,19.95-20.65,18.88-30.9-1.07-10.28-31.37-21.6-60.67-32.55-21.01-7.85-42.74-15.96-56.1-24.31-9.36-5.84-13.37-11.71-11.93-17.45,4.54-18.07,63.2-34.49,174.34-48.8,49.13-6.33,98.18-10.82,130.03-13.44v1.02C1287.03,479,1077.64,499.69,1069.16,533.41Z" fill="#fff"/>
      </g>
      <g id="Group_1048" data-name="Group 1048">
        <path id="Path_503" data-name="Path 503" d="M1078.87,533.99c-1.3,5.21,2.57,10.66,11.5,16.2,13.28,8.22,34.96,16.26,55.93,24.03,30.95,11.47,60.17,22.31,61.31,33.13,1.11,10.63-8.73,20.75-19.16,31.46-10.89,11.19-22.15,22.75-20.09,34.98,1.6,9.52,11.08,18.51,28.97,27.49,25.67,12.88,76.18,28.82,175.08,43.97v.99c-99.14-15.17-149.78-31.15-175.52-44.06-18.2-9.14-27.86-18.37-29.52-28.23-2.14-12.72,9.3-24.47,20.36-35.84,10.26-10.54,19.95-20.49,18.88-30.66-1.07-10.2-31.36-21.43-60.65-32.29-21.02-7.79-42.75-15.84-56.11-24.12-9.35-5.8-13.37-11.61-11.95-17.3,4.49-17.94,63.13-34.24,174.29-48.45,44.4-5.67,88.72-9.86,120.37-12.53v1.02C1281.88,481.48,1086.93,501.72,1078.87,533.99Z" fill="#fff"/>
      </g>
      <g id="Group_1049" data-name="Group 1049">
        <path id="Path_504" data-name="Path 504" d="M1088.58,534.57c-1.28,5.16,2.59,10.56,11.51,16.04,13.28,8.16,34.95,16.13,55.91,23.84,30.95,11.38,60.19,22.14,61.33,32.88,1.11,10.55-8.73,20.59-19.16,31.22-10.88,11.09-22.13,22.56-20.1,34.67,1.59,9.46,11.07,18.39,28.98,27.31,24.73,12.31,72.7,27.5,165.36,42.09v1.01c-70.43-11.05-131.07-24.91-165.8-42.2-18.22-9.08-27.88-18.25-29.52-28.05-2.12-12.61,9.31-24.26,20.37-35.53,10.25-10.46,19.94-20.33,18.87-30.42-1.07-10.12-31.37-21.26-60.68-32.04-21-7.73-42.72-15.72-56.08-23.92-9.33-5.74-13.36-11.51-11.96-17.14,4.43-17.82,63.05-34,174.24-48.11,40.04-5.08,80.02-8.95,110.71-11.62v1.01c-30.66,2.66-70.59,6.54-110.58,11.61C1152.8,501.06,1092.84,517.44,1088.58,534.57Z" fill="#fff"/>
      </g>
      <g id="Group_1050" data-name="Group 1050">
        <path id="Path_505" data-name="Path 505" d="M1098.31,535.15c-1.26,5.11,2.61,10.46,11.51,15.88,13.28,8.1,34.96,16.01,55.93,23.67,30.94,11.29,60.17,21.95,61.31,32.61,1.11,10.47-8.74,20.43-19.17,30.98-10.87,10.99-22.11,22.36-20.1,34.36,1.58,9.39,11.06,18.27,28.99,27.12,33.02,16.3,89.64,29.54,155.63,40.2v1.01c-66.16-10.68-122.96-23.95-156.07-40.31-18.24-9.01-27.9-18.12-29.53-27.85-2.1-12.51,9.32-24.06,20.37-35.24,10.26-10.37,19.95-20.17,18.88-30.17-1.07-10.03-31.36-21.08-60.65-31.77-21.02-7.67-42.75-15.6-56.11-23.75-9.32-5.68-13.34-11.39-11.96-16.98,4.36-17.68,62.96-33.75,174.18-47.75,35.95-4.52,71.86-8.09,101.04-10.68v1c-29.15,2.59-65.01,6.15-100.92,10.67C1162.44,501.9,1102.5,518.15,1098.31,535.15Z" fill="#fff"/>
      </g>
      <g id="Group_1051" data-name="Group 1051">
        <path id="Path_506" data-name="Path 506" d="M1108.02,535.73c-1.24,5.06,2.64,10.35,11.52,15.72,13.27,8.04,34.95,15.88,55.92,23.48,30.95,11.2,60.18,21.78,61.32,32.36,1.11,10.39-8.74,20.27-19.17,30.74-10.86,10.89-22.09,22.16-20.1,34.06,1.56,9.32,11.04,18.13,28.99,26.93,31.38,15.38,84.19,27.99,145.91,38.27v1.01c-61.89-10.3-114.86-22.95-146.35-38.38-18.26-8.95-27.92-18-29.54-27.67-2.07-12.4,9.34-23.85,20.38-34.93,10.26-10.29,19.95-20.01,18.88-29.93-1.07-9.95-31.36-20.92-60.66-31.52-21.01-7.61-42.74-15.48-56.1-23.56-9.3-5.63-13.33-11.29-11.97-16.82,4.3-17.55,62.89-33.5,174.14-47.39,32.07-4,64.11-7.25,91.37-9.73v.99c-27.23,2.48-59.23,5.73-91.25,9.73C1172.08,502.73,1112.16,518.86,1108.02,535.73Z" fill="#fff"/>
      </g>
      <g id="Group_1052" data-name="Group 1052">
        <path id="Path_507" data-name="Path 507" d="M1117.73,536.31c-1.22,5,2.66,10.24,11.53,15.56,13.28,7.97,34.96,15.76,55.94,23.3,30.94,11.11,60.16,21.61,61.3,32.1,1.12,10.31-8.74,20.12-19.17,30.5-10.85,10.8-22.07,21.97-20.11,33.75,1.55,9.26,11.03,18.01,29,26.74,29.74,14.46,78.76,26.45,136.19,36.32v1.01c-57.6-9.9-106.79-21.92-136.63-36.43-18.28-8.89-27.94-17.87-29.54-27.48-2.05-12.29,9.35-23.64,20.39-34.62,10.25-10.21,19.94-19.85,18.87-29.69-1.06-9.86-31.35-20.74-60.64-31.26-21.02-7.55-42.76-15.36-56.12-23.38-9.28-5.57-13.31-11.18-11.98-16.66,4.24-17.42,62.82-33.25,174.09-47.04,28.36-3.52,56.69-6.44,81.71-8.77l-.01,1c-24.99,2.33-53.28,5.26-81.58,8.76C1181.71,503.56,1121.81,519.57,1117.73,536.31Z" fill="#fff"/>
      </g>
      <g id="Group_1053" data-name="Group 1053">
        <path id="Path_508" data-name="Path 508" d="M1127.45,536.89c-1.2,4.96,2.68,10.14,11.53,15.41,13.27,7.9,34.95,15.62,55.91,23.09,30.95,11.03,60.19,21.45,61.33,31.86,1.12,10.23-8.74,19.96-19.17,30.26-10.84,10.7-22.05,21.77-20.11,33.45,1.53,9.19,11.02,17.88,29,26.55,28.05,13.53,73.33,24.87,126.48,34.32v1.01c-53.32-9.47-98.76-20.85-126.92-34.43-18.29-8.82-27.96-17.75-29.54-27.29-2.03-12.19,9.37-23.44,20.39-34.32,10.25-10.13,19.94-19.69,18.87-29.45-1.06-9.78-31.36-20.58-60.67-31.02-21.01-7.48-42.73-15.22-56.09-23.17-9.27-5.52-13.3-11.07-11.99-16.5,4.19-17.3,62.75-33.01,174.04-46.7,24.76-3.04,49.5-5.64,72.04-7.79v1.04C1274.36,492.63,1133.81,510.62,1127.45,536.89Z" fill="#fff"/>
      </g>
      <g id="Group_1054" data-name="Group 1054">
        <path id="Path_509" data-name="Path 509" d="M1137.16,537.47c-1.18,4.9,2.7,10.03,11.53,15.25,13.28,7.84,34.96,15.5,55.93,22.91,30.95,10.93,60.18,21.26,61.32,31.6,1.12,10.15-8.74,19.8-19.17,30.02-10.83,10.6-22.03,21.57-20.11,33.14,1.51,9.13,11,17.75,29,26.36,26.33,12.59,67.89,23.28,116.76,32.28v1.01c-49.04-9.02-90.76-19.74-117.2-32.39-18.31-8.76-27.98-17.62-29.55-27.1-2-12.08,9.39-23.23,20.4-34.02,10.25-10.04,19.94-19.52,18.87-29.2-1.06-9.7-31.36-20.41-60.66-30.76-21.01-7.42-42.73-15.1-56.09-22.99-9.26-5.46-13.29-10.96-12-16.34,4.12-17.17,62.66-32.76,173.99-46.34,21.26-2.59,42.51-4.86,62.37-6.8v.99c-19.83,1.94-41.04,4.21-62.26,6.8C1200.99,505.23,1141.12,520.99,1137.16,537.47Z" fill="#fff"/>
      </g>
      <g id="Group_1055" data-name="Group 1055">
        <path id="Path_510" data-name="Path 510" d="M1146.88,538.05c-1.15,4.85,2.73,9.93,11.54,15.09,13.28,7.78,34.96,15.37,55.92,22.72,30.95,10.85,60.19,21.1,61.33,31.34,1.11,10.08-8.74,19.65-19.17,29.78-10.83,10.52-22.02,21.38-20.12,32.84,1.5,9.07,10.99,17.63,29,26.18,24.58,11.66,62.45,21.66,107.04,30.18v1.02c-44.75-8.55-82.78-18.59-107.46-30.3-18.34-8.7-28.01-17.5-29.57-26.91-1.98-11.98,9.4-23.03,20.41-33.72,10.25-9.96,19.94-19.37,18.87-28.96-1.07-9.62-31.36-20.24-60.66-30.5-21.01-7.37-42.74-14.98-56.09-22.81-9.24-5.41-13.28-10.86-12.01-16.18,4.07-17.04,62.59-32.51,173.94-45.99,17.84-2.16,35.68-4.09,52.7-5.79v1.01c-16.98,1.69-34.78,3.62-52.58,5.78C1210.64,506.06,1150.79,521.7,1146.88,538.05Z" fill="#fff"/>
      </g>
      <g id="Group_1056" data-name="Group 1056">
        <path id="Path_511" data-name="Path 511" d="M1156.6,538.62c-1.14,4.8,2.74,9.83,11.54,14.94,13.28,7.72,34.97,15.25,55.94,22.54,30.94,10.76,60.17,20.92,61.31,31.08,1.11,10-8.74,19.49-19.18,29.55-10.81,10.41-21.99,21.18-20.12,32.53,1.49,9,10.98,17.5,29.01,25.99,22.78,10.71,57.01,20.01,97.32,28.03v1.02c-40.48-8.05-74.86-17.38-97.74-28.15-18.36-8.63-28.03-17.38-29.57-26.72-1.96-11.87,9.41-22.83,20.41-33.42,10.25-9.88,19.94-19.21,18.87-28.71-1.06-9.54-31.35-20.07-60.64-30.25-21.02-7.31-42.75-14.86-56.11-22.63-9.22-5.36-13.27-10.75-12.02-16.03,4.01-16.9,62.52-32.25,173.9-45.62,14.49-1.74,28.98-3.33,43.03-4.78v1c-14.01,1.45-28.46,3.03-42.92,4.77C1220.28,506.89,1160.44,522.4,1156.6,538.62Z" fill="#fff"/>
      </g>
      <g id="Group_1057" data-name="Group 1057">
        <path id="Path_512" data-name="Path 512" d="M1166.31,539.2c-1.12,4.75,2.77,9.73,11.55,14.79,13.27,7.64,34.95,15.11,55.91,22.34,30.96,10.67,60.2,20.75,61.34,30.83,1.12,9.92-8.74,19.34-19.17,29.31-10.81,10.32-21.97,20.99-20.12,32.23,1.46,8.93,10.95,17.36,29,25.79,20.94,9.77,51.56,18.34,87.6,25.83v1.02c-36.21-7.52-66.98-16.13-88.02-25.95-18.37-8.57-28.05-17.25-29.57-26.53-1.94-11.76,9.43-22.61,20.42-33.11,10.25-9.8,19.93-19.05,18.86-28.47-1.06-9.46-31.36-19.91-60.67-30.01-21-7.24-42.72-14.73-56.08-22.42-9.21-5.3-13.25-10.64-12.02-15.88,3.95-16.77,62.44-32.01,173.84-45.27,11.19-1.34,22.39-2.58,33.37-3.74v1.01c-10.95,1.15-22.1,2.39-33.25,3.72C1229.92,507.72,1170.1,523.11,1166.31,539.2Z" fill="#fff"/>
      </g>
      <g id="Group_1058" data-name="Group 1058">
        <path id="Path_513" data-name="Path 513" d="M1176.03,539.78c-1.1,4.7,2.78,9.62,11.55,14.63,13.27,7.58,34.95,14.99,55.92,22.16,30.95,10.58,60.19,20.57,61.33,30.58,1.12,9.84-8.74,19.17-19.17,29.06-10.79,10.22-21.95,20.79-20.13,31.93,1.45,8.86,10.94,17.24,29.01,25.6,19.04,8.81,46.09,16.63,77.88,23.55v1.16q-50.775-11.085-78.3-23.81c-18.39-8.51-28.07-17.13-29.58-26.34-1.91-11.66,9.45-22.41,20.43-32.82,10.25-9.7,19.93-18.87,18.86-28.21-1.06-9.38-31.36-19.74-60.66-29.76-21.01-7.18-42.73-14.6-56.09-22.24-9.19-5.25-13.24-10.54-12.03-15.72,3.89-16.65,62.37-31.76,173.8-44.92,7.92-.94,15.85-1.83,23.7-2.67v1.05C1282.02,502.82,1181.01,518.47,1176.03,539.78Z" fill="#fff"/>
      </g>
      <g id="Group_1059" data-name="Group 1059">
        <path id="Path_514" data-name="Path 514" d="M1185.75,540.35c-1.08,4.65,2.81,9.52,11.56,14.48,13.27,7.51,34.95,14.86,55.91,21.97,30.95,10.49,60.19,20.41,61.34,30.33,1.11,9.76-8.74,19.02-19.18,28.82-10.78,10.12-21.93,20.59-20.13,31.62,1.44,8.8,10.93,17.11,29.02,25.41q24.615,11.3,68.16,21.32v1.01q-43.77-10.065-68.58-21.43c-18.41-8.44-28.09-17-29.59-26.15-1.88-11.55,9.46-22.21,20.44-32.51,10.24-9.63,19.92-18.72,18.86-27.97-1.07-9.3-31.36-19.57-60.66-29.5-21.01-7.13-42.73-14.49-56.09-22.06-9.18-5.19-13.23-10.43-12.04-15.56,4.91-21.13,99.51-36.48,187.78-46.27v1.16C1284.62,504.8,1190.48,519.96,1185.75,540.35Z" fill="#fff"/>
      </g>
      <g id="Group_1060" data-name="Group 1060">
        <path id="Path_515" data-name="Path 515" d="M1195.46,540.93c-1.05,4.59,2.83,9.41,11.57,14.31,13.27,7.46,34.96,14.75,55.93,21.8,30.94,10.41,60.17,20.23,61.32,30.07,1.11,9.68-8.74,18.86-19.18,28.58-10.77,10.03-21.91,20.4-20.14,31.32,1.43,8.73,10.92,16.98,29.03,25.21q21.78,9.9,58.44,18.84v1.03q-36.9-8.97-58.86-18.96c-18.43-8.38-28.11-16.88-29.59-25.96-1.87-11.45,9.47-22.01,20.44-32.22,10.25-9.54,19.92-18.55,18.86-27.72-1.07-9.21-31.35-19.39-60.64-29.24-21.02-7.06-42.75-14.37-56.1-21.87-9.17-5.15-13.22-10.34-12.05-15.42,4.65-20.19,92.66-35.06,178.06-44.8v1.16C1287.51,506.77,1199.95,521.45,1195.46,540.93Z" fill="#fff"/>
      </g>
      <g id="Group_1061" data-name="Group 1061">
        <path id="Path_516" data-name="Path 516" d="M1205.18,541.51c-1.04,4.54,2.85,9.31,11.56,14.16,13.27,7.39,34.94,14.61,55.9,21.59,30.97,10.32,60.22,20.06,61.36,29.83,1.12,9.6-8.74,18.7-19.18,28.34-10.76,9.93-21.89,20.21-20.14,31.02,1.41,8.66,10.9,16.85,29.03,25.02q18.8,8.475,48.72,16.24v1.03q-30.165-7.8-49.14-16.35c-18.45-8.33-28.13-16.76-29.59-25.78-1.84-11.34,9.49-21.8,20.44-31.92,10.25-9.46,19.93-18.39,18.86-27.48-1.06-9.14-31.37-19.24-60.68-29-21-7-42.71-14.23-56.06-21.66-9.15-5.1-13.21-10.23-12.06-15.27,4.41-19.28,86.09-33.67,168.35-43.33l-.01,1.17C1290.64,508.74,1209.43,522.92,1205.18,541.51Z" fill="#fff"/>
      </g>
    </g>
  </g>
</svg>
