<svg xmlns="http://www.w3.org/2000/svg" xmlns:xlink="http://www.w3.org/1999/xlink" width="1367.456" height="1138.059" viewBox="0 0 1367.456 1138.059">
  <defs>
    <linearGradient id="linear-gradient" x1="0.783" y1="0.864" x2="0.13" y2="0.101" gradientUnits="objectBoundingBox">
      <stop offset="0" stop-color="#ffa10a"/>
      <stop offset="1" stop-color="#ffef36"/>
    </linearGradient>
  </defs>
  <g id="Group_1067" data-name="Group 1067" transform="translate(6923 18208.059)">
    <g id="Group_1066" data-name="Group 1066" transform="translate(-6923 -18285)">
      <path id="Path_439" data-name="Path 439" d="M.549-5.116h917.4L1368,1132.442H443.668Z" transform="translate(-0.549 82.559)" fill="url(#linear-gradient)"/>
      <g id="圖層_2" data-name="圖層 2" transform="translate(1366 777.3) rotate(90)">
        <g id="圖層_1" data-name="圖層 1" transform="translate(0)">
          <path id="Path_484" data-name="Path 484" d="M21.2,19H0V0H72.91V19h-21V70.4H21.2Z" transform="translate(0 2.7)" fill="#e75f49"/>
          <path id="Path_485" data-name="Path 485" d="M.1,18.3C.1,12.7.1,5,0,1.4H29.4a76.219,76.219,0,0,1,.8,9.8C31.9,7.5,35.5,0,48,0V25.2c-12.8-.7-17.5.9-17.5,14.6v15H.1Z" transform="translate(78.2 18.3)" fill="#e75f49"/>
          <path id="Path_486" data-name="Path 486" d="M0,0H30.4V15.7H0ZM0,19.7H30.4V73.1H0Z" transform="translate(133)" fill="#e75f49"/>
          <path id="Path_487" data-name="Path 487" d="M67.6,34.7c-1.7,10.9-9.7,21.5-33.5,21.5C6.6,56.2,0,40.8,0,27.8,0,11.9,11.2,0,34.2,0c28.5,0,33,16,33.2,21.7H40.1c-.3-3.9-1-7.1-4.5-7.1s-4.8,4.1-4.8,13.2c0,10,1.3,14,4.8,14,3,0,4.2-1.9,4.7-7.1Z" transform="translate(171.6 18.3)" fill="#e75f49"/>
          <path id="Path_488" data-name="Path 488" d="M0,73.1V0H30.4V73.1Z" transform="translate(246.9)" fill="#e75f49"/>
          <path id="Path_489" data-name="Path 489" d="M68.8,33.5c0,6.6-.1,16.3.1,19.9H39a51.079,51.079,0,0,1-.5-5.5c-3.7,3.9-7.9,6.9-18.2,6.9C7.8,54.8,0,47.1,0,34.1V0H30.5V31.2c0,4.3,1.1,6.4,3.6,6.4,3.1,0,4.3-2.4,4.3-7.8V0H68.8Z" transform="translate(287.4 19.7)" fill="#e75f49"/>
          <path id="Path_490" data-name="Path 490" d="M.2,0H30.6V24.2c2.6-2.6,7.2-5.9,16.1-5.9,12.9,0,24.4,8.9,24.4,27.1,0,19.4-12.1,29.1-25.8,29.1-8.5,0-13.5-2.5-16.5-6.1-.2,1.4-.3,3.4-.6,4.7H0C.1,68.6.2,62,.2,56.2ZM40.1,46.2c0-7.3-1.5-10.5-5.1-10.5-4.4,0-5.3,4.2-5.3,10.4,0,5.7.5,11.1,4.9,11.1,4.2,0,5.5-3.8,5.5-11Z" transform="translate(366.6)" fill="#e75f49"/>
        </g>
      </g>
      <g id="圖層_2-2" data-name="圖層 2" transform="translate(1278.5 630.898) rotate(90)">
        <g id="圖層_1-2" data-name="圖層 1" transform="translate(0)">
          <path id="Path_484-2" data-name="Path 484" d="M21.2,19H0V0H72.91V19h-21V70.4H21.2Z" transform="translate(0 2.7)" fill="none" stroke="#e75f49" stroke-miterlimit="10" stroke-width="1"/>
          <path id="Path_485-2" data-name="Path 485" d="M.1,18.3C.1,12.7.1,5,0,1.4H29.4a76.219,76.219,0,0,1,.8,9.8C31.9,7.5,35.5,0,48,0V25.2c-12.8-.7-17.5.9-17.5,14.6v15H.1Z" transform="translate(78.2 18.3)" fill="none" stroke="#e75f49" stroke-miterlimit="10" stroke-width="1"/>
          <path id="Path_486-2" data-name="Path 486" d="M0,0H30.4V15.7H0ZM0,19.7H30.4V73.1H0Z" transform="translate(133)" fill="none" stroke="#e75f49" stroke-miterlimit="10" stroke-width="1"/>
          <path id="Path_487-2" data-name="Path 487" d="M67.6,34.7c-1.7,10.9-9.7,21.5-33.5,21.5C6.6,56.2,0,40.8,0,27.8,0,11.9,11.2,0,34.2,0c28.5,0,33,16,33.2,21.7H40.1c-.3-3.9-1-7.1-4.5-7.1s-4.8,4.1-4.8,13.2c0,10,1.3,14,4.8,14,3,0,4.2-1.9,4.7-7.1Z" transform="translate(171.6 18.3)" fill="none" stroke="#e75f49" stroke-miterlimit="10" stroke-width="1"/>
          <path id="Path_488-2" data-name="Path 488" d="M0,73.1V0H30.4V73.1Z" transform="translate(246.9)" fill="none" stroke="#e75f49" stroke-miterlimit="10" stroke-width="1"/>
          <path id="Path_489-2" data-name="Path 489" d="M68.8,33.5c0,6.6-.1,16.3.1,19.9H39a51.079,51.079,0,0,1-.5-5.5c-3.7,3.9-7.9,6.9-18.2,6.9C7.8,54.8,0,47.1,0,34.1V0H30.5V31.2c0,4.3,1.1,6.4,3.6,6.4,3.1,0,4.3-2.4,4.3-7.8V0H68.8Z" transform="translate(287.4 19.7)" fill="none" stroke="#e75f49" stroke-miterlimit="10" stroke-width="1"/>
          <path id="Path_490-2" data-name="Path 490" d="M.2,0H30.6V24.2c2.6-2.6,7.2-5.9,16.1-5.9,12.9,0,24.4,8.9,24.4,27.1,0,19.4-12.1,29.1-25.8,29.1-8.5,0-13.5-2.5-16.5-6.1-.2,1.4-.3,3.4-.6,4.7H0C.1,68.6.2,62,.2,56.2ZM40.1,46.2c0-7.3-1.5-10.5-5.1-10.5-4.4,0-5.3,4.2-5.3,10.4,0,5.7.5,11.1,4.9,11.1,4.2,0,5.5-3.8,5.5-11Z" transform="translate(366.6)" fill="none" stroke="#e75f49" stroke-miterlimit="10" stroke-width="1"/>
        </g>
      </g>
      <g id="圖層_2-3" data-name="圖層 2" transform="translate(1366 281.898) rotate(90)">
        <g id="圖層_1-3" data-name="圖層 1" transform="translate(0)">
          <path id="Path_484-3" data-name="Path 484" d="M21.2,19H0V0H72.91V19h-21V70.4H21.2Z" transform="translate(0 2.7)" fill="#e75f49"/>
          <path id="Path_485-3" data-name="Path 485" d="M.1,18.3C.1,12.7.1,5,0,1.4H29.4a76.219,76.219,0,0,1,.8,9.8C31.9,7.5,35.5,0,48,0V25.2c-12.8-.7-17.5.9-17.5,14.6v15H.1Z" transform="translate(78.2 18.3)" fill="#e75f49"/>
          <path id="Path_486-3" data-name="Path 486" d="M0,0H30.4V15.7H0ZM0,19.7H30.4V73.1H0Z" transform="translate(133)" fill="#e75f49"/>
          <path id="Path_487-3" data-name="Path 487" d="M67.6,34.7c-1.7,10.9-9.7,21.5-33.5,21.5C6.6,56.2,0,40.8,0,27.8,0,11.9,11.2,0,34.2,0c28.5,0,33,16,33.2,21.7H40.1c-.3-3.9-1-7.1-4.5-7.1s-4.8,4.1-4.8,13.2c0,10,1.3,14,4.8,14,3,0,4.2-1.9,4.7-7.1Z" transform="translate(171.6 18.3)" fill="#e75f49"/>
          <path id="Path_488-3" data-name="Path 488" d="M0,73.1V0H30.4V73.1Z" transform="translate(246.9)" fill="#e75f49"/>
          <path id="Path_489-3" data-name="Path 489" d="M68.8,33.5c0,6.6-.1,16.3.1,19.9H39a51.079,51.079,0,0,1-.5-5.5c-3.7,3.9-7.9,6.9-18.2,6.9C7.8,54.8,0,47.1,0,34.1V0H30.5V31.2c0,4.3,1.1,6.4,3.6,6.4,3.1,0,4.3-2.4,4.3-7.8V0H68.8Z" transform="translate(287.4 19.7)" fill="#e75f49"/>
          <path id="Path_490-3" data-name="Path 490" d="M.2,0H30.6V24.2c2.6-2.6,7.2-5.9,16.1-5.9,12.9,0,24.4,8.9,24.4,27.1,0,19.4-12.1,29.1-25.8,29.1-8.5,0-13.5-2.5-16.5-6.1-.2,1.4-.3,3.4-.6,4.7H0C.1,68.6.2,62,.2,56.2ZM40.1,46.2c0-7.3-1.5-10.5-5.1-10.5-4.4,0-5.3,4.2-5.3,10.4,0,5.7.5,11.1,4.9,11.1,4.2,0,5.5-3.8,5.5-11Z" transform="translate(366.6)" fill="#e75f49"/>
        </g>
      </g>
      <g id="圖層_2-4" data-name="圖層 2" transform="translate(1278.5 77.441) rotate(90)">
        <g id="圖層_1-4" data-name="圖層 1">
          <path id="Path_484-4" data-name="Path 484" d="M21.2,19H0V0H72.91V19h-21V70.4H21.2Z" transform="translate(0 2.7)" fill="none" stroke="#e75f49" stroke-miterlimit="10" stroke-width="1"/>
          <path id="Path_485-4" data-name="Path 485" d="M.1,18.3C.1,12.7.1,5,0,1.4H29.4a76.219,76.219,0,0,1,.8,9.8C31.9,7.5,35.5,0,48,0V25.2c-12.8-.7-17.5.9-17.5,14.6v15H.1Z" transform="translate(78.2 18.3)" fill="none" stroke="#e75f49" stroke-miterlimit="10" stroke-width="1"/>
          <path id="Path_486-4" data-name="Path 486" d="M0,0H30.4V15.7H0ZM0,19.7H30.4V73.1H0Z" transform="translate(133)" fill="none" stroke="#e75f49" stroke-miterlimit="10" stroke-width="1"/>
          <path id="Path_487-4" data-name="Path 487" d="M67.6,34.7c-1.7,10.9-9.7,21.5-33.5,21.5C6.6,56.2,0,40.8,0,27.8,0,11.9,11.2,0,34.2,0c28.5,0,33,16,33.2,21.7H40.1c-.3-3.9-1-7.1-4.5-7.1s-4.8,4.1-4.8,13.2c0,10,1.3,14,4.8,14,3,0,4.2-1.9,4.7-7.1Z" transform="translate(171.6 18.3)" fill="none" stroke="#e75f49" stroke-miterlimit="10" stroke-width="1"/>
          <path id="Path_488-4" data-name="Path 488" d="M0,73.1V0H30.4V73.1Z" transform="translate(246.9)" fill="none" stroke="#e75f49" stroke-miterlimit="10" stroke-width="1"/>
          <path id="Path_489-4" data-name="Path 489" d="M68.8,33.5c0,6.6-.1,16.3.1,19.9H39a51.079,51.079,0,0,1-.5-5.5c-3.7,3.9-7.9,6.9-18.2,6.9C7.8,54.8,0,47.1,0,34.1V0H30.5V31.2c0,4.3,1.1,6.4,3.6,6.4,3.1,0,4.3-2.4,4.3-7.8V0H68.8Z" transform="translate(287.4 19.7)" fill="none" stroke="#e75f49" stroke-miterlimit="10" stroke-width="1"/>
          <path id="Path_490-4" data-name="Path 490" d="M.2,0H30.6V24.2c2.6-2.6,7.2-5.9,16.1-5.9,12.9,0,24.4,8.9,24.4,27.1,0,19.4-12.1,29.1-25.8,29.1-8.5,0-13.5-2.5-16.5-6.1-.2,1.4-.3,3.4-.6,4.7H0C.1,68.6.2,62,.2,56.2ZM40.1,46.2c0-7.3-1.5-10.5-5.1-10.5-4.4,0-5.3,4.2-5.3,10.4,0,5.7.5,11.1,4.9,11.1,4.2,0,5.5-3.8,5.5-11Z" transform="translate(366.6)" fill="none" stroke="#e75f49" stroke-miterlimit="10" stroke-width="1"/>
        </g>
      </g>
    </g>
  </g>
</svg>
