<svg xmlns="http://www.w3.org/2000/svg" viewBox="0 0 206.17 74.5"><defs><style>.cls-1{fill:#e75f49;}</style></defs><g id="圖層_2" data-name="圖層 2"><g id="圖層_1-2" data-name="圖層 1"><polygon class="cls-1" points="0 21.7 21.2 21.7 21.2 73.1 51.9 73.1 51.9 21.7 72.91 21.7 72.91 2.7 0 2.7 0 21.7"/><path class="cls-1" d="M108.4,29.5a76.22,76.22,0,0,0-.8-9.8H78.2c.1,3.6.1,11.3.1,16.9V73.1h30.4v-15c0-13.7,4.7-15.3,17.5-14.6V18.3C113.7,18.3,110.1,25.8,108.4,29.5Z"/><rect class="cls-1" x="133" width="30.4" height="15.7"/><rect class="cls-1" x="133" y="19.7" width="30.4" height="53.4"/><path class="cls-1" d="M202.4,46.1c0-8.14,1-12.27,3.77-13.05V18.31h-.37c-23,0-34.2,11.9-34.2,27.8,0,13,6.6,28.4,34.1,28.4h.47V60C203.45,59.18,202.4,55.05,202.4,46.1Z"/></g></g></svg>