<svg xmlns="http://www.w3.org/2000/svg" xmlns:xlink="http://www.w3.org/1999/xlink" width="37.969" height="29.435" viewBox="0 0 37.969 29.435">
  <defs>
    <linearGradient id="linear-gradient" x1="0.351" y1="0.679" x2="0.882" y2="-0.358" gradientUnits="objectBoundingBox">
      <stop offset="0" stop-color="#ffa10a"/>
      <stop offset="1" stop-color="#ffef36"/>
    </linearGradient>
  </defs>
  <g id="icon-pocket" transform="translate(-568 -1264.035)">
    <g id="Path_273" data-name="Path 273" transform="translate(568 1273.832)" fill="none">
      <path d="M0,0H37.969V16.366A3.273,3.273,0,0,1,34.7,19.639H3.273A3.273,3.273,0,0,1,0,16.366Z" stroke="none"/>
      <path d="M 1.000003814697266 1.000001907348633 L 1.000003814697266 16.36582183837891 C 1.000003814697266 17.61924171447754 2.019741058349609 18.63898277282715 3.273162841796875 18.63898277282715 L 34.69553375244141 18.63898277282715 C 35.9489631652832 18.63898277282715 36.96870040893555 17.61924171447754 36.96870040893555 16.36582183837891 L 36.96870040893555 1.000001907348633 L 1.000003814697266 1.000001907348633 M 3.814697265625e-06 1.9073486328125e-06 L 37.96870040893555 1.9073486328125e-06 L 37.96870040893555 16.36582183837891 C 37.96870040893555 18.17354202270508 36.50326156616211 19.63898277282715 34.69553375244141 19.63898277282715 L 3.273162841796875 19.63898277282715 C 1.465442657470703 19.63898277282715 3.814697265625e-06 18.17354202270508 3.814697265625e-06 16.36582183837891 L 3.814697265625e-06 1.9073486328125e-06 Z" stroke="none" fill="#ededed"/>
    </g>
    <g id="Path_271" data-name="Path 271" transform="translate(568 1256)" fill="url(#linear-gradient)">
      <path d="M 37.46870040893555 17.33172035217285 L 0.5000020861625671 17.33172035217285 L 0.5000020861625671 12.28068828582764 L 37.46870040893555 8.58782958984375 L 37.46870040893555 17.33172035217285 Z" stroke="none"/>
      <path d="M 36.96870040893555 9.140270233154297 L 1.000003814697266 12.73323726654053 L 1.000003814697266 16.83171844482422 L 36.96870040893555 16.83171844482422 L 36.96870040893555 9.140270233154297 M 37.96870040893555 8.035398483276367 L 37.96870040893555 17.83171844482422 L 3.814697265625e-06 17.83171844482422 L 3.814697265625e-06 11.82814979553223 L 37.96870040893555 8.035398483276367 Z" stroke="none" fill="#ededed"/>
    </g>
    <g id="Path_272" data-name="Path 272" transform="translate(568 1260.898)" fill="url(#linear-gradient)">
      <path d="M 0.5000020861625671 17.28075408935547 L 0.5000020861625671 12.28068828582764 L 37.46870040893555 8.58782958984375 L 37.46870040893555 13.68655681610107 L 0.5000020861625671 17.28075408935547 Z" stroke="none"/>
      <path d="M 36.96870040893555 9.140270233154297 L 1.000003814697266 12.73323726654053 L 1.000003814697266 16.72977828979492 L 36.96870040893555 13.23280429840088 L 36.96870040893555 9.140270233154297 M 37.96870040893555 8.035398483276367 L 37.96870040893555 14.14029979705811 L 3.814697265625e-06 17.83171844482422 L 3.814697265625e-06 11.82814979553223 L 37.96870040893555 8.035398483276367 Z" stroke="none" fill="#ededed"/>
    </g>
  </g>
</svg>
