<svg xmlns="http://www.w3.org/2000/svg" viewBox="0 0 438.7 75.5"><defs><style>.cls-1{fill:none;stroke:#e75f49;stroke-miterlimit:10;}</style></defs><g id="圖層_2" data-name="圖層 2"><g id="圖層_1-2" data-name="圖層 1"><path class="cls-1" d="M21.7,22.2H.5V3.2H73.41v19h-21V73.6H21.7Z"/><path class="cls-1" d="M78.8,37.1c0-5.6,0-13.3-.1-16.9h29.4a76.22,76.22,0,0,1,.8,9.8c1.7-3.7,5.3-11.2,17.8-11.2V44c-12.8-.7-17.5.9-17.5,14.6v15H78.8Z"/><path class="cls-1" d="M133.5.5h30.4V16.2H133.5Zm0,19.7h30.4V73.6H133.5Z"/><path class="cls-1" d="M239.7,53.5C238,64.4,230,75,206.2,75c-27.5,0-34.1-15.4-34.1-28.4,0-15.9,11.2-27.8,34.2-27.8,28.5,0,33,16,33.2,21.7H212.2c-.3-3.9-1-7.1-4.5-7.1s-4.8,4.1-4.8,13.2c0,10,1.3,14,4.8,14,3,0,4.2-1.9,4.7-7.1Z"/><path class="cls-1" d="M247.4,73.6V.5h30.4V73.6Z"/><path class="cls-1" d="M356.7,53.7c0,6.6-.1,16.3.1,19.9H326.9a51.08,51.08,0,0,1-.5-5.5c-3.7,3.9-7.9,6.9-18.2,6.9-12.5,0-20.3-7.7-20.3-20.7V20.2h30.5V51.4c0,4.3,1.1,6.4,3.6,6.4,3.1,0,4.3-2.4,4.3-7.8V20.2h30.4Z"/><path class="cls-1" d="M367.3.5h30.4V24.7c2.6-2.6,7.2-5.9,16.1-5.9,12.9,0,24.4,8.9,24.4,27.1,0,19.4-12.1,29.1-25.8,29.1-8.5,0-13.5-2.5-16.5-6.1-.2,1.4-.3,3.4-.6,4.7H367.1c.1-4.5.2-11.1.2-16.9Zm39.9,46.2c0-7.3-1.5-10.5-5.1-10.5-4.4,0-5.3,4.2-5.3,10.4,0,5.7.5,11.1,4.9,11.1C405.9,57.7,407.2,53.9,407.2,46.7Z"/></g></g></svg>