<svg xmlns="http://www.w3.org/2000/svg" viewBox="0 0 356 165"><defs><style>.cls-1{fill:#e75f49;}</style></defs><g id="圖層_2" data-name="圖層 2"><g id="圖層_1-2" data-name="圖層 1"><path class="cls-1" d="M195.43,70.36c-4.4,0-5.3,4.2-5.3,10.4,0,5.7.5,11.1,4.9,11.1,4.2,0,5.5-3.8,5.5-11S199,70.36,195.43,70.36Z"/><path class="cls-1" d="M0,0V53c28.16.14,32.63,16,32.83,21.69H5.53c-.3-3.9-1-7.1-4.5-7.1a3.77,3.77,0,0,0-1,.15V94.62a3.77,3.77,0,0,0,1,.14c3,0,4.2-1.9,4.7-7.1H33c-1.69,10.83-9.6,21.35-33,21.5V165H356V0ZM71.13,107.76H40.73V34.66h30.4Zm49.1,0a51.08,51.08,0,0,1-.5-5.5c-3.7,3.9-7.9,6.9-18.2,6.9-12.5,0-20.3-7.7-20.3-20.7V54.36h30.5v31.2c0,4.3,1.1,6.4,3.6,6.4,3.1,0,4.3-2.4,4.3-7.8V54.36H150v33.5c0,6.6-.1,16.3.1,19.9Zm85.5,1.4c-8.5,0-13.5-2.5-16.5-6.1-.2,1.4-.3,3.4-.6,4.7h-28.2c.09-4.5.2-11.1.2-16.9V34.66H191v24.2c2.6-2.6,7.2-5.9,16.1-5.9,12.9,0,24.4,8.9,24.4,27.1C231.53,99.46,219.43,109.16,205.73,109.16Z"/></g></g></svg>