<svg xmlns="http://www.w3.org/2000/svg" viewBox="0 0 437.7 74.5"><defs><style>.cls-1{fill:#004290;}</style></defs><g id="圖層_2" data-name="圖層 2"><g id="圖層_1-2" data-name="圖層 1"><path class="cls-1" d="M21.2,21.7H0V2.7H72.91v19h-21V73.1H21.2Z"/><path class="cls-1" d="M78.3,36.6c0-5.6,0-13.3-.1-16.9h29.4a76.22,76.22,0,0,1,.8,9.8c1.7-3.7,5.3-11.2,17.8-11.2V43.5c-12.8-.7-17.5.9-17.5,14.6v15H78.3Z"/><path class="cls-1" d="M133,0h30.4V15.7H133Zm0,19.7h30.4V73.1H133Z"/><path class="cls-1" d="M239.2,53c-1.7,10.9-9.7,21.5-33.5,21.5-27.5,0-34.1-15.4-34.1-28.4,0-15.9,11.2-27.8,34.2-27.8,28.5,0,33,16,33.2,21.7H211.7c-.3-3.9-1-7.1-4.5-7.1s-4.8,4.1-4.8,13.2c0,10,1.3,14,4.8,14,3,0,4.2-1.9,4.7-7.1Z"/><path class="cls-1" d="M246.9,73.1V0h30.4V73.1Z"/><path class="cls-1" d="M356.2,53.2c0,6.6-.1,16.3.1,19.9H326.4a51.08,51.08,0,0,1-.5-5.5c-3.7,3.9-7.9,6.9-18.2,6.9-12.5,0-20.3-7.7-20.3-20.7V19.7h30.5V50.9c0,4.3,1.1,6.4,3.6,6.4,3.1,0,4.3-2.4,4.3-7.8V19.7h30.4Z"/><path class="cls-1" d="M366.8,0h30.4V24.2c2.6-2.6,7.2-5.9,16.1-5.9,12.9,0,24.4,8.9,24.4,27.1,0,19.4-12.1,29.1-25.8,29.1-8.5,0-13.5-2.5-16.5-6.1-.2,1.4-.3,3.4-.6,4.7H366.6c.1-4.5.2-11.1.2-16.9Zm39.9,46.2c0-7.3-1.5-10.5-5.1-10.5-4.4,0-5.3,4.2-5.3,10.4,0,5.7.5,11.1,4.9,11.1C405.4,57.2,406.7,53.4,406.7,46.2Z"/></g></g></svg>