<svg xmlns="http://www.w3.org/2000/svg" viewBox="0 0 93.38 98.95"><defs><style>.cls-1{fill:#08bf5b;}.cls-2{fill:#fff;}</style></defs><g id="圖層_2" data-name="圖層 2"><g id="Layer_1" data-name="Layer 1"><rect x="27.25" y="0.01" width="6.94" height="30.24" rx="1.24"/><path d="M22.17,23.31h-12V1.24A1.23,1.23,0,0,0,8.9,0H4.44A1.24,1.24,0,0,0,3.2,1.24V29a1.25,1.25,0,0,0,1.24,1.24H22.17A1.25,1.25,0,0,0,23.41,29V24.55A1.24,1.24,0,0,0,22.17,23.31Z"/><path d="M88.48,7a1.24,1.24,0,0,0,1.24-1.24V1.24A1.23,1.23,0,0,0,88.48,0H70.76a1.23,1.23,0,0,0-1.24,1.23V29a1.24,1.24,0,0,0,1.24,1.24H88.48A1.24,1.24,0,0,0,89.72,29V24.55a1.23,1.23,0,0,0-1.24-1.24h-12V18.6h12a1.24,1.24,0,0,0,1.24-1.24V12.9a1.23,1.23,0,0,0-1.24-1.24h-12V7Z"/><path d="M63.57,0H59.1a1.24,1.24,0,0,0-1.24,1.23V17.31L46.19.61A1.55,1.55,0,0,0,44.81,0a.74.74,0,0,0-.21,0H40.14A1.24,1.24,0,0,0,38.9,1.24V29a1.25,1.25,0,0,0,1.24,1.24H44.6A1.24,1.24,0,0,0,45.84,29V12.23L58,29.64a1.15,1.15,0,0,0,.14.17,1.21,1.21,0,0,0,.86.44h4.55A1.25,1.25,0,0,0,64.81,29V1.24A1.24,1.24,0,0,0,63.57,0Z"/><rect class="cls-1" y="40.38" width="93.38" height="58.58" rx="3.4"/><path class="cls-2" d="M33.67,63.22a9.31,9.31,0,0,1-9.48,9.28H20.13v7.6a.92.92,0,0,1-.92.92H14.85a.91.91,0,0,1-.91-.92V54.84a.91.91,0,0,1,.91-.91h9.34A9.31,9.31,0,0,1,33.67,63.22Zm-6.19,0a3.31,3.31,0,0,0-3.29-3.48H20.13v7h4.06A3.31,3.31,0,0,0,27.48,63.22Z"/><path class="cls-2" d="M56.65,62.15V80.54a.48.48,0,0,1-.48.48H51.33a.49.49,0,0,1-.48-.48V79.2a7.26,7.26,0,0,1-5.76,2.36c-5.07,0-9.25-4.45-9.25-10.22S40,61.13,45.09,61.13a7.26,7.26,0,0,1,5.76,2.36V62.15a.48.48,0,0,1,.48-.48h4.84A.47.47,0,0,1,56.65,62.15Zm-5.8,9.19a4.61,4.61,0,1,0-4.6,4.72A4.42,4.42,0,0,0,50.85,71.34Z"/><path class="cls-2" d="M76,62.17,71.51,73.39l-4.6-11.22a.82.82,0,0,0-.74-.5H61.23a.48.48,0,0,0-.44.66l7.68,18.73-2.8,7.06a.47.47,0,0,0,.44.65h5a.8.8,0,0,0,.74-.5L82.1,62.33a.48.48,0,0,0-.45-.66H76.71A.79.79,0,0,0,76,62.17Z"/></g></g></svg>