<svg xmlns="http://www.w3.org/2000/svg" width="393.446" height="543.414" viewBox="0 0 393.446 543.414">
  <g id="liner_Orange" transform="translate(0.72 0.707)">
    <path id="liner_Orange-2" data-name="liner_Orange" d="M538.984,588.295,556,570.312Zm-20.966,0L556,548.155Zm-23.236,0L556,523.6Zm-20.966,0L556,501.441Zm-43.648,0L556,462.464Zm-21.288,0L556,441.175Zm-34.008,0L556,407.168Zm-21.288,0L556,385.88Zm-30.323,0L556,355.557Zm-21.287,0L556,334.269Zm-32.164,0L556,302.105Zm-21.289,0L556,280.816Zm-39.537,0L556,241.279Zm-21.288,0L556,219.991Zm-23.64,0L556,181.967ZM164,566.5,556,160.118Zm0-53.033,392-392Zm0-21.289,392-392Zm0-27.17L556,58.625Zm0-21.849L546.819,46.3Zm0-36.6L524.268,46.3Zm0-21.287L502.98,46.3Zm0-35.763L456.485,46.3Zm0-21.847L435.409,46.3Zm0-46.541L397.585,46.3Zm0-21.37L376.327,46.3Zm0-52.693L319.076,46.3Zm0-21.848L298,46.3Zm0-37.106L265.273,46.3Zm0-21.368L244.017,46.3Zm0-40.753L202.286,46.3Zm0-21.85L181.21,46.3Z" transform="translate(-164 -46.295)" fill="none" stroke="#ffa10a" stroke-width="2"/>
  </g>
</svg>
