<svg xmlns="http://www.w3.org/2000/svg" xmlns:xlink="http://www.w3.org/1999/xlink" viewBox="0 0 266.31 49.26"><defs><style>.cls-1{fill:url(#未命名漸層_2);}.cls-2{fill:url(#未命名漸層_2-2);}.cls-3{fill:url(#未命名漸層_2-3);}.cls-4{fill:#00429d;}.cls-5{fill:#e75f49;}</style><linearGradient id="未命名漸層_2" x1="-1607.27" y1="-1255.38" x2="-1607.27" y2="-1256.62" gradientTransform="matrix(-114.95, -71.84, -66.51, 106.42, -268185.72, 18214.17)" gradientUnits="userSpaceOnUse"><stop offset="0" stop-color="#ffa10a"/><stop offset="1" stop-color="#ffef36"/></linearGradient><linearGradient id="未命名漸層_2-2" x1="-1607.96" y1="-1256.2" x2="-1607.96" y2="-1256.73" xlink:href="#未命名漸層_2"/><linearGradient id="未命名漸層_2-3" x1="-1608.13" y1="-1256.31" x2="-1608.13" y2="-1256.84" xlink:href="#未命名漸層_2"/></defs><g id="圖層_2" data-name="圖層 2"><g id="圖層_1-2" data-name="圖層 1"><g id="圖層_2-2" data-name="圖層 2"><g id="圖層_1-3" data-name="圖層 1"><path id="Path_432" data-name="Path 432" class="cls-1" d="M187.3,49.26,214.18.19,25.37.16,0,49.23Z"/></g></g><g id="圖層_2-3" data-name="圖層 2"><g id="圖層_1-4" data-name="圖層 1"><path id="Path_432-2" data-name="Path 432" class="cls-2" d="M214.64,48.68,240.52.15H219.43L193.65,48.66Z"/></g></g><g id="圖層_2-4" data-name="圖層 2"><g id="圖層_1-5" data-name="圖層 1"><path id="Path_432-3" data-name="Path 432" class="cls-3" d="M240.91,49.1,266.31,0l-21,0L219.92,49.07Z"/></g></g><g id="object"><g id="Group_850" data-name="Group 850"><path id="Path_279" data-name="Path 279" class="cls-4" d="M13.82,19.07H5.92V19a5.06,5.06,0,0,1,.61-.92c.37-.5.82-1.05,1.34-1.67s1-1.2,1.58-1.77a8.24,8.24,0,0,1,1.4-1.24h21a11.12,11.12,0,0,1-1,1.53c-.46.62-.94,1.24-1.46,1.86a17.27,17.27,0,0,1-1.5,1.58c-.49.45-.85.67-1.07.67H21.84l-6,16.51h-8Z"/><path id="Path_280" data-name="Path 280" class="cls-4" d="M33.92,13.42H52.56a4.21,4.21,0,0,1,2.42.63,4.1,4.1,0,0,1,1.4,1.58A6.47,6.47,0,0,1,57,17.72a16.3,16.3,0,0,1,.14,2.09,5.64,5.64,0,0,1-1,3.51,7.6,7.6,0,0,1-2.61,2.2A12.47,12.47,0,0,1,50,26.69a35.59,35.59,0,0,1-3.57.48l8.19,8.4H45.7l-8.61-7.94-.46.33-2.76,7.61h-8Zm15.13,6.39a1.1,1.1,0,0,0-.13-.56c-.08-.16-.29-.23-.62-.23H39.9l-2.39,6.52,3.68-3.72h6.69a.93.93,0,0,0,.9-.57,2.39,2.39,0,0,0,.27-1Z"/><path id="Path_281" data-name="Path 281" class="cls-4" d="M63.21,13.42h8L63.17,35.57h-8Z"/><path id="Path_282" data-name="Path 282" class="cls-4" d="M69.73,25.33a10.94,10.94,0,0,1,.88-4.14A13.87,13.87,0,0,1,73,17.35a13.11,13.11,0,0,1,3.47-2.82,8.38,8.38,0,0,1,4.18-1.11H97.9c-.8,1.06-1.62,2.06-2.44,3a28.15,28.15,0,0,1-2.7,2.65H81.9a2.31,2.31,0,0,0-1.15.35,5.35,5.35,0,0,0-1.17.95,8.14,8.14,0,0,0-1,1.31,7.66,7.66,0,0,0-.7,1.44,6,6,0,0,0-.34,1.72,4,4,0,0,0,.43,1.7A7,7,0,0,0,79,28.18a6.78,6.78,0,0,0,1.42,1.25,2.71,2.71,0,0,0,1.48.5h10c-.64.94-1.36,1.91-2.17,2.9a18.14,18.14,0,0,1-2.8,2.74H83.56a27.69,27.69,0,0,1-5.06-.46,13.71,13.71,0,0,1-4.43-1.61,8.77,8.77,0,0,1-3.15-3.11,9.4,9.4,0,0,1-1.19-5v-.08Z"/><path id="Path_283" data-name="Path 283" class="cls-4" d="M92,35.57,100,13.42h8l-6,16.51h13.24a3.34,3.34,0,0,1-.48.7c-.35.47-.78,1-1.31,1.65s-1.09,1.26-1.68,1.88a13.8,13.8,0,0,1-1.46,1.4H92Z"/><path id="Path_284" data-name="Path 284" class="cls-4" d="M120.13,22.7l3.3-9.28h7.9q-1.47,4.26-2.26,6.62t-1.17,3.54c-.25.78-.4,1.27-.46,1.48a2.26,2.26,0,0,0-.08.44,6.13,6.13,0,0,0-.21,1.34,3.1,3.1,0,0,0,.82,2.28,2.43,2.43,0,0,0,1.77.81h2a4.12,4.12,0,0,0,1.86-.42,6,6,0,0,0,1.53-1.05,8.71,8.71,0,0,0,1.17-1.33,10.24,10.24,0,0,0,.79-1.3l4.52-12.41h7.94l-3.76,10.32a50.11,50.11,0,0,1-2.14,5.08,15.73,15.73,0,0,1-2.46,3.69,9.21,9.21,0,0,1-3.18,2.28,10.74,10.74,0,0,1-4.3.77h-4.89a28.07,28.07,0,0,1-4.93-.35,8.62,8.62,0,0,1-3.14-1.11,4.26,4.26,0,0,1-1.67-1.94,7.2,7.2,0,0,1-.5-2.86c0-.31,0-.62,0-.92s.07-.66.13-1.05a14.52,14.52,0,0,1,.58-2.15C119.63,24.47,119.88,23.65,120.13,22.7Z"/><path id="Path_285" data-name="Path 285" class="cls-4" d="M171.11,13.42a3.74,3.74,0,0,1,2.07.52,3.94,3.94,0,0,1,1.3,1.36,5.68,5.68,0,0,1,.66,2,13.64,13.64,0,0,1,.19,2.3v.09a4,4,0,0,1-.35,1.63,7.92,7.92,0,0,1-.88,1.48A8.66,8.66,0,0,1,173,24a5.65,5.65,0,0,1-1.11.77,3.66,3.66,0,0,1,.84,1.07,3.54,3.54,0,0,1,.42,1.53,3.3,3.3,0,0,1-.21,1.16c-.14.4-.28.77-.42,1.14l-.17.46A15.65,15.65,0,0,1,171,32.6a5.54,5.54,0,0,1-1.74,1.7,7.7,7.7,0,0,1-2.53,1,18.38,18.38,0,0,1-3.7.32H143.86l8.07-22.15h19.18Zm-8.6,16.46c.28-.14.5-.25.66-.35l.5-.3a1.46,1.46,0,0,0,.38-.27,5.38,5.38,0,0,1,.38-.66l.08-.21a.92.92,0,0,0,.11-.43c0-.19,0-.39,0-.58H155l-1.09,2.8Zm-2.93-8h6.68s.1-.06.19-.19.2-.27.32-.43l.31-.49a1.7,1.7,0,0,0,.19-.35l.08-.21a.49.49,0,0,1-.08-.21,4,4,0,0,0-.44-.56c-.21-.24-.34-.36-.4-.36h-8.56l-2.3,6.35Z"/></g></g><g id="object-2"><g id="Group_850-2" data-name="Group 850-2"><path id="Path_279-2" data-name="Path 279-2" class="cls-5" d="M8.48,19.07H.58V19a5.06,5.06,0,0,1,.61-.92c.38-.5.82-1.05,1.34-1.67s1-1.2,1.59-1.77a8.24,8.24,0,0,1,1.4-1.24H26.46a11.05,11.05,0,0,1-1,1.53c-.46.62-.95,1.24-1.46,1.86a16.11,16.11,0,0,1-1.51,1.58c-.49.45-.84.67-1.07.67H16.51l-6,16.51h-8Z"/><path id="Path_280-2" data-name="Path 280-2" class="cls-5" d="M28.58,13.42H47.22a4.26,4.26,0,0,1,2.43.63A4.15,4.15,0,0,1,51,15.63a6.47,6.47,0,0,1,.63,2.09,16.3,16.3,0,0,1,.14,2.09,5.63,5.63,0,0,1-1,3.51,7.79,7.79,0,0,1-2.61,2.2,12.47,12.47,0,0,1-3.47,1.17,35.59,35.59,0,0,1-3.57.48l8.19,8.4h-9l-8.6-7.94L31.3,28l-2.76,7.61h-8Zm15.13,6.39a1.09,1.09,0,0,0-.12-.56c-.09-.16-.3-.23-.63-.23h-8.4l-2.38,6.52,3.68-3.72h6.68a.93.93,0,0,0,.9-.57,2.25,2.25,0,0,0,.27-1Z"/><path id="Path_281-2" data-name="Path 281-2" class="cls-5" d="M57.88,13.42h8L57.84,35.57h-8Z"/><path id="Path_282-2" data-name="Path 282-2" class="cls-5" d="M64.4,25.33a10.57,10.57,0,0,1,.88-4.14,13.63,13.63,0,0,1,2.38-3.84,13.11,13.11,0,0,1,3.47-2.82,8.37,8.37,0,0,1,4.17-1.11H92.57c-.81,1.06-1.63,2.06-2.45,3a26.93,26.93,0,0,1-2.69,2.65H76.56a2.35,2.35,0,0,0-1.15.35,5.6,5.6,0,0,0-1.17.95,8.08,8.08,0,0,0-1,1.31,7.14,7.14,0,0,0-.71,1.44,6.31,6.31,0,0,0-.33,1.72,4,4,0,0,0,.42,1.7,7.41,7.41,0,0,0,1.07,1.65,6.72,6.72,0,0,0,1.41,1.25,2.74,2.74,0,0,0,1.48.5h10c-.64.94-1.37,1.91-2.17,2.9a18.21,18.21,0,0,1-2.81,2.74H78.22a27.58,27.58,0,0,1-5-.46,13.71,13.71,0,0,1-4.43-1.61,8.8,8.8,0,0,1-3.16-3.11,9.5,9.5,0,0,1-1.19-5v-.08Z"/><path id="Path_283-2" data-name="Path 283-2" class="cls-5" d="M86.63,35.57l8.06-22.15h8l-6,16.51h13.25a4.33,4.33,0,0,1-.48.7q-.53.71-1.32,1.65c-.53.63-1.09,1.26-1.67,1.88a14.83,14.83,0,0,1-1.46,1.4H86.63Z"/><path id="Path_284-2" data-name="Path 284-2" class="cls-5" d="M114.79,22.7l3.3-9.28H126q-1.45,4.26-2.25,6.62t-1.17,3.54c-.25.78-.41,1.27-.46,1.48a2.29,2.29,0,0,0-.09.44,5.57,5.57,0,0,0-.2,1.34,3,3,0,0,0,.81,2.28,2.47,2.47,0,0,0,1.78.81h2a4.15,4.15,0,0,0,1.86-.42,6.07,6.07,0,0,0,1.52-1.05A8.2,8.2,0,0,0,131,27.13a11.64,11.64,0,0,0,.8-1.3l4.51-12.41h7.94l-3.76,10.32a52.42,52.42,0,0,1-2.13,5.08,16.09,16.09,0,0,1-2.47,3.69,9.18,9.18,0,0,1-3.17,2.28,10.79,10.79,0,0,1-4.31.77h-4.89a28.07,28.07,0,0,1-4.93-.35,8.5,8.5,0,0,1-3.13-1.11,4.28,4.28,0,0,1-1.68-1.94,7.57,7.57,0,0,1-.5-2.86c0-.31,0-.62,0-.92s.07-.66.13-1.05a14.55,14.55,0,0,1,.59-2.15C114.29,24.47,114.54,23.65,114.79,22.7Z"/><path id="Path_285-2" data-name="Path 285-2" class="cls-5" d="M165.78,13.42a3.78,3.78,0,0,1,2.07.52,3.91,3.91,0,0,1,1.29,1.36,5.7,5.7,0,0,1,.67,2,14.77,14.77,0,0,1,.19,2.3v.09a4.2,4.2,0,0,1-.36,1.63,7.41,7.41,0,0,1-.88,1.48A7.61,7.61,0,0,1,167.63,24a5.65,5.65,0,0,1-1.11.77,3.5,3.5,0,0,1,.84,1.07,3.4,3.4,0,0,1,.42,1.53,3.54,3.54,0,0,1-.2,1.16c-.14.4-.28.77-.43,1.14l-.16.46a16.56,16.56,0,0,1-1.32,2.5,5.54,5.54,0,0,1-1.74,1.7,7.65,7.65,0,0,1-2.52,1,18.38,18.38,0,0,1-3.7.32H138.53l8.06-22.15h19.19Zm-8.61,16.46c.28-.14.5-.25.67-.35l.5-.3a1.89,1.89,0,0,0,.38-.27,5.32,5.32,0,0,1,.37-.66l.09-.21a1,1,0,0,0,.1-.43c0-.19,0-.39,0-.58h-9.61l-1.09,2.8Zm-2.93-8h6.69s.09-.06.19-.19l.31-.43c.11-.17.22-.33.31-.49a1.7,1.7,0,0,0,.19-.35l.09-.21a.4.4,0,0,1-.09-.21,3.39,3.39,0,0,0-.44-.56c-.2-.24-.34-.36-.39-.36h-8.57l-2.3,6.35Z"/></g></g></g></g></svg>