         <svg xmlns="http://www.w3.org/2000/svg" width="175.483" height="562.169" viewBox="0 0 175.483 562.169">
            <g id="Group_1073" data-name="Group 1073" transform="translate(0 -1421.987)">
              <g id="圖層_2" data-name="圖層 2" transform="translate(39.49 1984.156) rotate(-90)">
                <g id="圖層_1" data-name="圖層 1">
                  <path id="Path_210" data-name="Path 210" d="M0,19H21.2V70.4H51.9V19H72.91V0H0Z" transform="translate(0 2.7)" fill="#e75f49"/>
                  <path id="Path_211" data-name="Path 211" d="M30.2,11.2a76.219,76.219,0,0,0-.8-9.8H0C.1,5,.1,12.7.1,18.3V54.8H30.5v-15c0-13.7,4.7-15.3,17.5-14.6V0C35.5,0,31.9,7.5,30.2,11.2Z" transform="translate(78.2 18.3)" fill="#e75f49"/>
                  <rect id="Rectangle_639" data-name="Rectangle 639" width="30.4" height="15.7" transform="translate(133)" fill="#e75f49"/>
                  <rect id="Rectangle_640" data-name="Rectangle 640" width="30.4" height="53.4" transform="translate(133 19.7)" fill="#e75f49"/>
                  <path id="Path_212" data-name="Path 212" d="M30.8,27.79c0-8.14,1-12.27,3.77-13.05V0H34.2C11.2,0,0,11.9,0,27.8c0,13,6.6,28.4,34.1,28.4h.47V41.69C31.85,40.87,30.8,36.74,30.8,27.79Z" transform="translate(171.6 18.31)" fill="#e75f49"/>
                </g>
              </g>
              <g id="Group_834" data-name="Group 834" transform="translate(0 1421.987)">
                <g id="圖層_2-2" data-name="圖層 2" transform="translate(0 356) rotate(-90)">
                  <g id="圖層_1-2" data-name="圖層 1">
                    <path id="Path_208" data-name="Path 208" d="M5.3,0C.9,0,0,4.2,0,10.4c0,5.7.5,11.1,4.9,11.1,4.2,0,5.5-3.8,5.5-11S8.87,0,5.3,0Z" transform="translate(190.13 75.5)" fill="#e75f49"/>
                    <path id="Path_209" data-name="Path 209" d="M0,0V56.367c28.16.149,32.63,17.017,32.83,23.068H5.53c-.3-4.148-1-7.551-4.5-7.551a3.562,3.562,0,0,0-1,.16v28.588a3.561,3.561,0,0,0,1,.149c3,0,4.2-2.021,4.7-7.551H33c-1.69,11.518-9.6,22.706-33,22.866v59.388H356V0ZM71.13,114.607H40.73V36.862h30.4Zm49.1,0a57.686,57.686,0,0,1-.5-5.849c-3.7,4.148-7.9,7.338-18.2,7.338-12.5,0-20.3-8.189-20.3-22.015V57.814h30.5V91c0,4.573,1.1,6.807,3.6,6.807,3.1,0,4.3-2.552,4.3-8.3V57.814H150V93.442c0,7.019-.1,17.336.1,21.164Zm85.5,1.489c-8.5,0-13.5-2.659-16.5-6.488-.2,1.489-.3,3.616-.6,5h-28.2c.09-4.786.2-11.805.2-17.974V36.862H191V62.6c2.6-2.765,7.2-6.275,16.1-6.275,12.9,0,24.4,9.465,24.4,28.822C231.53,105.779,219.43,116.1,205.73,116.1Z" fill="#e75f49"/>
                  </g>
                </g>
              </g>
            </g>
      </svg>          