<svg xmlns="http://www.w3.org/2000/svg" width="100%" height="654.748" viewBox="0 0 1191.694 654.748">
<g id="Group_517" data-name="Group 517" transform="translate(0.287 0.42)">
    <g id="Group_517-2" data-name="Group 517">
        <path id="Path_170" data-name="Path 170" d="M677,681.8c41.952,18.355,85.165,41.7,132.174,49.57,36.8,6.158,84.886,7.007,122.632,6.782,57.958-.332,97.667-12.184,138.531-41.183,39.842-28.282,78.941-59.113,122.552-84.117,74.03-42.43,166.986-88.882,259.663-103.879,10.79-1.739,21.62-3.159,32.4-4.579.61-.08,1.208-.159,1.832-.239q4.241-.557,8.481-1.128c.119-.013.239-.04.371-.053,4.393-.584,8.773-1.194,13.113-1.845,5.3-.783,10.578-1.619,15.82-2.575,7.286-1.3,14.52-2.787,21.673-4.579.8-.2,1.593-.4,2.389-.611q7.764-2.011,15.249-4.035,4.28-1.155,8.468-2.323c10.83-3,21.3-6.105,31.534-9.436,10.71-3.464,21.155-7.207,31.507-11.374,5.057-2.031,10.087-4.154,15.1-6.41.013-.013.04-.013.04-.027q7.744-3.444,15.515-7.353,4.141-2.071,8.308-4.287,7.425-3.962,14.957-7.857c7.459-3.889,14.957-7.751,22.4-11.666,6.3-3.3,12.595-6.636,18.806-10.02q7.505-4.081,14.838-8.322,5.276-3.026,10.458-6.171c.9-.544,1.778-1.088,2.681-1.672.889-.518,1.752-1.062,2.628-1.619q6.331-3.942,12.435-8.1c4.353-2.96,8.521-6,12.568-9.131" transform="translate(-677 -383.57)" fill="none" stroke="rgba(255,255,255,0.68)" stroke-miterlimit="10" stroke-width="1"/>
        <path id="Path_171" data-name="Path 171" d="M677,694.184c83.865,38.953,175.9,70.991,276.518,67.461,57.746-2.017,87.382-19.722,126.268-49.119,36.935-27.9,73.128-58.9,113.859-83.586,72.026-43.664,159.912-95.969,251.62-111.789q8.819-1.513,17.691-2.694.717-.119,1.433-.2c.955-.133,1.924-.252,2.88-.371.836-.12,1.686-.226,2.535-.319,3.451-.438,6.9-.823,10.365-1.181.77-.093,1.526-.173,2.283-.239q5.873-.617,11.812-1.128c4.977-.438,9.98-.836,14.971-1.194,6.158-.451,12.276-.849,18.448-1.234,6.65-.4,13.312-.77,19.974-1.155l4.393-.239c6.716-.372,13.073-.956,19.125-1.712a212.579,212.579,0,0,0,33.737-6.9c1.938-.557,3.849-1.155,5.733-1.765a217.866,217.866,0,0,0,33.777-14.4c7.446-3.862,14.838-8.122,22.482-12.768,5.667-3.411,11.467-7.047,17.505-10.87.757-.478,1.54-.969,2.3-1.447q9.117-5.773,18.249-11.44,8.361-5.216,16.682-10.392,8.919-5.534,17.771-11.082,7.565-4.738,15.063-9.516,6.43-4.081,12.781-8.2,4.937-3.205,9.808-6.437l6.092-4.061c.279-.186.557-.372.823-.557q8.839-5.952,17.519-12.077" transform="translate(-677 -383.57)" fill="none" stroke="rgba(255,255,255,0.68)" stroke-miterlimit="10" stroke-width="1"/>
        <path id="Path_172" data-name="Path 172" d="M1823.367,383.57q-4.579,3.3-9.211,6.57c-.9.624-1.8,1.261-2.694,1.9q-3.265,2.289-6.556,4.566-4.857,3.364-9.728,6.7-6.092,4.161-12.237,8.295-7.107,4.778-14.228,9.529-8.341,5.594-16.7,11.162-7.286,4.858-14.533,9.728-7.127,4.778-14.174,9.582-8.6,5.853-17.094,11.785-8.2,5.753-16.245,11.586c-1.009.73-2.018,1.46-3,2.19-3.637,2.668-7.326,5.627-11.162,8.693-4.313,3.464-8.759,7.047-13.4,10.432a120.057,120.057,0,0,1-14.533,9.237,69.85,69.85,0,0,1-16.006,6.251c-13.245,3.252-28.746,3.477-44.036,3.172-8.919-.173-17.744-.518-26.013-.544-1.553-.027-3.079-.013-4.579,0q-8.74.119-17.479.265c-6.569.12-13.152.279-19.722.518q-9.257.3-18.474.823a.765.765,0,0,0-.186.013c-5.07.292-10.1.65-15.143,1.075-4.951.4-9.874.876-14.8,1.447-1.858.212-3.729.438-5.588.677-1.991.252-4.008.518-6,.8-2.283.332-4.579.677-6.862,1.035-.172.026-.332.053-.5.093-.544.08-1.115.172-1.659.265-.849.146-1.712.292-2.561.451l-.013-.013c0,.013-.027.013-.027.013-95.119,16.616-181.014,76.167-252.775,122.539-44.779,28.933-83.692,63.784-124.118,96.128-38.568,30.883-71.442,45.814-130.847,43.6C849.242,780.7,753.393,741.763,677,701.961" transform="translate(-677 -383.57)" fill="none" stroke="rgba(255,255,255,0.68)" stroke-miterlimit="10" stroke-width="1"/>
        <path id="Path_173" data-name="Path 173" d="M1841.6,383.57c-2.19,1.42-4.38,2.827-6.583,4.247l-3.663,2.349c-2.455,1.579-4.911,3.159-7.339,4.738q-5.216,3.384-10.366,6.808-6.151,4.1-12.156,8.308c-1.978,1.38-3.915,2.787-5.866,4.194q-3.524,2.568-6.968,5.216-7.107,5.395-14,11.029-5.594,4.539-11.1,9.171-4.659,3.9-9.3,7.8-6.391,5.395-12.794,10.75c-4.353,3.636-8.733,7.246-13.192,10.79q-7.127,5.694-14.44,11.148-6.57,4.878-13.418,9.5c-1.433.969-2.88,1.924-4.327,2.867q-5.355,3.484-10.9,6.4l-.026.013a152.12,152.12,0,0,1-22.655,9.7c-25.057,8.467-52.065,10.923-79.817,11.493-8.852.173-17.771.173-26.729.093-2.27-.013-4.566-.027-6.848-.053-4.977-.04-9.98-.106-14.958-.133-5.07-.053-10.153-.08-15.223-.053h-.2c-1.34,0-2.681,0-4.008.013q-9.157.06-18.275.372c-5.1.2-10.206.465-15.289.823l-.027.013h-.12q-7.465.538-14.9,1.42c-2.362.265-4.751.584-7.114.929-1.712.239-3.424.5-5.123.8-.544.08-1.115.173-1.659.265q-3.464.6-6.888,1.274a.6.6,0,0,0-.212.04c-1.818.345-3.623.717-5.428,1.115-.332.067-.664.146-.982.212q-.637.139-1.234.279c-93,20.784-171.3,83.493-240.831,130.568-42.722,28.919-79.272,63.983-117.336,96.3-37.811,32.1-60.32,52.477-122.539,51.2-50.977-1.048-91.337-19.788-137.164-33.883C769,756.124,720.956,733.561,677,708.716" transform="translate(-677 -383.57)" fill="none" stroke="rgba(255,255,255,0.68)" stroke-miterlimit="10" stroke-width="1"/>
        <path id="Path_174" data-name="Path 174" d="M677,714.344c42.828,26.809,90.129,51.136,140.376,68.961,42.43,15.037,99.658,39.523,147.145,42.191,59.179,3.331,82.776-22.854,116.792-53.366,38.05-34.122,74.163-70.553,116.845-101.5,67.009-48.588,139.965-112.439,230.346-138.12l.013-.013c.359-.106.73-.2,1.075-.292.557-.159,1.1-.319,1.646-.464.8-.226,1.593-.438,2.389-.65,2.256-.6,4.539-1.181,6.835-1.725.186-.053.385-.106.584-.146,3-.73,6.039-1.407,9.091-2.031l.916-.2c2.309-.478,4.645-.916,6.981-1.314,1.765-.319,3.544-.624,5.335-.889,5.269-.836,10.578-1.5,15.886-2.044,2.243-.239,4.486-.438,6.729-.624,3.052-.252,6.105-.464,9.184-.637,6.211-.371,12.449-.584,18.687-.69,6.516-.119,13.006-.106,19.523-.04q10.77.159,21.5.531l9.025.319q8.68.319,16.935.372c31.056.2,58.011-2.628,85.988-10.418a305.89,305.89,0,0,0,29.158-9.781c1.195-.465,2.416-.942,3.61-1.433,5.588-2.243,10.883-4.7,15.966-7.339q7.684-3.981,14.732-8.481c4.287-2.694,8.428-5.521,12.436-8.441,5.15-3.756,10.113-7.658,14.97-11.653,3.982-3.278,7.9-6.609,11.786-9.994,3.769-3.291,7.538-6.623,11.321-9.954,2.562-2.256,5.11-4.512,7.711-6.769,3.4-2.96,6.835-5.919,10.312-8.839.969-.8,1.924-1.593,2.893-2.389q5.355-4.4,10.83-8.667,6.032-4.718,12.21-9.29c3.663-2.734,7.379-5.428,11.109-8.109,3.105-2.23,6.251-4.446,9.383-6.636q3.345-2.349,6.7-4.632c1.194-.836,2.4-1.672,3.61-2.5,1.514-1.022,3.026-2.057,4.539-3.079" transform="translate(-677 -383.57)" fill="none" stroke="rgba(255,255,255,0.68)" stroke-miterlimit="10" stroke-width="1"/>
        <path id="Path_175" data-name="Path 175" d="M1867.483,392.16c-1.978,1.566-3.929,3.132-5.893,4.712q-4.738,3.842-9.45,7.711-5.454,4.459-10.87,8.919c-4.42,3.623-8.813,7.233-13.272,10.83-3.5,2.867-7.047,5.707-10.591,8.534q-4,3.185-8.03,6.3c-3.981,3.079-7.976,6.132-12.037,9.118q-6.371,4.738-12.94,9.29c-6.185,4.287-12.5,8.454-19.005,12.436q-6.53,4.041-13.352,7.817-7.247,4.041-14.825,7.751-8.062,3.942-16.523,7.485c-6.742,2.814-13.7,5.415-20.916,7.791-.956.319-1.925.637-2.907.942-41.368,13.139-75.052,17.811-116.314,17.638-7.618-.027-15.475-.212-23.7-.544-.756-.027-1.539-.066-2.3-.093-7.193-.279-14.347-.491-21.46-.571-6.57-.08-13.113-.066-19.629.093-6.344.159-12.648.438-18.939.9q-8.182.577-16.337,1.579-8.242,1.015-16.444,2.522c-3.106.571-6.2,1.208-9.3,1.9a.411.411,0,0,0-.106.027c-1.553.345-3.092.7-4.645,1.088-1.287.319-2.588.637-3.875.982-2.283.6-4.566,1.221-6.822,1.885-.544.146-1.075.305-1.632.464-2.136.624-4.234,1.261-6.357,1.938-1.447.451-2.893.929-4.34,1.407-.557.186-1.115.358-1.659.557-1.128.372-2.256.77-3.384,1.168-.518.159-1.009.345-1.526.531-85.643,30.366-156.289,94.2-218.162,143.986-42.112,33.87-78.516,71.31-116.965,107.515-30.286,28.521-49.2,55.224-102.379,49.929C868.061,825.5,758.516,771.92,677,715.024" transform="translate(-677 -380.76)" fill="none" stroke="rgba(255,255,255,0.68)" stroke-miterlimit="10" stroke-width="1"/>
        <path id="Path_176" data-name="Path 176" d="M1867.483,406.79l-.969.849c-3.955,3.437-7.91,6.888-11.878,10.3q-4.738,4.081-9.556,8.083-3.941,3.265-7.95,6.477c-3.438,2.747-6.941,5.455-10.471,8.1q-5.216,3.922-10.6,7.631-3.444,2.349-6.968,4.619-6.171,3.962-12.847,7.6c-4.154,2.27-8.427,4.433-12.82,6.53q-6.53,3.086-13.351,5.932c-3.119,1.314-6.251,2.575-9.437,3.822-.053.013-.106.027-.146.04a587.128,587.128,0,0,1-60.705,19.3c-1.128.305-2.243.6-3.358.889-10.179,2.668-19.987,4.99-29.6,6.994a429.005,429.005,0,0,1-84.793,9.2c-8.468.106-17.2-.027-26.252-.372-.305,0-.611-.013-.9-.027-1.924-.08-3.836-.146-5.76-.212-4.95-.159-9.887-.265-14.8-.292-5.163-.04-10.272-.013-15.382.106h-.2c-1.367.026-2.747.066-4.127.12q-9.6.318-19.111,1.1c-3.172.265-6.357.584-9.516.942-2.349.265-4.7.571-7.047.889q-8.5,1.174-16.895,2.88-4.818.976-9.6,2.15a.413.413,0,0,0-.106.027c-1.606.385-3.225.81-4.831,1.248-1.978.518-3.955,1.088-5.932,1.672-1.792.531-3.6,1.088-5.362,1.659q-4.4,1.393-8.733,2.92c-1.818.624-3.623,1.274-5.4,1.951-.611.212-1.208.438-1.805.664-1.646.624-3.292,1.248-4.911,1.911a.412.412,0,0,0-.106.026c-.027.013-.067.027-.093.04-1.46.584-2.933,1.168-4.38,1.778-82.737,34.122-149.56,99.658-208.607,150.609-41.634,35.914-77.746,75-116.1,112.85-28.84,28.481-49.451,49.132-100.481,46.956-119.261-5.083-221.971-72.531-304.867-130.183-1.234-.863-2.482-1.739-3.729-2.615" transform="translate(-677 -375.973)" fill="none" stroke="rgba(255,255,255,0.68)" stroke-miterlimit="10" stroke-width="1"/>
        <path id="Path_177" data-name="Path 177" d="M1868.106,419.81c-.212.159-.411.318-.624.465-2.96,2.23-5.959,4.38-9.038,6.49q-5.734,4-11.773,7.8c-3.769,2.362-7.618,4.658-11.586,6.9a262.116,262.116,0,0,1-24.672,12.263c-.305.133-.624.265-.916.4q-7.625,3.285-15.369,6.317c-5.468,2.177-11,4.247-16.563,6.224q-8.4,3.026-16.935,5.8c-.053.013-.106.027-.146.04q-19.569,6.351-39.789,11.507c-8.149,2.1-16.4,4.061-24.712,5.893l-1.433.319c-10.816,2.362-21.461,4.552-32.038,6.517-25.734,4.738-51.083,8.082-77.468,9.118-8.812.345-17.731.438-26.809.226-1.128-.013-2.283-.04-3.411-.08-6.066-.186-12.117-.292-18.116-.305q-9.914-.02-19.735.345-9.616.378-19.125,1.248c-5.6.518-11.162,1.168-16.683,2a.5.5,0,0,0-.146.013q-8.58,1.274-17.041,3.119c-1.991.425-3.968.889-5.946,1.38q-4.539,1.095-9.012,2.4-3.205.916-6.4,1.951c-1.792.584-3.6,1.181-5.375,1.8-.624.212-1.261.425-1.885.65q-3.723,1.294-7.379,2.694c-1.978.756-3.955,1.526-5.906,2.336-.677.252-1.354.531-2,.809-1.977.81-3.942,1.632-5.893,2.5q-2.09.9-4.141,1.831c-1.022.451-2.03.9-3.039,1.38-.013-.013-.053,0-.067.04-80.666,37.36-144.928,105.431-201.227,157.722-42.5,39.457-76.831,84.117-120.8,122.539-32.689,28.588-60.612,46.651-113.527,41.329C854.643,842.08,761.7,767.585,677.292,712.852c-.093-.066-.2-.133-.292-.186" transform="translate(-677 -371.713)" fill="none" stroke="rgba(255,255,255,0.68)" stroke-miterlimit="10" stroke-width="1"/>
        <path id="Path_178" data-name="Path 178" d="M1867.483,430.64c-2.76,1.367-5.574,2.707-8.415,4.008-9.078,4.167-18.514,8.029-28.189,11.626q-9.237,3.444-18.753,6.556c-11.334,3.743-22.907,7.167-34.56,10.3q-3.743,1.015-7.5,1.977c-10.949,2.854-21.938,5.468-32.848,7.884-7.26,1.619-14.506,3.145-21.659,4.605q-12.183,2.488-24.049,4.712c-2.1.4-4.22.8-6.317,1.181l-.026.013c-12.462,2.336-24.885,4.605-37.294,6.623-19.178,3.145-38.382,5.747-57.825,7.233-9.224.717-18.541,1.181-27.911,1.34-3.689.08-7.406.093-11.108.053q-5.375-.06-10.724,0c-6.609.04-13.152.186-19.656.491q-9.615.438-19.085,1.367a.755.755,0,0,0-.186.013c-5.521.544-11,1.221-16.417,2.07q-8.72,1.354-17.293,3.291c-2.906.65-5.786,1.367-8.667,2.137-2.19.6-4.393,1.221-6.583,1.885-3.822,1.155-7.6,2.429-11.374,3.809-.252.093-.517.186-.77.279-.066.027-.132.053-.212.08q-4.837,1.811-9.622,3.782-2.906,1.194-5.773,2.468c-.81.332-1.606.69-2.415,1.062q-3.4,1.513-6.769,3.119a1.713,1.713,0,0,0-.225.106c-.027.013-.067.027-.093.04-1.712.81-3.424,1.646-5.123,2.5-2.084,1.022-4.127,2.084-6.171,3.159-78.224,40.9-139.606,111.045-193.822,164.8-41.142,40.784-76.432,84.754-120.615,123.813-32.157,28.415-60.241,51.84-113.54,45.788-57.626-6.53-108.232-32.344-152.241-59.511-46.2-28.521-93.832-55.715-140.35-83.958q-3.145-1.911-6.3-3.889" transform="translate(-677 -368.17)" fill="none" stroke="rgba(255,255,255,0.68)" stroke-miterlimit="10" stroke-width="1"/>
        <path id="Path_179" data-name="Path 179" d="M1867.483,435.53q-3.942,1.354-7.95,2.641c-15.263,4.91-31.229,9.211-47.407,13.059q-8.958,2.13-18,4.074c-3.57.783-7.153,1.54-10.71,2.27-10.538,2.163-21.023,4.181-31.375,6.065-7.339,1.354-14.6,2.628-21.753,3.875-10.259,1.778-20.253,3.464-29.875,5.11-2.76.464-5.468.916-8.149,1.38-9.887,1.686-19.841,3.491-29.861,5.282-21.792,3.9-43.85,7.737-65.961,10.272-9.689,1.128-19.4,2-29.105,2.522-5.72.292-11.44.478-17.147.518-1.672.013-3.331.027-5.017.053-6.57.106-13.086.319-19.549.677-6.371.358-12.688.849-18.966,1.513q-8.321.9-16.5,2.216c-5.8.942-11.546,2.057-17.227,3.384-2.376.557-4.738,1.141-7.087,1.778-2.774.743-5.521,1.526-8.282,2.389-4.061,1.248-8.109,2.628-12.09,4.154-.106.04-.239.08-.359.133q-2.906,1.095-5.786,2.309-2.07.856-4.1,1.752c-1.341.584-2.668,1.168-3.995,1.778-1.168.531-2.349,1.062-3.49,1.619-1.712.8-3.424,1.606-5.123,2.455-1.526.73-3.026,1.486-4.526,2.269-2.455,1.248-4.884,2.522-7.313,3.849-1.274.677-2.522,1.38-3.782,2.1-.013-.013-.053,0-.067.04-1.022.557-2.044,1.141-3.066,1.739-77.016,44.235-134.431,117.137-188.434,173.357-38.767,40.36-73.751,83.135-115.5,121.849-27.7,25.668-62.019,58.224-110.488,53.061-60.015-6.384-107.5-37.506-154.723-63.227-47-25.588-94.588-50.46-140.894-76.778-5.548-3.159-11.162-6.477-16.829-9.9" transform="translate(-677 -366.57)" fill="none" stroke="rgba(255,255,255,0.68)" stroke-miterlimit="10" stroke-width="1"/>
        <path id="Path_180" data-name="Path 180" d="M1867.483,435.95q-3.942,1.075-7.95,2.084-14.055,3.544-28.654,6.5-10.133,2.07-20.465,3.915c-4.711.849-9.449,1.659-14.174,2.455-10.286,1.7-20.6,3.292-30.844,4.778-7.6,1.128-15.183,2.2-22.668,3.251-9.808,1.38-19.47,2.708-28.893,4.048-10.578,1.5-20.864,3-30.751,4.566-2.415.385-4.831.783-7.273,1.168-21.527,3.53-43.306,7.512-65.165,10.963-1.539.252-3.052.491-4.592.717-10.272,1.593-20.571,3.039-30.87,4.26q-11.865,1.394-23.73,2.309c-4.154.319-8.321.584-12.475.783-2.455.119-4.884.252-7.326.425-6.317.411-12.568.956-18.74,1.672q-8.242.956-16.258,2.336c-4.791.823-9.516,1.752-14.2,2.827-1,.226-1.964.451-2.947.69q-7.764,1.891-15.329,4.287c-3.769,1.208-7.485,2.508-11.188,3.928-.332.133-.65.252-.969.385q-5.4,2.11-10.7,4.552c-.863.4-1.752.81-2.615,1.234-1.858.889-3.69,1.818-5.534,2.787-.013,0-.013,0-.027.013-.159.08-.332.159-.491.252-1.38.73-2.774,1.473-4.141,2.216l-.013.013q-2.966,1.612-5.879,3.3c-1.009.557-2.017,1.141-3,1.739-1.407.81-2.774,1.619-4.141,2.455a.932.932,0,0,1-.12.08c-.411.239-.8.478-1.181.73-78.875,48.256-135.346,126-191.99,186.3-39.815,42.4-75.052,88.085-119.168,128.086-24.46,22.151-57.706,52.039-99.964,49.8-55.038-2.906-110.992-39.59-156.594-61.064-48.177-22.682-95.65-45.748-142.088-70.407-8.839-4.7-18-9.795-27.38-15.037" transform="translate(-677 -366.432)" fill="none" stroke="rgba(255,255,255,0.68)" stroke-miterlimit="10" stroke-width="1"/>
        <path id="Path_181" data-name="Path 181" d="M1867.483,432.68q-4.2.677-8.415,1.3c-7.963,1.181-16.006,2.243-23.982,3.278-6.371.823-12.728,1.646-19.032,2.5-3.7.491-7.366,1-11.029,1.526-6.861,1-13.75,2-20.624,3.039q-13.358,1.971-26.7,4.035-14.691,2.25-29.423,4.552-19.152,2.986-38.3,6-8.341,1.314-16.67,2.615c-9.635,1.513-19.27,3.145-28.879,4.831-8.985,1.566-17.957,3.185-26.942,4.778-10.7,1.924-21.421,3.822-32.158,5.614q-12.582,2.09-25.2,3.942-10.591,1.533-21.248,2.8c-3.584.438-7.18.823-10.79,1.194-2.641.265-5.3.571-7.91.9q-8.1,1.015-15.94,2.455c-5.747,1.048-11.4,2.269-16.922,3.676q-7.784,1.971-15.289,4.473c-1.593.518-3.185,1.062-4.751,1.632q-3.583,1.294-7.1,2.708c-3.995,1.593-7.91,3.331-11.772,5.176a.851.851,0,0,1-.146.08c0,.013-.027.013-.027.013q-5.455,2.628-10.75,5.64-2.15,1.214-4.3,2.508c-.013,0-.013,0-.027.013-1.181.717-2.362,1.433-3.557,2.177-.611.372-1.234.757-1.845,1.155q-2.389,1.493-4.738,3.026c-.252.159-.518.332-.757.5-.677.425-1.327.863-1.977,1.287a1.273,1.273,0,0,0-.2.146c-79.578,52.915-132.8,134.165-191.712,198.64C1188.31,764.728,1152.9,813.2,1106.33,853.476c-29.928,25.907-65.1,48.575-112.545,37.36-98.158-23.186-193.45-69.863-278.8-112.081Q696.171,769.44,677,760.587" transform="translate(-677 -367.502)" fill="none" stroke="rgba(255,255,255,0.68)" stroke-miterlimit="10" stroke-width="1"/>
        <path id="Path_182" data-name="Path 182" d="M677,781.67c14.188,5.879,28.76,11.785,43.664,18.607C803.189,838.049,902.568,885.6,999.439,898c115.518,14.772,183.005-105.232,234.526-163.443,41.793-47.234,81.9-95.318,122.738-143.017,21.182-24.725,42.961-50.061,70.779-70.951.159-.133.332-.252.5-.385.345-.252.677-.5,1.022-.756.478-.358.956-.7,1.433-1.062.863-.624,1.752-1.261,2.628-1.885.186-.133.372-.252.557-.385.531-.372,1.075-.743,1.606-1.128,1.487-1.009,2.96-1.991,4.459-2.946.557-.345,1.088-.69,1.632-1.022,2.3-1.447,4.605-2.814,6.941-4.128a.341.341,0,0,0,.133-.093q7.127-3.982,14.559-7.313c1.858-.849,3.743-1.646,5.627-2.416,3.69-1.54,7.459-2.946,11.294-4.26q7.406-2.568,15.223-4.658a3.488,3.488,0,0,1,.531-.146c5.309-1.447,10.764-2.734,16.364-3.9q5.754-1.195,11.706-2.23c1.527-.266,3.053-.531,4.579-.81q10.153-1.812,20.24-3.729,7.684-1.453,15.355-2.973c2.455-.478,4.9-.956,7.352-1.447,8.76-1.725,17.519-3.49,26.278-5.242,10.883-2.177,21.779-4.34,32.7-6.41,12.184-2.323,24.407-4.552,36.7-6.583.5-.08.982-.159,1.473-.239q18.892-3.106,37.838-6.025,17.6-2.707,35.25-5.2,14-1.971,28.017-3.756,13.9-1.772,27.858-3.331c1.579-.186,3.145-.358,4.724-.531,8.149-.889,16.364-1.646,24.593-2.376,6.676-.584,13.351-1.155,20.013-1.765,6.968-.637,13.909-1.327,20.811-2.123" transform="translate(-677 -368.598)" fill="none" stroke="rgba(255,255,255,0.68)" stroke-miterlimit="10" stroke-width="1"/>
        <path id="Path_183" data-name="Path 183" d="M1867.483,424.5q-4.5.4-9.038.73c-7.061.544-14.161,1.009-21.315,1.473-9.184.6-18.435,1.181-27.752,1.884-2.389.173-4.778.345-7.153.544q-10.73.876-21.421,1.951-13.3,1.334-26.544,2.96-15.508,1.911-30.95,4.167-18.355,2.648-36.6,5.733-9.038,1.513-18.05,3.106c-7.91,1.394-16.032,2.787-24.314,4.207-2.973.518-5.959,1.022-8.958,1.553-7.074,1.221-14.254,2.469-21.487,3.769-8.122,1.473-16.338,3-24.553,4.632q-10.77,2.13-21.54,4.526c-6.8,1.5-13.577,3.092-20.293,4.8q-8.918,2.23-17.665,4.751c-6.264,1.805-12.449,3.7-18.514,5.734a.144.144,0,0,0-.08.026q-9.157,3.066-17.944,6.517-4.24,1.672-8.361,3.437-8.441,3.6-16.364,7.645c-1.407.717-2.8,1.46-4.194,2.216-1.42.756-2.827,1.526-4.221,2.336-2.615,1.46-5.176,2.986-7.684,4.552-.159.093-.305.186-.464.292-2.216,1.394-4.406,2.84-6.543,4.327a.876.876,0,0,0-.146.093c-1.659,1.141-3.292,2.309-4.871,3.5a.669.669,0,0,0-.186.133c-1.022.77-2.044,1.54-3.026,2.336a1.235,1.235,0,0,0-.252.186c-.266.2-.531.411-.783.624-1.128.889-2.216,1.792-3.292,2.707-78.158,66.24-129.188,154.524-193.53,228.143-51.733,59.205-113.62,157.152-224.506,159.434-50.579,1.035-104.821-18.966-150.569-33.71-49.4-15.913-95.889-34.772-142.871-54.269A418.13,418.13,0,0,1,677,799.96" transform="translate(-677 -370.178)" fill="none" stroke="rgba(255,255,255,0.68)" stroke-miterlimit="10" stroke-width="1"/>
        <path id="Path_184" data-name="Path 184" d="M677,816.279c15.276,9.994,30.724,19.656,46.9,27.659,42.377,20.969,93.367,35.847,140.509,49.783,43.97,12.993,98.888,31.268,147.543,29.344,109.572-4.327,180.377-97.07,233.332-157.324,68.231-77.693,117.349-168.048,194.1-241.1,2.588-2.469,5.309-4.871,8.122-7.193.066-.053.119-.106.186-.159.451-.358.889-.717,1.327-1.075.372-.305.743-.6,1.115-.889.756-.6,1.513-1.194,2.283-1.778.464-.372.969-.73,1.46-1.088,1.194-.929,2.442-1.818,3.689-2.708.743-.544,1.5-1.062,2.283-1.593,1.407-.982,2.853-1.951,4.327-2.893,1.831-1.208,3.716-2.4,5.627-3.557.73-.451,1.473-.889,2.216-1.314,2.548-1.539,5.189-3.026,7.857-4.473,2.256-1.234,4.566-2.442,6.9-3.623,2.15-1.088,4.327-2.163,6.53-3.2,10.565-5.03,21.713-9.569,33.246-13.71,5.747-2.084,11.613-4.061,17.545-5.932q8.581-2.747,17.333-5.2,9.914-2.847,19.961-5.375,10.77-2.747,21.554-5.216c8.321-1.911,16.6-3.7,24.792-5.415,10.3-2.163,20.439-4.181,30.326-6.131,2.681-.518,5.335-1.049,7.976-1.566,1.075-.2,2.163-.411,3.239-.624,11.825-2.309,23.73-4.247,35.674-5.893q16.205-2.249,32.529-3.875,13.019-1.334,26.079-2.389,12.482-1.035,24.951-1.924,14.473-1.055,28.893-2.031c9.237-.664,18.461-1.327,27.672-2.057,7.472-.584,14.957-1.195,22.4-1.9.212-.013.411-.04.624-.053" transform="translate(-677 -371.713)" fill="none" stroke="rgba(255,255,255,0.68)" stroke-miterlimit="10" stroke-width="1"/>
        <path id="Path_185" data-name="Path 185" d="M677,824.48c24.5,14.015,47.765,29.53,69.651,43.027,38.926,24.009,85.285,36.325,132.386,48.76,43.4,11.467,93.341,26.265,139.739,22.124,104.171-9.3,179.541-98.822,232.775-157.669,70.765-78.264,120.508-165.739,189.455-244.573A181.676,181.676,0,0,1,1461.75,516l.292-.252c.438-.372.9-.73,1.327-1.1l.61-.491c.7-.571,1.42-1.141,2.137-1.7.518-.411,1.022-.81,1.553-1.208,1.234-.969,2.495-1.911,3.769-2.84.491-.372.982-.743,1.5-1.1q3.225-2.349,6.569-4.605c.226-.146.438-.305.664-.451,2.336-1.566,4.725-3.105,7.14-4.605,2.562-1.593,5.149-3.145,7.791-4.658a.988.988,0,0,1,.159-.093q7.784-4.5,15.992-8.587a.144.144,0,0,1,.08-.026q7.465-3.743,15.223-7.167c10.219-4.526,20.8-8.693,31.627-12.555q8.6-3.066,17.412-5.879c6.623-2.15,13.312-4.181,20.054-6.145q10.85-3.145,21.779-6.025,12.641-3.345,25.309-6.41c4.459-1.088,8.932-2.163,13.378-3.212q8.222-1.951,16.391-3.6,8.421-1.712,16.8-3.159c10.79-1.871,21.553-3.424,32.33-4.765q15.21-1.871,30.379-3.212,11.308-1.015,22.642-1.832,12.064-.876,24.168-1.593c9.715-.6,19.443-1.155,29.171-1.725,8.866-.5,17.731-1.022,26.637-1.606q6.41-.4,12.847-.863" transform="translate(-677 -373.437)" fill="none" stroke="rgba(255,255,255,0.68)" stroke-miterlimit="10" stroke-width="1"/>
        <path id="Path_186" data-name="Path 186" d="M1867.483,407.4l-.969.04q-12.661.5-25.243,1.075c-9.6.438-19.164.916-28.72,1.5q-11.964.677-23.889,1.619c-6.663.5-13.325,1.062-19.948,1.7q-14.692,1.413-29.3,3.291-13.856,1.832-27.7,4.181c-7.631,1.3-15.223,2.747-22.828,4.353q-13.06,2.767-26.066,6.171c-.943.239-1.858.491-2.8.73q-12.741,3.4-25.164,7.061-11.089,3.285-21.872,6.808-10.213,3.344-20.107,6.954-17.9,6.53-34.693,14.015-7.167,3.205-14.082,6.623-7.246,3.544-14.254,7.366-9.157,4.977-17.851,10.392c-1.088.69-2.177,1.367-3.252,2.057-1.513.982-3.012,1.964-4.512,2.973-2.561,1.686-5.1,3.437-7.578,5.216-.81.557-1.606,1.128-2.389,1.7-1.38,1.009-2.734,2.017-4.1,3.039-1.34,1-2.641,2.017-3.928,3.039q-.677.5-1.274,1c-1.287,1.009-2.562,2.031-3.8,3.066l-.027.013c-.65.518-1.261,1.035-1.885,1.566a3.4,3.4,0,0,0-.319.266c-.239.2-.491.4-.743.61a239.525,239.525,0,0,0-36.657,38.634C1380.99,634.8,1330.292,718.943,1258.558,794.38c-56.127,59.033-128.365,147.782-232.045,161.053-50.34,6.45-104.834-9.834-152-21.62-45.562-11.4-84.342-29.437-122.632-51.136-25.057-14.2-49.185-26.756-74.88-38.316" transform="translate(-677 -375.773)" fill="none" stroke="rgba(255,255,255,0.68)" stroke-miterlimit="10" stroke-width="1"/>
        <path id="Path_187" data-name="Path 187" d="M677,866.4a528.915,528.915,0,0,1,87.315,35.794c71.509,36.617,166.5,78.437,256.929,72.079,112-7.87,187.358-105.79,244.839-167.039C1338.773,729.8,1392.564,646.7,1451.8,563.521a277.938,277.938,0,0,1,42.735-47.261q.3-.279.637-.557a3.607,3.607,0,0,1,.332-.305l.955-.836c.465-.4.916-.8,1.394-1.181,1.208-1.062,2.455-2.11,3.716-3.145,1.672-1.407,3.384-2.8,5.1-4.167.863-.677,1.712-1.354,2.575-2.017,1.208-.956,2.442-1.9,3.676-2.84q3.583-2.707,7.26-5.335c1.446-1.048,2.92-2.07,4.393-3.092,1.221-.849,2.455-1.7,3.716-2.522,6.211-4.207,12.648-8.242,19.231-12.1q6.829-4.041,13.922-7.817,6.948-3.8,14.161-7.3,8.461-4.22,17.28-8.136,18.355-8.2,38.1-15.355,11.108-4.061,22.655-7.817c.969-.332,1.925-.637,2.893-.956q11.009-3.563,22.151-6.57,13.915-3.782,28.017-6.8,11.865-2.548,23.823-4.605c7.95-1.38,15.953-2.6,23.956-3.676q14.175-1.911,28.468-3.3c6.158-.584,12.356-1.115,18.554-1.579q11.606-.9,23.265-1.5,13.656-.717,27.38-1.128,7.665-.239,15.343-.4" transform="translate(-677 -377.795)" fill="none" stroke="rgba(255,255,255,0.68)" stroke-miterlimit="10" stroke-width="1"/>
        <path id="Path_188" data-name="Path 188" d="M1867.483,395.66c-1.964.013-3.929.04-5.893.066q-12.9.159-25.721.73c-7.446.319-14.838.756-22.218,1.3-6.184.451-12.356.982-18.474,1.593q-14.055,1.393-27.924,3.4-10.989,1.573-21.9,3.557-9.516,1.732-18.952,3.8-14.015,3.046-27.778,6.875-11.945,3.3-23.717,7.246-11.706,3.9-23.2,8.454-10.631,4.221-20.731,8.693-9.237,4.081-18,8.4-8.879,4.36-17.333,8.945-7.286,3.942-14.254,8.069-6.928,4.1-13.59,8.388-9.954,6.37-19.284,13.179c-.756.544-1.526,1.115-2.283,1.672q-3.723,2.747-7.366,5.574-3.683,2.827-7.22,5.76c-1.354,1.088-2.681,2.177-3.969,3.278-.716.571-1.393,1.155-2.057,1.739-1.686,1.42-3.371,2.867-4.977,4.313a4.219,4.219,0,0,0-.61.544c-1.062.9-2.07,1.8-3.066,2.721-.77.677-1.513,1.367-2.243,2.057-.066.04-.106.066-.119.106a7.9,7.9,0,0,0-.756.717,2.515,2.515,0,0,0-.385.345,385.485,385.485,0,0,0-59.325,70.142c-54.109,81.529-111.364,160.231-180.444,235.3-56.18,61.05-131.471,158.665-240.485,168.048-89.638,7.724-183.483-34.9-256.77-67.275-33.3-14.718-63.984-26.172-99.446-32.649" transform="translate(-677 -379.614)" fill="none" stroke="rgba(255,255,255,0.68)" stroke-miterlimit="10" stroke-width="1"/>
        <path id="Path_189" data-name="Path 189" d="M677,919.627c37.851,1.447,70.7,11.069,106.493,24.3,78.423,28.946,165.513,68.283,256.863,62.139,109.559-7.366,184.558-104.781,240.379-166.044,67.886-74.495,128.073-151.856,180.683-232.987,20.412-31.494,43.85-61.316,71.681-88.417a1.87,1.87,0,0,1,.279-.292c.252-.252.5-.491.783-.743a.905.905,0,0,1,.159-.159c.757-.757,1.553-1.526,2.389-2.283.982-.969,2-1.938,3.052-2.893.173-.173.345-.345.544-.518,1.606-1.513,3.252-3.013,4.871-4.5.836-.743,1.659-1.486,2.482-2.216,1.261-1.115,2.522-2.23,3.8-3.331q4.26-3.723,8.667-7.353,5.435-4.5,11.108-8.866c.359-.292.744-.584,1.115-.876q8.281-6.351,17-12.409,6.649-4.619,13.6-9.078c4.724-3.013,9.556-5.986,14.479-8.879q8.5-5,17.426-9.728,8.9-4.718,18.222-9.158c.186-.093.371-.173.557-.252q10.452-4.977,21.275-9.33a430.379,430.379,0,0,1,44.593-15.289c.013,0,.04-.013.053-.013q14.393-4.1,29.145-7.3c2.362-.5,4.725-1.009,7.114-1.486q10.531-2.13,21.248-3.822,13.816-2.19,27.844-3.663c6.357-.677,12.715-1.234,19.112-1.7q10.591-.756,21.235-1.128,11.089-.4,22.231-.385" transform="translate(-677 -381.149)" fill="none" stroke="rgba(255,255,255,0.68)" stroke-miterlimit="10" stroke-width="1"/>
        <path id="Path_190" data-name="Path 190" d="M1867.483,387.631c-5.176-.027-10.366.04-15.528.186q-10.332.279-20.6,1.022-10.014.717-19.895,1.871-14.293,1.632-28.309,4.167-3.723.677-7.366,1.407c-4.937.969-9.808,2.017-14.666,3.185a401.181,401.181,0,0,0-41.567,12.077c-.013,0-.04.013-.053.013q-10.591,3.723-20.877,8.043-10.133,4.221-19.947,9.051-9.337,4.579-18.315,9.688c-.106.066-.239.133-.345.186q-8.819,5.037-17.28,10.379-7.625,4.818-15,9.874c-4.7,3.212-9.33,6.5-13.842,9.861q-5.1,3.743-10.02,7.6-3.225,2.508-6.37,5.07-6.192,5-12.183,10.166-5.137,4.439-10.14,8.985c-1.341,1.221-2.681,2.455-4.008,3.69-1.287,1.194-2.561,2.389-3.835,3.6-1.765,1.659-3.491,3.331-5.2,5.017a1.414,1.414,0,0,0-.319.305c-1.221,1.168-2.429,2.349-3.583,3.544-.783.743-1.526,1.487-2.269,2.243l-.186.186c-.305.305-.611.6-.9.9-.106.106-.212.226-.319.332-32.516,32.941-59.856,68.934-83.427,105.047-52.981,81.21-115.359,158.625-183.536,233.12-61.156,66.81-131.245,155.546-249.391,162.606-92.027,5.494-179.01-36.922-262.61-59.471a281.442,281.442,0,0,0-98.6-8.069" transform="translate(-677 -382.243)" fill="none" stroke="rgba(255,255,255,0.68)" stroke-miterlimit="10" stroke-width="1"/>
        <path id="Path_191" data-name="Path 191" d="M1867.483,385.75c-3.982,0-7.95.053-11.919.186-6.874.2-13.736.6-20.544,1.168-7.021.584-13.962,1.367-20.864,2.323q-15.289,2.15-30.18,5.508-4.1.936-8.188,1.964-8.74,2.19-17.293,4.8c-3.278,1.009-6.57,2.07-9.795,3.159q-11.367,3.862-22.3,8.481-10.033,4.24-19.708,9.131c-6.065,3.066-12.024,6.317-17.811,9.768q-8.4,4.977-16.378,10.471c-2.588,1.778-5.136,3.61-7.658,5.468-2.282,1.686-4.539,3.371-6.782,5.083-2.535,1.911-5.056,3.849-7.538,5.786,0,.013-.026.013-.04.027-2.044,1.606-4.114,3.225-6.145,4.857q-7.186,5.733-14.135,11.586-6.45,5.435-12.727,10.963c-3.862,3.424-7.684,6.862-11.427,10.339-.385.345-.783.69-1.141,1.049q-4.28,3.962-8.467,7.976-3.225,3.086-6.4,6.2c-.757.73-1.5,1.46-2.216,2.19-.942.929-1.871,1.845-2.787,2.774-.8.783-1.579,1.579-2.349,2.376-.239.212-.451.425-.664.65-.4.4-.81.81-1.195,1.221a2.7,2.7,0,0,0-.279.279c-38.024,38.727-70.474,80.334-99.645,123.746-54.255,80.693-117.894,157.656-186.562,231.819-63.32,68.4-130.09,146.786-248.1,158.439-89.386,8.826-178.785-34.294-263.618-49.809-41.474-7.578-70.049-2.933-105.63,5.495" transform="translate(-677 -382.857)" fill="none" stroke="rgba(255,255,255,0.68)" stroke-miterlimit="10" stroke-width="1"/>
    </g>
</g>
</svg>  