<svg xmlns="http://www.w3.org/2000/svg" width="311.488" height="287.94" viewBox="0 0 311.488 287.94">
  <g id="Group_409" data-name="Group 409" transform="translate(0)">
    <g id="Group_390" data-name="Group 390" transform="translate(0 0)">
      <path id="Path_100" data-name="Path 100" d="M1056.8,527.07c-1.41,5.48,2.45,11.2,11.47,17.01,13.27,8.54,34.95,16.89,55.92,24.97,30.95,11.92,60.18,23.17,61.31,34.4,1.11,11.03-8.73,21.53-19.15,32.66-10.94,11.67-22.25,23.74-20.08,36.51,1.68,9.85,11.15,19.15,28.96,28.44,38.86,20.26,110.91,36.02,191.77,48.12v.99c-81.03-12.11-153.26-27.91-192.23-48.23-18.11-9.44-27.75-18.97-29.49-29.15-2.25-13.26,9.23-25.52,20.34-37.37,10.26-10.95,19.95-21.29,18.88-31.87-1.07-10.61-31.37-22.28-60.67-33.57-21.01-8.09-42.74-16.46-56.1-25.06-9.43-6.07-13.43-12.16-11.9-18.1,4.79-18.59,63.52-35.48,174.54-50.2,52.72-6.99,105.3-11.81,136.63-14.39v1.02C1286.521,469.92,1065.99,491.41,1056.8,527.07Z" transform="translate(-1055.512 -462.23)" fill="#ededed"/>
    </g>
    <g id="Group_391" data-name="Group 391" transform="translate(9.718 1.85)">
      <path id="Path_101" data-name="Path 101" d="M1066.51,527.65c-1.39,5.43,2.47,11.1,11.48,16.85,13.28,8.48,34.96,16.77,55.93,24.79,30.94,11.83,60.17,23,61.3,34.14,1.11,10.95-8.73,21.38-19.15,32.42-10.93,11.58-22.23,23.55-20.08,36.21,1.66,9.78,11.13,19.02,28.96,28.25,37.28,19.3,105.3,34.47,182.05,46.26v1.11c-87.48-13.43-148.79-29.04-182.51-46.49-18.12-9.37-27.77-18.85-29.49-28.96-2.23-13.16,9.24-25.31,20.34-37.07,10.26-10.87,19.95-21.13,18.88-31.63-1.07-10.53-31.36-22.11-60.66-33.31-21.01-8.03-42.75-16.34-56.11-24.88-9.41-6.01-13.42-12.05-11.91-17.94,4.73-18.46,63.44-35.23,174.49-49.85,47.61-6.27,95.12-10.77,126.97-13.47v1.01C1279.82,472.54,1075.24,493.58,1066.51,527.65Z" transform="translate(-1065.23 -464.08)" fill="#ededed"/>
    </g>
    <g id="Group_392" data-name="Group 392" transform="translate(19.439 3.71)">
      <path id="Path_102" data-name="Path 102" d="M1076.22,528.24c-1.36,5.37,2.5,10.99,11.49,16.69,13.27,8.41,34.95,16.63,55.91,24.58,30.95,11.75,60.19,22.84,61.32,33.9,1.11,10.87-8.73,21.22-19.16,32.18-10.91,11.48-22.2,23.35-20.08,35.9,1.65,9.72,11.13,18.89,28.97,28.06,32.34,16.6,90.22,31.54,172.33,44.5v1.01c-82.31-12.98-140.34-27.96-172.79-44.63-18.14-9.31-27.79-18.72-29.49-28.77-2.21-13.05,9.25-25.1,20.34-36.76,10.26-10.79,19.95-20.98,18.88-31.39-1.07-10.45-31.37-21.94-60.68-33.06-21.01-7.97-42.73-16.21-56.09-24.68-9.39-5.96-13.4-11.94-11.92-17.78,4.67-18.33,63.37-34.99,174.45-49.51,43-5.62,85.92-9.81,117.3-12.54v1.02C1275.23,475.01,1084.53,495.61,1076.22,528.24Z" transform="translate(-1074.951 -465.94)" fill="#ededed"/>
    </g>
    <g id="Group_393" data-name="Group 393" transform="translate(29.173 5.6)">
      <path id="Path_103" data-name="Path 103" d="M1085.95,528.82c-1.35,5.32,2.52,10.88,11.49,16.53,13.27,8.35,34.95,16.51,55.92,24.41,30.94,11.64,60.17,22.65,61.31,33.63,1.11,10.79-8.74,21.06-19.16,31.93-10.91,11.39-22.19,23.16-20.09,35.6,1.64,9.65,11.11,18.77,28.98,27.87,31.03,15.82,85.63,30.12,162.6,42.61v1.01c-77.16-12.51-131.91-26.85-163.06-42.72-18.16-9.26-27.81-18.62-29.5-28.6-2.19-12.94,9.27-24.9,20.35-36.46,10.26-10.7,19.95-20.81,18.88-31.14-1.07-10.37-31.37-21.77-60.66-32.8-21.02-7.91-42.75-16.09-56.11-24.5-9.37-5.9-13.39-11.82-11.92-17.61,4.6-18.2,63.28-34.74,174.39-49.16,38.73-5.02,77.39-8.89,107.63-11.59v1.02C1272.13,477.39,1093.87,497.53,1085.95,528.82Z" transform="translate(-1084.684 -467.83)" fill="#ededed"/>
    </g>
    <g id="Group_394" data-name="Group 394" transform="translate(38.893 7.48)">
      <path id="Path_104" data-name="Path 104" d="M1095.66,529.41c-1.33,5.26,2.54,10.77,11.49,16.36,13.28,8.28,34.95,16.38,55.92,24.21,30.95,11.56,60.18,22.49,61.32,33.39,1.11,10.71-8.74,20.9-19.16,31.69-10.9,11.29-22.17,22.96-20.09,35.29,1.62,9.59,11.09,18.64,28.98,27.68,23.76,12.01,68.61,26.6,152.88,40.76v1c-84.52-14.18-129.51-28.81-153.34-40.86-18.18-9.2-27.83-18.49-29.51-28.41-2.16-12.83,9.29-24.69,20.36-36.15,10.26-10.62,19.95-20.65,18.88-30.9-1.07-10.28-31.37-21.6-60.67-32.55-21.01-7.85-42.74-15.96-56.1-24.31-9.36-5.84-13.37-11.71-11.93-17.45,4.54-18.07,63.2-34.49,174.34-48.8,34.71-4.47,69.38-8.02,97.97-10.65v1.03C1270.16,479.68,1103.21,499.37,1095.66,529.41Z" transform="translate(-1094.404 -469.71)" fill="#ededed"/>
    </g>
    <g id="Group_395" data-name="Group 395" transform="translate(48.61 9.39)">
      <path id="Path_105" data-name="Path 105" d="M1105.37,529.99c-1.3,5.21,2.57,10.66,11.5,16.2,13.28,8.22,34.96,16.26,55.93,24.03,30.95,11.47,60.17,22.31,61.31,33.13,1.11,10.63-8.73,20.75-19.16,31.46-10.89,11.19-22.15,22.75-20.09,34.98,1.6,9.52,11.08,18.51,28.97,27.49,22.75,11.42,65.01,25.23,143.17,38.77v1c-78.4-13.57-120.79-27.42-143.61-38.87-18.2-9.14-27.86-18.37-29.52-28.23-2.14-12.72,9.3-24.47,20.36-35.84,10.26-10.54,19.95-20.49,18.88-30.66-1.07-10.2-31.36-21.43-60.65-32.29-21.02-7.79-42.75-15.84-56.11-24.12-9.35-5.8-13.37-11.61-11.95-17.3,4.49-17.94,63.13-34.24,174.29-48.45,30.89-3.95,61.74-7.17,88.31-9.67v1.04C1269.09,481.91,1112.58,501.15,1105.37,529.99Z" transform="translate(-1104.122 -471.62)" fill="#ededed"/>
    </g>
    <g id="Group_396" data-name="Group 396" transform="translate(58.327 11.31)">
      <path id="Path_106" data-name="Path 106" d="M1115.08,530.57c-1.28,5.16,2.59,10.56,11.51,16.04,13.28,8.16,34.95,16.13,55.91,23.84,30.95,11.38,60.19,22.14,61.33,32.88,1.11,10.55-8.73,20.59-19.16,31.22-10.88,11.09-22.13,22.56-20.1,34.67,1.59,9.46,11.07,18.39,28.98,27.31,21.71,10.81,61.36,23.84,133.45,36.74v1.03c-56.66-10.09-104.53-22.26-133.89-36.87-18.22-9.08-27.88-18.25-29.52-28.05-2.12-12.61,9.31-24.26,20.37-35.53,10.25-10.46,19.94-20.33,18.87-30.42-1.07-10.12-31.37-21.26-60.68-32.04-21-7.73-42.72-15.72-56.08-23.92-9.33-5.74-13.36-11.51-11.96-17.14,4.43-17.82,63.05-34,174.24-48.11,27.21-3.45,54.39-6.34,78.65-8.68v1.01c-24.22,2.33-51.36,5.23-78.52,8.67C1179.3,497.06,1119.34,513.44,1115.08,530.57Z" transform="translate(-1113.839 -473.54)" fill="#ededed"/>
    </g>
    <g id="Group_397" data-name="Group 397" transform="translate(68.064 13.25)">
      <path id="Path_107" data-name="Path 107" d="M1124.81,531.15c-1.26,5.11,2.61,10.46,11.51,15.88,13.28,8.1,34.96,16.01,55.93,23.67,30.94,11.29,60.17,21.95,61.31,32.61,1.11,10.47-8.74,20.43-19.17,30.98-10.87,10.99-22.11,22.36-20.1,34.36,1.58,9.39,11.06,18.27,28.99,27.12,27.55,13.61,71.55,25.08,123.72,34.69v1.02c-52.34-9.64-96.51-21.15-124.16-34.81-18.24-9.01-27.9-18.12-29.53-27.85-2.1-12.51,9.32-24.06,20.37-35.24,10.26-10.37,19.95-20.17,18.88-30.17-1.07-10.03-31.36-21.08-60.65-31.77-21.02-7.67-42.75-15.6-56.11-23.75-9.32-5.68-13.34-11.39-11.96-16.98,4.36-17.68,62.96-33.75,174.18-47.75,23.65-2.97,47.27-5.54,68.98-7.68v1c-21.67,2.15-45.26,4.7-68.86,7.67C1188.94,497.9,1129,514.15,1124.81,531.15Z" transform="translate(-1123.575 -475.48)" fill="#ededed"/>
    </g>
    <g id="Group_398" data-name="Group 398" transform="translate(77.781 15.21)">
      <path id="Path_108" data-name="Path 108" d="M1134.52,531.73c-1.24,5.06,2.64,10.35,11.52,15.72,13.27,8.04,34.95,15.88,55.92,23.48,30.95,11.2,60.18,21.78,61.32,32.36,1.11,10.39-8.74,20.27-19.17,30.74-10.86,10.89-22.09,22.16-20.1,34.06,1.56,9.32,11.04,18.13,28.99,26.93,25.82,12.65,66.14,23.43,114,32.58v1.02c-48.03-9.18-88.52-19.99-114.44-32.7-18.26-8.95-27.92-18-29.54-27.67-2.07-12.4,9.34-23.85,20.38-34.93,10.26-10.29,19.95-20.01,18.88-29.93-1.07-9.95-31.36-20.92-60.66-31.52-21.01-7.61-42.74-15.48-56.1-23.56-9.3-5.63-13.33-11.29-11.97-16.82,4.3-17.55,62.89-33.5,174.14-47.39,20.18-2.52,40.34-4.74,59.31-6.66v1c-18.93,1.92-39.06,4.13-59.19,6.65C1198.58,498.73,1138.66,514.86,1134.52,531.73Z" transform="translate(-1133.292 -477.44)" fill="#ededed"/>
    </g>
    <g id="Group_399" data-name="Group 399" transform="translate(87.501 17.18)">
      <path id="Path_109" data-name="Path 109" d="M1144.23,532.31c-1.22,5,2.66,10.24,11.53,15.56,13.28,7.97,34.96,15.76,55.94,23.3,30.94,11.11,60.16,21.61,61.3,32.1,1.12,10.31-8.74,20.12-19.17,30.5-10.85,10.8-22.07,21.97-20.11,33.75,1.55,9.26,11.03,18.01,29,26.74,24.06,11.7,60.74,21.78,104.28,30.43v1.01c-43.72-8.68-80.56-18.8-104.72-30.54-18.28-8.89-27.94-17.87-29.54-27.48-2.05-12.29,9.35-23.64,20.39-34.62,10.25-10.21,19.94-19.85,18.87-29.69-1.06-9.86-31.35-20.74-60.64-31.26-21.02-7.55-42.76-15.36-56.12-23.38-9.28-5.57-13.31-11.18-11.98-16.66,4.24-17.42,62.82-33.25,174.09-47.04,16.79-2.08,33.56-3.96,49.65-5.62v1.01c-16.05,1.66-32.79,3.53-49.53,5.6C1208.21,499.56,1148.31,515.57,1144.23,532.31Z" transform="translate(-1143.012 -479.41)" fill="#ededed"/>
    </g>
    <g id="Group_400" data-name="Group 400" transform="translate(97.217 19.17)">
      <path id="Path_110" data-name="Path 110" d="M1153.95,532.89c-1.2,4.96,2.68,10.14,11.53,15.41,13.27,7.9,34.95,15.62,55.91,23.09,30.95,11.03,60.19,21.45,61.33,31.86,1.12,10.23-8.74,19.96-19.17,30.26-10.84,10.7-22.05,21.77-20.11,33.45,1.53,9.19,11.02,17.88,29,26.55,22.25,10.73,55.32,20.08,94.56,28.21v1.01c-39.42-8.15-72.65-17.54-95-28.32-18.29-8.82-27.96-17.75-29.54-27.29-2.03-12.19,9.37-23.44,20.39-34.32,10.25-10.13,19.94-19.69,18.87-29.45-1.06-9.78-31.36-20.58-60.67-31.02-21.01-7.48-42.73-15.22-56.09-23.17-9.27-5.52-13.3-11.07-11.99-16.5,4.19-17.3,62.75-33.01,174.04-46.7,13.45-1.65,26.9-3.17,39.99-4.56v1.06C1272.88,492.49,1159.64,509.37,1153.95,532.89Z" transform="translate(-1152.729 -481.4)" fill="#ededed"/>
    </g>
    <g id="Group_401" data-name="Group 401" transform="translate(106.944 21.17)">
      <path id="Path_111" data-name="Path 111" d="M1163.66,533.47c-1.18,4.9,2.7,10.03,11.53,15.25,13.28,7.84,34.96,15.5,55.93,22.91,30.95,10.93,60.18,21.26,61.32,31.6,1.12,10.15-8.74,19.8-19.17,30.02-10.83,10.6-22.03,21.57-20.11,33.14,1.51,9.13,11,17.75,29,26.36,20.38,9.75,49.88,18.35,84.84,25.92v1.02c-35.13-7.59-64.79-16.24-85.28-26.04-18.31-8.76-27.98-17.62-29.55-27.1-2-12.08,9.39-23.23,20.4-34.02,10.25-10.04,19.94-19.52,18.87-29.2-1.06-9.7-31.36-20.41-60.66-30.76-21.01-7.42-42.73-15.1-56.09-22.99-9.26-5.46-13.29-10.96-12-16.34,4.12-17.17,62.66-32.76,173.99-46.34,10.16-1.24,20.32-2.41,30.32-3.5v1c-9.97,1.09-20.09,2.25-30.21,3.49C1227.49,501.23,1167.62,516.99,1163.66,533.47Z" transform="translate(-1162.455 -483.4)" fill="#ededed"/>
    </g>
    <g id="Group_402" data-name="Group 402" transform="translate(116.671 23.2)">
      <path id="Path_112" data-name="Path 112" d="M1173.38,534.05c-1.15,4.85,2.73,9.93,11.54,15.09,13.28,7.78,34.96,15.37,55.92,22.72,30.95,10.85,60.19,21.1,61.33,31.34,1.11,10.08-8.74,19.65-19.17,29.78-10.83,10.52-22.02,21.38-20.12,32.84,1.5,9.07,10.99,17.63,29,26.18,18.47,8.76,44.44,16.58,75.12,23.55v1.02c-30.85-7-56.97-14.86-75.54-23.67-18.34-8.7-28.01-17.5-29.57-26.91-1.98-11.98,9.4-23.03,20.41-33.72,10.25-9.96,19.94-19.37,18.87-28.96-1.07-9.62-31.36-20.24-60.66-30.5-21.01-7.37-42.74-14.98-56.09-22.81-9.24-5.41-13.28-10.86-12.01-16.18,4.07-17.04,62.59-32.51,173.94-45.99,6.9-.84,13.8-1.64,20.65-2.4v1.01c-6.81.76-13.67,1.56-20.53,2.39C1237.14,502.06,1177.29,517.7,1173.38,534.05Z" transform="translate(-1172.182 -485.43)" fill="#ededed"/>
    </g>
    <g id="Group_403" data-name="Group 403" transform="translate(126.387 25.25)">
      <path id="Path_113" data-name="Path 113" d="M1183.1,534.62c-1.14,4.8,2.74,9.83,11.54,14.94,13.28,7.72,34.97,15.25,55.94,22.54,30.94,10.76,60.17,20.92,61.31,31.08,1.11,10-8.74,19.49-19.18,29.55-10.81,10.41-21.99,21.18-20.12,32.53,1.49,9,10.98,17.5,29.01,25.99,16.48,7.75,38.96,14.76,65.4,21.09v1.02c-26.61-6.36-49.24-13.41-65.82-21.21-18.36-8.63-28.03-17.38-29.57-26.72-1.96-11.87,9.41-22.83,20.41-33.42,10.25-9.88,19.94-19.21,18.87-28.71-1.06-9.54-31.35-20.07-60.64-30.25-21.02-7.31-42.75-14.86-56.11-22.63-9.22-5.36-13.27-10.75-12.02-16.03,4.01-16.9,62.52-32.25,173.9-45.62,3.66-.44,7.33-.87,10.98-1.29v1q-5.43.63-10.87,1.28C1246.78,502.89,1186.94,518.4,1183.1,534.62Z" transform="translate(-1181.899 -487.48)" fill="#ededed"/>
    </g>
    <g id="Group_404" data-name="Group 404" transform="translate(136.113 27.31)">
      <path id="Path_114" data-name="Path 114" d="M1192.81,535.2c-1.12,4.75,2.77,9.73,11.55,14.79,13.27,7.64,34.95,15.11,55.91,22.34,30.96,10.67,60.2,20.75,61.34,30.83,1.12,9.92-8.74,19.34-19.17,29.31-10.81,10.32-21.97,20.99-20.12,32.23,1.46,8.93,10.95,17.36,29,25.79,14.43,6.73,33.45,12.9,55.68,18.53v1.02c-22.4-5.66-41.57-11.87-56.1-18.65-18.37-8.57-28.05-17.25-29.57-26.53-1.94-11.76,9.43-22.61,20.42-33.11,10.25-9.8,19.93-19.05,18.86-28.47-1.06-9.46-31.36-19.91-60.67-30.01-21-7.24-42.72-14.73-56.08-22.42-9.21-5.3-13.25-10.64-12.02-15.88,3.95-16.77,62.44-32.01,173.84-45.27.44-.05.88-.1,1.32-.16v1.01c-.4.04-.8.09-1.2.14C1256.42,503.72,1196.6,519.11,1192.81,535.2Z" transform="translate(-1191.625 -489.54)" fill="#ededed"/>
    </g>
    <g id="Group_405" data-name="Group 405" transform="translate(145.83 29.4)">
      <path id="Path_115" data-name="Path 115" d="M1202.53,535.78c-1.1,4.7,2.78,9.62,11.55,14.63,13.27,7.58,34.95,14.99,55.92,22.16,30.95,10.58,60.19,20.57,61.33,30.58,1.12,9.84-8.74,19.17-19.17,29.06-10.79,10.22-21.95,20.79-20.13,31.93,1.45,8.86,10.94,17.24,29.01,25.6,12.28,5.68,27.89,10.95,45.96,15.84v1.12q-28.26-7.68-46.38-16.06c-18.39-8.51-28.07-17.13-29.58-26.34-1.91-11.66,9.45-22.41,20.43-32.82,10.25-9.7,19.93-18.87,18.86-28.21-1.06-9.38-31.36-19.74-60.66-29.76-21.01-7.18-42.73-14.6-56.09-22.24-9.19-5.25-13.24-10.54-12.03-15.72,3.79-16.23,59.45-30.99,165.45-43.92v1.07C1286.19,502.56,1206.93,516.96,1202.53,535.78Z" transform="translate(-1201.341 -491.63)" fill="#ededed"/>
    </g>
    <g id="Group_406" data-name="Group 406" transform="translate(155.556 31.42)">
      <path id="Path_116" data-name="Path 116" d="M1212.25,536.35c-1.08,4.65,2.81,9.52,11.56,14.48,13.27,7.51,34.95,14.86,55.91,21.97,30.95,10.49,60.19,20.41,61.34,30.33,1.11,9.76-8.74,19.02-19.18,28.82-10.78,10.12-21.93,20.59-20.13,31.62,1.44,8.8,10.93,17.11,29.02,25.41A271.461,271.461,0,0,0,1367,702.04v1.03a272.513,272.513,0,0,1-36.65-13.19c-18.41-8.44-28.09-17-29.59-26.15-1.88-11.55,9.46-22.21,20.44-32.51,10.24-9.63,19.92-18.72,18.86-27.97-1.07-9.3-31.36-19.57-60.66-29.5-21.01-7.13-42.73-14.49-56.09-22.06-9.18-5.19-13.23-10.43-12.04-15.56,4.31-18.58,77.99-32.69,155.73-42.48v1.16C1289.63,504.55,1216.41,518.43,1212.25,536.35Z" transform="translate(-1211.067 -493.65)" fill="#ededed"/>
    </g>
    <g id="Group_407" data-name="Group 407" transform="translate(165.282 33.58)">
      <path id="Path_117" data-name="Path 117" d="M1221.96,536.93c-1.05,4.59,2.83,9.41,11.57,14.31,13.27,7.46,34.96,14.75,55.93,21.8,30.94,10.41,60.17,20.23,61.32,30.07,1.11,9.68-8.74,18.86-19.18,28.58-10.77,10.03-21.91,20.4-20.14,31.32,1.43,8.73,10.92,16.98,29.03,25.21a245.127,245.127,0,0,0,26.51,9.99v1.05a243.487,243.487,0,0,1-26.93-10.13c-18.43-8.38-28.11-16.88-29.59-25.96-1.87-11.45,9.47-22.01,20.44-32.22,10.25-9.54,19.92-18.55,18.86-27.72-1.07-9.21-31.35-19.39-60.64-29.24-21.02-7.06-42.75-14.37-56.1-21.87-9.17-5.15-13.22-10.34-12.05-15.42,4.07-17.66,71.92-31.25,146.01-40.89v1.15C1293.29,506.54,1225.88,519.9,1221.96,536.93Z" transform="translate(-1220.793 -495.81)" fill="#ededed"/>
    </g>
    <g id="Group_408" data-name="Group 408" transform="translate(174.998 35.75)">
      <path id="Path_118" data-name="Path 118" d="M1231.68,537.51c-1.04,4.54,2.85,9.31,11.56,14.16,13.27,7.39,34.94,14.61,55.9,21.59,30.97,10.32,60.22,20.06,61.36,29.83,1.12,9.6-8.74,18.7-19.18,28.34-10.76,9.93-21.89,20.21-20.14,31.02,1.41,8.66,10.9,16.85,29.03,25.02q7.5,3.39,16.79,6.65v1.08q-9.525-3.36-17.21-6.81c-18.45-8.33-28.13-16.76-29.59-25.78-1.84-11.34,9.49-21.8,20.44-31.92,10.25-9.46,19.93-18.39,18.86-27.48-1.06-9.14-31.37-19.24-60.68-29-21-7-42.71-14.23-56.06-21.66-9.15-5.1-13.21-10.23-12.06-15.27,3.84-16.76,66.06-29.82,136.3-39.3v1.16C1297.15,508.54,1235.37,521.36,1231.68,537.51Z" transform="translate(-1230.509 -497.98)" fill="#ededed"/>
    </g>
  </g>
</svg>
