<svg xmlns="http://www.w3.org/2000/svg" width="100%" height="338.08" viewBox="0 0 1294.11 338.08">
<g id="Group_487" data-name="Group 487" transform="translate(0.082 0.382)">
    <path id="Path_31" data-name="Path 31" d="M-1.18,1642.3c43.083-7.18,93.628-16.4,144.06-27.386C208.587,1600.8,274,1583.873,326.671,1567.2c53.042-16.521,93.344-32.786,117.515-42.06,29.592-11.86,26.26-5.684,23.545,12.362-3.285,17.752-5.943,47.365,12.124,75.49,17.032,28.068,54.78,54.659,108.648,65.24,52.368,10.79,120.866,5.579,164.908-25.283,40.871-30.474,69.846-39.587,111.3-41.766,40.2-1.866,92.869,3.211,152.215,8.128,117.154,11.282,261.869,18.69,261.565,19.041" transform="translate(1.208 -1519.052)" fill="none" stroke="#ffef36" stroke-miterlimit="10" stroke-width="1"/>
    <path id="Path_32" data-name="Path 32" d="M-1.18,1645.178c38.468-6.461,81.465-14.295,124.433-23.389,66.408-13.84,132.645-30.455,186.265-46.806,53.99-16.208,95.344-32.151,120.654-41.122,31.035-11.481,29.126-5,27.883,13.281-1.813,17.989-2.943,47.781,16.775,76.011,18.693,28.182,58.243,54.791,114.113,65.278,54.389,10.695,125.1,5.257,171.654-26.079,43.386-30.938,74.554-40.629,117.873-43.4,42.076-2.453,96.294,2.037,156.882,6.46,103.177,8.857,225.91,15.109,257.439,16.89" transform="translate(1.208 -1519.531)" fill="none" stroke="#ffef36" stroke-miterlimit="10" stroke-width="1"/>
    <path id="Path_33" data-name="Path 33" d="M-1.18,1648.129c33.209-5.6,69.009-12.116,104.829-19.467,67.091-13.565,134.173-29.868,188.733-45.9,54.93-15.886,97.357-31.507,123.8-40.175,32.487-11.112,31.993-4.329,32.221,14.2-.332,18.226.057,48.2,21.437,76.532,20.354,28.277,61.7,54.924,119.582,65.316,56.392,10.581,129.332,4.917,178.4-26.875,45.9-31.4,79.262-41.69,124.452-45.034,43.946-3.041,99.721.862,161.544,4.784,88.367,6.7,189.844,11.765,238.974,14.19" transform="translate(1.208 -1520.009)" fill="none" stroke="#ffef36" stroke-miterlimit="10" stroke-width="1"/>
    <path id="Path_34" data-name="Path 34" d="M-1.18,1651.174c27.5-4.661,56.345-9.88,85.234-15.63,67.785-13.291,135.7-29.281,191.211-45,55.879-15.564,99.351-30.863,126.939-39.237,33.93-10.723,34.861-3.647,36.56,15.119,1.139,18.472,3.057,48.625,26.1,77.062,22.016,28.381,65.145,55.047,125.04,65.344,58.4,10.477,133.575,4.585,185.164-27.67,48.417-31.867,83.962-42.742,131.031-46.673,45.816-3.628,103.139-.313,166.205,3.107,78.427,5.191,166.3,9.293,220.489,11.718" transform="translate(1.208 -1520.487)" fill="none" stroke="#ffef36" stroke-miterlimit="10" stroke-width="1"/>
    <path id="Path_35" data-name="Path 35" d="M-1.18,1654.322c21.465-3.666,43.538-7.635,65.648-11.9,68.487-13.016,137.23-28.684,193.689-44.087,56.829-15.242,101.363-30.219,130.082-38.3,35.383-10.354,37.728-2.965,40.9,16.038,2.611,18.709,6.057,49.041,30.759,77.573,23.677,28.485,68.6,55.189,130.509,65.373,60.417,10.382,137.809,4.253,191.914-28.457,50.924-32.341,88.67-43.793,137.61-48.312,47.686-4.216,106.566-1.487,170.866,1.43,70.139,3.988,147.161,7.266,202,9.463" transform="translate(1.208 -1520.965)" fill="none" stroke="#ffef36" stroke-miterlimit="10" stroke-width="1"/>
    <path id="Path_36" data-name="Path 36" d="M-1.18,1657.557c15.218-2.615,30.636-5.362,46.092-8.251,69.171-12.732,138.749-28.087,196.148-43.168,57.778-14.929,103.376-29.584,133.234-37.361,36.826-9.975,40.595-2.3,45.237,16.947,4.082,18.946,9.047,49.458,35.411,78.095,25.339,28.589,72.066,55.312,135.987,65.4,62.421,10.278,142.034,3.922,198.654-29.262,53.449-32.8,93.389-44.845,144.2-49.951,49.557-4.8,109.993-2.662,175.528-.246,62.686,3,130.366,5.551,183.483,7.427" transform="translate(1.208 -1521.442)" fill="none" stroke="#ffef36" stroke-miterlimit="10" stroke-width="1"/>
    <path id="Path_37" data-name="Path 37" d="M-1.19,1660.885c8.81-1.506,17.677-3.069,26.544-4.68,69.864-12.466,140.287-27.509,198.635-42.268,58.718-14.607,105.37-28.94,136.367-36.423,38.278-9.605,43.462-1.62,49.576,17.866,5.563,19.183,12.047,49.865,40.073,78.616,27,28.684,75.522,55.436,141.455,65.42,64.433,10.174,146.278,3.581,205.4-30.067,55.965-33.269,98.1-45.9,150.778-51.59,51.427-5.4,113.42-3.846,180.189-1.923,55.728,2.2,115.044,4.1,164.952,5.608" transform="translate(1.209 -1521.919)" fill="none" stroke="#ffef36" stroke-miterlimit="10" stroke-width="1"/>
    <path id="Path_38" data-name="Path 38" d="M-1.19,1664.326l7.006-1.222c70.557-12.192,141.816-26.922,201.1-41.368,59.677-14.285,107.382-28.3,139.518-35.486,39.731-9.227,46.329-.947,53.914,18.775,7.035,19.42,15.047,50.282,44.734,79.137,28.661,28.788,78.968,55.568,146.914,65.448,66.446,10.07,150.512,3.24,212.164-30.872,58.471-33.733,102.8-46.957,157.357-53.238,53.3-5.987,116.838-5.021,184.85-3.6,49.1,1.525,100.689,2.889,146.411,4.026" transform="translate(1.209 -1522.395)" fill="none" stroke="#ffef36" stroke-miterlimit="10" stroke-width="1"/>
    <path id="Path_39" data-name="Path 39" d="M-1.19,1667.881c67.129-11.481,134.344-25.027,191.069-38.337,60.617-13.972,109.386-27.661,142.661-34.548,41.164-8.857,49.186-.275,58.253,19.685,8.5,19.656,18.038,50.7,49.386,79.648,30.313,28.883,82.433,55.691,152.382,65.467,68.449,9.965,154.746,2.908,218.914-31.668,60.987-34.207,107.506-48.018,163.936-54.886,55.177-6.574,120.265-6.2,189.512-5.286,42.655.985,87.009,1.895,127.86,2.681" transform="translate(1.209 -1522.871)" fill="none" stroke="#ffef36" stroke-miterlimit="10" stroke-width="1"/>
    <path id="Path_40" data-name="Path 40" d="M-1.19,1671.578c61.281-10.477,121.908-22.451,174.028-34.216,61.566-13.66,111.4-27.026,145.813-33.619,42.617-8.478,52.053.4,62.591,20.594,9.968,19.893,21.038,51.106,54.047,80.16,31.975,28.987,85.879,55.824,157.841,65.5,70.471,9.861,158.99,2.567,225.664-32.483,63.5-34.671,112.215-49.079,170.515-56.534,57.047-7.161,123.692-7.379,194.182-6.963,36.342.559,73.785,1.089,109.291,1.573" transform="translate(1.209 -1523.347)" fill="none" stroke="#ffef36" stroke-miterlimit="10" stroke-width="1"/>
    <path id="Path_41" data-name="Path 41" d="M-1.19,1675.4c55.329-9.435,109.556-19.912,157.006-30.219,62.516-13.338,113.4-26.391,148.955-32.691,44.06-8.1,54.921,1.071,66.93,21.513,11.449,20.121,24.038,51.514,58.709,80.672,33.636,29.082,89.335,55.938,163.309,65.515,72.474,9.747,163.224,2.217,232.414-33.3,66.019-35.135,116.923-50.14,177.094-58.183,58.927-7.758,127.12-8.564,198.844-8.649,30.1.237,60.883.474,90.7.71" transform="translate(1.209 -1523.822)" fill="none" stroke="#ffef36" stroke-miterlimit="10" stroke-width="1"/>
    <path id="Path_42" data-name="Path 42" d="M-1.19,1679.339c49.3-8.355,97.291-17.411,140-26.335,63.455-13.025,115.4-25.757,152.1-31.763,45.512-7.73,57.788,1.743,71.269,22.413,12.921,20.367,27.038,51.931,63.36,81.183,35.307,29.186,92.8,56.07,168.787,65.534,74.487,9.643,167.458,1.876,239.163-34.1,68.535-35.609,121.623-51.2,183.673-59.841,60.8-8.346,130.537-9.738,203.505-10.325,23.915.019,48.209.047,72.1.076" transform="translate(1.209 -1524.297)" fill="none" stroke="#ffef36" stroke-miterlimit="10" stroke-width="1"/>
    <path id="Path_43" data-name="Path 43" d="M-1.2,1683.441c43.234-7.285,85.12-15,123.018-22.612,64.4-12.713,117.417-25.122,155.24-30.834,46.965-7.351,60.655,2.416,75.607,23.322,14.392,20.6,30.038,52.338,68.031,81.694,36.959,29.281,96.246,56.184,174.246,65.543,76.5,9.539,171.692,1.535,245.913-34.908,71.05-36.092,126.332-52.272,190.252-61.5,62.667-8.942,133.964-10.922,208.167-12.012,17.753-.114,35.677-.208,53.5-.3" transform="translate(1.209 -1524.772)" fill="none" stroke="#ffef36" stroke-miterlimit="10" stroke-width="1"/>
    <path id="Path_44" data-name="Path 44" d="M-1.2,1687.666c37.139-6.186,73.044-12.637,106.044-19.012,65.354-12.391,119.411-24.478,158.382-29.9,48.408-6.982,63.522,3.079,79.946,24.222,15.864,20.831,33.038,52.745,72.683,82.2,38.62,29.385,99.712,56.307,179.714,65.562,78.512,9.435,175.936,1.194,252.673-35.722,73.557-36.556,131.04-53.332,196.831-63.156,64.538-9.53,137.382-12.1,212.828-13.7,11.582-.151,23.231-.293,34.87-.436" transform="translate(1.209 -1525.246)" fill="none" stroke="#ffef36" stroke-miterlimit="10" stroke-width="1"/>
    <path id="Path_45" data-name="Path 45" d="M-1.2,1692.052c31.054-5.106,61.072-10.364,89.079-15.564,66.3-12.078,121.423-23.843,161.534-28.968,49.851-6.612,66.389,3.751,84.284,25.132,17.335,21.058,36.028,53.152,77.345,82.7,40.281,29.48,103.158,56.43,185.183,65.581,80.515,9.321,180.161.843,259.413-36.547,76.072-37.03,135.749-54.4,203.41-64.814,66.408-10.117,140.809-13.281,217.489-15.384l16.225-.313" transform="translate(1.209 -1525.719)" fill="none" stroke="#ffef36" stroke-miterlimit="10" stroke-width="1"/>
    <path id="Path_46" data-name="Path 46" d="M-1.2,1696.589c25-4.055,49.215-8.175,72.133-12.258,67.243-11.766,123.427-23.218,164.676-28.049,51.294-6.233,69.256,4.414,88.623,26.032,18.807,21.3,39.028,53.56,82,83.21,41.943,29.574,106.623,56.544,190.651,65.59,82.528,9.208,184.4.493,266.173-37.361,78.588-37.5,140.449-55.474,209.98-66.472,67.576-10.609,142.661-14.4,219.73-16.994" transform="translate(1.209 -1526.192)" fill="none" stroke="#ffef36" stroke-miterlimit="10" stroke-width="1"/>
    <path id="Path_47" data-name="Path 47" d="M-1.21,1701.3c19-3.031,37.471-6.082,55.205-9.122,68.193-11.443,125.43-22.583,167.819-27.121,52.747-5.864,72.123,5.078,92.962,26.931,20.288,21.532,42.038,53.967,86.667,83.712,43.595,29.679,110.079,56.667,196.11,65.6,84.541,9.1,188.638.142,272.923-38.185,81.1-37.977,145.158-56.534,216.569-68.129,63.911-10.306,133.917-14.834,205.717-17.9" transform="translate(1.21 -1526.665)" fill="none" stroke="#ffef36" stroke-miterlimit="10" stroke-width="1"/>
    <path id="Path_48" data-name="Path 48" d="M-1.21,1706.164c13.063-2.046,25.851-4.1,38.278-6.139,69.142-11.14,127.442-21.949,170.971-26.2,54.19-5.494,74.99,5.75,97.3,27.831,21.759,21.769,45.028,54.375,91.319,84.214,45.266,29.773,113.534,56.781,201.588,65.609,86.544,8.99,192.873-.208,279.673-39.009,83.62-38.451,149.866-57.6,223.138-69.8,60.1-9.937,125.107-15.014,191.7-18.529" transform="translate(1.21 -1527.137)" fill="none" stroke="#ffef36" stroke-miterlimit="10" stroke-width="1"/>
    <path id="Path_49" data-name="Path 49" d="M-1.21,1711.192q10.837-1.662,21.37-3.316c70.091-10.818,129.455-21.324,174.113-25.274,55.642-5.125,77.857,6.4,101.648,28.722,23.231,22.005,48.028,54.782,95.98,84.716,46.918,29.868,116.99,56.894,207.047,65.619,88.557,8.876,197.116-.559,286.423-39.834,86.136-38.934,154.575-58.675,229.717-71.464,56.174-9.5,116.23-14.977,177.664-18.86" transform="translate(1.21 -1527.609)" fill="none" stroke="#ffef36" stroke-miterlimit="10" stroke-width="1"/>
</g>
</svg>             