         <svg xmlns="http://www.w3.org/2000/svg" width="100%" height="451.874" viewBox="0 0 1730.91 451.874">
            <g id="Group_487" data-name="Group 487" transform="translate(0.082 0.352)">
               <path id="Path_31" data-name="Path 31" d="M-1.18,1683.906c57.626-9.6,125.233-21.933,192.688-36.631,87.887-18.879,175.38-41.521,245.832-63.822,70.947-22.1,124.853-43.853,157.183-56.257,39.582-15.864,35.124-7.6,31.493,16.535-4.394,23.745-7.949,63.353,16.216,100.972,22.781,37.543,73.271,73.109,145.323,87.262,70.045,14.432,161.665,7.463,220.574-33.818,54.667-40.761,93.424-52.95,148.865-55.864,53.766-2.5,124.218,4.3,203.6,10.871,156.7,15.091,350.265,25,349.859,25.468" transform="translate(1.218 -1519.052)" fill="none" stroke="#ffef36" stroke-miterlimit="10" stroke-width="1"/>
               <path id="Path_32" data-name="Path 32" d="M-1.18,1684.685c51.453-8.641,108.964-19.12,166.436-31.283,88.824-18.512,177.42-40.736,249.14-62.605,72.215-21.679,127.529-43,161.382-55,41.511-15.357,38.958-6.69,37.295,17.764-2.425,24.062-3.936,63.91,22.438,101.669,25,37.695,77.9,73.286,152.633,87.313,72.748,14.3,167.325,7.032,229.6-34.882,58.031-41.382,99.72-54.344,157.662-58.044,56.279-3.281,128.8,2.724,209.839,8.641,138,11.847,302.168,20.21,344.339,22.592" transform="translate(1.218 -1516.625)" fill="none" stroke="#ffef36" stroke-miterlimit="10" stroke-width="1"/>
               <path id="Path_33" data-name="Path 33" d="M-1.18,1685.568c44.419-7.488,92.3-16.206,140.214-26.038,89.739-18.144,179.465-39.95,252.442-61.389,73.472-21.248,130.221-42.142,165.585-53.736,43.454-14.862,42.793-5.791,43.1,18.993-.444,24.378.076,64.468,28.673,102.365,27.225,37.822,82.526,73.464,159.947,87.364,75.428,14.153,172.988,6.576,238.626-35.947,61.4-42,106.018-55.763,166.462-60.236,58.781-4.067,133.383,1.153,216.074,6.4,118.2,8.958,253.927,15.737,319.641,18.98" transform="translate(1.218 -1514.201)" fill="none" stroke="#ffef36" stroke-miterlimit="10" stroke-width="1"/>
               <path id="Path_34" data-name="Path 34" d="M-1.18,1686.58c36.787-6.234,75.364-13.216,114.005-20.907,90.666-17.777,181.509-39.165,255.756-60.185,74.742-20.818,132.887-41.281,169.789-52.481,45.384-14.343,46.628-4.878,48.9,20.222,1.524,24.708,4.089,65.038,34.908,103.075,29.447,37.961,87.136,73.628,167.249,87.4,78.12,14.013,178.665,6.133,247.667-37.011,64.761-42.624,112.3-57.17,175.261-62.428,61.282-4.853,137.954-.418,222.309,4.156,104.9,6.943,222.435,12.43,294.917,15.673" transform="translate(1.218 -1511.779)" fill="none" stroke="#ffef36" stroke-miterlimit="10" stroke-width="1"/>
               <path id="Path_35" data-name="Path 35" d="M-1.18,1687.734c28.711-4.9,58.234-10.212,87.809-15.914,91.605-17.409,183.554-38.366,259.07-58.969,76.012-20.387,135.579-40.419,173.992-51.227,47.326-13.849,50.463-3.966,54.7,21.451,3.492,25.024,8.1,65.6,41.142,103.759,31.67,38.1,91.758,73.819,174.563,87.44,80.812,13.887,184.328,5.689,256.7-38.062,68.113-43.257,118.6-58.576,184.061-64.62,63.783-5.639,142.538-1.989,228.543,1.913,93.815,5.334,196.836,9.718,270.181,12.658" transform="translate(1.218 -1509.36)" fill="none" stroke="#ffef36" stroke-miterlimit="10" stroke-width="1"/>
               <path id="Path_36" data-name="Path 36" d="M-1.18,1689c20.355-3.5,40.977-7.172,61.65-11.036,92.52-17.029,185.585-37.568,262.359-57.74,77.282-19.969,138.271-39.57,178.207-49.973,49.257-13.342,54.3-3.079,60.507,22.668,5.46,25.341,12.1,66.153,47.365,104.456,33.892,38.24,96.393,73.983,181.89,87.478,83.491,13.748,189.979,5.246,265.711-39.139,71.491-43.865,124.913-59.982,192.874-66.812,66.285-6.424,147.122-3.561,234.778-.33,83.846,4.016,174.372,7.425,245.42,9.934" transform="translate(1.218 -1506.941)" fill="none" stroke="#ffef36" stroke-miterlimit="10" stroke-width="1"/>
               <path id="Path_37" data-name="Path 37" d="M-1.19,1690.4c11.784-2.014,23.644-4.105,35.5-6.259,93.447-16.674,187.642-36.8,265.686-56.536,78.539-19.538,140.938-38.708,182.4-48.718,51.2-12.848,58.133-2.166,66.31,23.9,7.441,25.658,16.114,66.7,53.6,105.153,36.114,38.367,101.015,74.148,189.2,87.5,86.183,13.608,195.655,4.789,274.74-40.217,74.857-44.5,131.211-61.389,201.674-69,68.786-7.222,151.706-5.144,241.013-2.572,74.539,2.94,153.878,5.486,220.633,7.5" transform="translate(1.215 -1504.526)" fill="none" stroke="#ffef36" stroke-miterlimit="10" stroke-width="1"/>
               <path id="Path_38" data-name="Path 38" d="M-1.19,1691.953l9.371-1.635c94.374-16.307,189.687-36.01,268.987-55.332,79.821-19.107,143.63-37.847,186.614-47.464,53.142-12.341,61.968-1.267,72.113,25.113,9.409,25.975,20.127,67.255,59.834,105.85,38.336,38.506,105.624,74.325,196.506,87.541,88.875,13.469,201.318,4.333,283.781-41.293,78.209-45.12,137.5-62.808,210.474-71.208,71.288-8.008,156.277-6.716,247.248-4.815,65.675,2.04,134.678,3.865,195.833,5.385" transform="translate(1.215 -1502.112)" fill="none" stroke="#ffef36" stroke-miterlimit="10" stroke-width="1"/>
               <path id="Path_39" data-name="Path 39" d="M-1.19,1693.658C88.6,1678.3,178.5,1660.183,254.375,1642.381c81.078-18.689,146.31-37,190.817-46.21,55.06-11.847,65.79-.367,77.917,26.33,11.365,26.291,24.127,67.813,66.056,106.534,40.546,38.632,110.259,74.49,203.82,87.566,91.555,13.329,206.982,3.89,292.81-42.358,81.573-45.754,143.795-64.227,219.273-73.413,73.8-8.793,160.862-8.3,253.483-7.07,57.053,1.318,116.38,2.534,171.02,3.586" transform="translate(1.215 -1499.7)" fill="none" stroke="#ffef36" stroke-miterlimit="10" stroke-width="1"/>
               <path id="Path_40" data-name="Path 40" d="M-1.19,1695.556c81.967-14.014,163.059-30.029,232.772-45.766,82.348-18.271,149-36.149,195.033-44.968,57-11.34,69.625.532,83.72,27.546,13.333,26.608,28.139,68.358,72.291,107.218,42.768,38.772,114.869,74.668,211.122,87.6,94.259,13.19,212.658,3.434,301.838-43.447,84.939-46.375,150.093-65.647,228.073-75.618,76.3-9.579,165.446-9.87,259.73-9.313,48.609.747,98.691,1.457,146.183,2.1" transform="translate(1.215 -1497.289)" fill="none" stroke="#ffef36" stroke-miterlimit="10" stroke-width="1"/>
               <path id="Path_41" data-name="Path 41" d="M-1.19,1697.622c74.006-12.62,146.538-26.634,210-40.419,83.618-17.84,151.681-35.3,199.236-43.726,58.933-10.833,73.46,1.432,89.523,28.775,15.314,26.912,32.152,68.9,78.526,107.9,44.99,38.9,119.491,74.819,218.436,87.629,96.939,13.038,218.321,2.965,310.867-44.537,88.3-47,156.392-67.065,236.873-77.823,78.818-10.377,170.03-11.454,265.965-11.568,40.266.317,81.434.634,121.319.95" transform="translate(1.215 -1494.882)" fill="none" stroke="#ffef36" stroke-miterlimit="10" stroke-width="1"/>
               <path id="Path_42" data-name="Path 42" d="M-1.19,1699.854c65.942-11.176,130.132-23.289,187.261-35.224,84.875-17.422,154.36-34.451,203.439-42.485,60.876-10.339,77.294,2.332,95.326,29.979,17.282,27.241,36.165,69.46,84.748,108.587,47.225,39.038,124.126,75,225.763,87.655,99.631,12.9,223.985,2.509,319.895-45.614,91.669-47.629,162.677-68.485,245.673-80.041,81.32-11.163,174.6-13.025,272.2-13.811,31.987.025,64.482.063,96.443.1" transform="translate(1.215 -1492.476)" fill="none" stroke="#ffef36" stroke-miterlimit="10" stroke-width="1"/>
               <path id="Path_43" data-name="Path 43" d="M-1.2,1702.3c57.828-9.744,113.853-20.057,164.544-30.245,86.145-17,157.052-33.6,207.642-41.242,62.818-9.833,81.129,3.231,101.129,31.195,19.251,27.559,40.177,70.005,91,109.271,49.434,39.165,128.735,75.149,233.064,87.668,102.323,12.759,229.648,2.052,328.923-46.691,95.034-48.275,168.976-69.916,254.473-82.257,83.821-11.961,179.185-14.609,278.435-16.066,23.746-.152,47.72-.279,71.555-.405" transform="translate(1.213 -1490.073)" fill="none" stroke="#ffef36" stroke-miterlimit="10" stroke-width="1"/>
               <path id="Path_44" data-name="Path 44" d="M-1.2,1704.918c49.676-8.274,97.7-16.9,141.84-25.43,87.415-16.573,159.719-32.741,211.845-39.988,64.748-9.338,84.964,4.118,106.932,32.4,21.219,27.863,44.19,70.55,97.218,109.943,51.657,39.3,133.37,75.313,240.378,87.693,105.015,12.62,235.324,1.6,337.964-47.781,98.386-48.9,175.274-71.335,263.273-84.474,86.323-12.746,183.756-16.18,284.67-18.322,15.492-.2,31.073-.392,46.641-.583" transform="translate(1.213 -1487.671)" fill="none" stroke="#ffef36" stroke-miterlimit="10" stroke-width="1"/>
               <path id="Path_45" data-name="Path 45" d="M-1.2,1707.752c41.536-6.83,81.688-13.862,119.148-20.818,88.685-16.155,162.411-31.892,216.061-38.747,66.679-8.844,88.8,5.018,112.735,33.615,23.187,28.166,48.19,71.094,103.453,110.614,53.879,39.431,137.979,75.478,247.693,87.718,107.694,12.468,240.975,1.127,346.98-48.883,101.751-49.529,181.573-72.767,272.073-86.692,88.824-13.532,188.34-17.764,290.9-20.577l21.7-.418" transform="translate(1.213 -1485.272)" fill="none" stroke="#ffef36" stroke-miterlimit="10" stroke-width="1"/>
               <path id="Path_46" data-name="Path 46" d="M-1.2,1710.791c33.435-5.423,65.828-10.935,96.481-16.4,89.942-15.737,165.09-31.056,220.264-37.518,68.609-8.337,92.634,5.9,118.538,34.819,25.155,28.5,52.2,71.639,109.675,111.3,56.1,39.558,142.614,75.631,255.007,87.731,110.386,12.316,246.651.659,356.021-49.973,105.116-50.162,187.858-74.2,280.86-88.909,90.386-14.191,190.817-19.259,293.9-22.731" transform="translate(1.213 -1482.875)" fill="none" stroke="#ffef36" stroke-miterlimit="10" stroke-width="1"/>
               <path id="Path_47" data-name="Path 47" d="M-1.21,1714.059c25.409-4.054,50.12-8.135,73.84-12.2,91.212-15.306,167.77-30.207,224.467-36.276,70.552-7.843,96.469,6.792,124.342,36.022,27.136,28.8,56.228,72.184,115.923,111.97,58.31,39.7,147.236,75.8,262.308,87.744,113.078,12.177,252.315.19,365.05-51.075,108.481-50.8,194.157-75.618,289.673-91.127,85.485-13.786,179.122-19.842,275.159-23.947" transform="translate(1.21 -1480.48)" fill="none" stroke="#ffef36" stroke-miterlimit="10" stroke-width="1"/>
               <path id="Path_48" data-name="Path 48" d="M-1.21,1717.546c17.473-2.737,34.577-5.487,51.2-8.211,92.482-14.9,170.462-29.358,228.683-35.047,72.482-7.349,100.3,7.691,130.145,37.226,29.1,29.117,60.228,72.729,122.145,112.642,60.545,39.823,151.859,75.947,269.635,87.756,115.757,12.025,257.978-.278,374.078-52.177,111.846-51.43,200.455-77.05,298.461-93.357,80.393-13.291,167.337-20.083,256.4-24.784" transform="translate(1.21 -1478.088)" fill="none" stroke="#ffef36" stroke-miterlimit="10" stroke-width="1"/>
               <path id="Path_49" data-name="Path 49" d="M-1.21,1721.25q14.5-2.224,28.584-4.435c93.751-14.47,173.154-28.522,232.886-33.805,74.425-6.855,104.139,8.565,135.96,38.417,31.073,29.433,64.24,73.274,128.379,113.313,62.755,39.95,156.481,76.1,276.937,87.769,118.449,11.872,263.654-.748,383.107-53.28,115.211-52.076,206.753-78.481,307.26-95.587,75.136-12.708,155.465-20.032,237.635-25.227" transform="translate(1.21 -1475.696)" fill="none" stroke="#ffef36" stroke-miterlimit="10" stroke-width="1"/>
            </g>
            </svg>   