<svg xmlns="http://www.w3.org/2000/svg" width="414.864" height="52.355" viewBox="0 0 414.864 52.355"><path d="M95.186,513.444H76.529v-.1a10.888,10.888,0,0,1,1.43-2.173q1.337-1.774,3.162-3.95t3.75-4.195a19.345,19.345,0,0,1,3.309-2.911h49.466a26.762,26.762,0,0,1-2.319,3.6q-1.628,2.218-3.452,4.392a39.667,39.667,0,0,1-3.556,3.749q-1.729,1.581-2.517,1.578H114.139L99.925,552.42H80.971Z" transform="translate(-76.529 -500.097)" fill="#00429d"/><path d="M130.293,500.114h44.026a9.991,9.991,0,0,1,5.725,1.481,9.785,9.785,0,0,1,3.305,3.75,15.4,15.4,0,0,1,1.48,4.933,38.287,38.287,0,0,1,.335,4.937,13.343,13.343,0,0,1-2.47,8.291,18.142,18.142,0,0,1-6.167,5.181,29.312,29.312,0,0,1-8.191,2.767,78.193,78.193,0,0,1-8.437,1.136l19.348,19.841H158.122L137.79,533.678l-1.086.788-6.517,17.966H111.242Zm35.736,15.1a2.721,2.721,0,0,0-.3-1.337c-.194-.361-.692-.541-1.481-.541H144.411l-5.625,15.4,8.689-8.787h15.793a2.182,2.182,0,0,0,2.123-1.337,5.527,5.527,0,0,0,.642-2.319Z" transform="translate(-64.159 -500.103)" fill="#00429d"/><path d="M181.31,500.111h18.954L181.213,552.43H162.259Z" transform="translate(-41.259 -500.1)" fill="#00429d"/><path d="M187.665,528.247a25.579,25.579,0,0,1,2.077-9.772,32.445,32.445,0,0,1,5.625-9.082,31.341,31.341,0,0,1,8.192-6.664,19.759,19.759,0,0,1,9.869-2.618H254.2q-2.86,3.754-5.773,7.06a63.651,63.651,0,0,1-6.367,6.264H216.4a5.416,5.416,0,0,0-2.714.838,13.045,13.045,0,0,0-2.767,2.223A19.38,19.38,0,0,0,208.5,519.6a17.165,17.165,0,0,0-1.671,3.406,14.659,14.659,0,0,0-.788,4.047,9.477,9.477,0,0,0,1,4.01,16.774,16.774,0,0,0,2.516,3.9,15.768,15.768,0,0,0,3.343,2.961,6.473,6.473,0,0,0,3.5,1.184h23.56q-2.268,3.343-5.134,6.857a42.41,42.41,0,0,1-6.614,6.464h-7.9a65.009,65.009,0,0,1-11.943-1.086,32.245,32.245,0,0,1-10.464-3.8,20.967,20.967,0,0,1-7.453-7.353,22.336,22.336,0,0,1-2.812-11.745v-.191Z" transform="translate(-30.296 -500.1)" fill="#00429d"/><path d="M226.372,552.43l19.053-52.319h18.851L250.07,539.1h31.291a8.874,8.874,0,0,1-1.137,1.671q-1.233,1.672-3.109,3.9t-3.951,4.442a33.321,33.321,0,0,1-3.452,3.308H226.372Z" transform="translate(-14.477 -500.1)" fill="#00429d"/><path d="M276.362,522.028l7.8-21.916h18.657q-3.453,10.067-5.328,15.646t-2.76,8.357q-.893,2.763-1.087,3.5a4.608,4.608,0,0,0-.2,1.04,13.7,13.7,0,0,0-.491,3.162,7.257,7.257,0,0,0,1.925,5.378,5.868,5.868,0,0,0,4.2,1.925h4.819a9.86,9.86,0,0,0,4.392-1,14.426,14.426,0,0,0,3.6-2.47,20.53,20.53,0,0,0,2.768-3.162,24.3,24.3,0,0,0,1.875-3.059l10.662-29.319h18.754l-8.884,24.379a116.9,116.9,0,0,1-5.038,11.992,37.383,37.383,0,0,1-5.826,8.734,21.81,21.81,0,0,1-7.5,5.378,25.57,25.57,0,0,1-10.167,1.826H296.98a66.974,66.974,0,0,1-11.647-.839,20.373,20.373,0,0,1-7.4-2.614,10.02,10.02,0,0,1-3.95-4.589,17.406,17.406,0,0,1-1.184-6.761q0-1.086.1-2.173c.063-.726.163-1.544.3-2.47a34.819,34.819,0,0,1,1.384-5.081Q275.478,525.387,276.362,522.028Z" transform="translate(5.375 -500.101)" fill="#00429d"/><path d="M381.121,500.111a8.9,8.9,0,0,1,4.886,1.233,9.225,9.225,0,0,1,3.058,3.205,13.727,13.727,0,0,1,1.577,4.643,32.942,32.942,0,0,1,.445,5.431v.2a9.369,9.369,0,0,1-.839,3.848,17.884,17.884,0,0,1-2.075,3.5,18.7,18.7,0,0,1-2.673,2.865,12.668,12.668,0,0,1-2.618,1.824,8.466,8.466,0,0,1,1.979,2.52,8.307,8.307,0,0,1,1,3.6,8.117,8.117,0,0,1-.491,2.76q-.494,1.388-1,2.675l-.395,1.085a37.88,37.88,0,0,1-3.109,5.923,13.082,13.082,0,0,1-4.1,4.011,18.49,18.49,0,0,1-5.972,2.269,43.237,43.237,0,0,1-8.734.742H316.757l19.051-52.317h45.313ZM360.789,539c.669-.334,1.183-.608,1.578-.838l1.183-.692a4.6,4.6,0,0,0,.892-.641,15.336,15.336,0,0,1,.892-1.578l.194-.492a2.131,2.131,0,0,0,.247-1q.051-.688.05-1.383h-22.7l-2.568,6.615Zm-6.912-18.85H369.67c.064,0,.214-.146.442-.445s.477-.642.742-1.035.511-.769.742-1.137a4.174,4.174,0,0,0,.444-.84l.2-.491a1.227,1.227,0,0,1-.2-.491A9.957,9.957,0,0,0,371,514.376c-.491-.559-.808-.84-.936-.84H349.833l-5.431,15Z" transform="translate(23.777 -500.102)" fill="#00429d"/></svg>