<svg xmlns="http://www.w3.org/2000/svg" width="414.865" height="52.355" viewBox="0 0 414.865 52.355"><path d="M85.893,513.444H67.236v-.1a10.952,10.952,0,0,1,1.431-2.173q1.337-1.774,3.162-3.95t3.75-4.195a19.336,19.336,0,0,1,3.308-2.911h49.467a26.636,26.636,0,0,1-2.321,3.6q-1.628,2.218-3.452,4.392a39.671,39.671,0,0,1-3.556,3.749q-1.727,1.581-2.517,1.578H104.848L90.633,552.42H71.678Z" transform="translate(-67.236 -500.097)" fill="#e75f49"/><path d="M121,500.114h44.026a9.989,9.989,0,0,1,5.725,1.481,9.785,9.785,0,0,1,3.305,3.75,15.442,15.442,0,0,1,1.481,4.933,38.044,38.044,0,0,1,.334,4.937,13.325,13.325,0,0,1-2.47,8.291,18.15,18.15,0,0,1-6.166,5.181,29.336,29.336,0,0,1-8.192,2.767,78.148,78.148,0,0,1-8.436,1.136l19.35,19.841H148.828L128.5,533.678l-1.086.788-6.517,17.966H101.949Zm35.737,15.1a2.723,2.723,0,0,0-.3-1.337c-.193-.361-.692-.541-1.48-.541H135.118l-5.625,15.4,8.69-8.787h15.792a2.181,2.181,0,0,0,2.123-1.337,5.507,5.507,0,0,0,.642-2.319Z" transform="translate(-54.866 -500.103)" fill="#e75f49"/><path d="M172.017,500.111h18.955L171.921,552.43H152.966Z" transform="translate(-31.966 -500.1)" fill="#e75f49"/><path d="M178.373,528.247a25.55,25.55,0,0,1,2.075-9.772,32.443,32.443,0,0,1,5.625-9.082,31.337,31.337,0,0,1,8.192-6.664,19.764,19.764,0,0,1,9.87-2.618h40.776q-2.86,3.754-5.771,7.06a63.652,63.652,0,0,1-6.368,6.264H207.107a5.416,5.416,0,0,0-2.714.838,13.052,13.052,0,0,0-2.768,2.223,19.29,19.29,0,0,0-2.416,3.109,17.023,17.023,0,0,0-1.671,3.406,14.614,14.614,0,0,0-.789,4.047,9.479,9.479,0,0,0,1,4.01,16.781,16.781,0,0,0,2.517,3.9,15.76,15.76,0,0,0,3.342,2.961,6.477,6.477,0,0,0,3.5,1.184h23.56q-2.271,3.343-5.134,6.857a42.419,42.419,0,0,1-6.615,6.464h-7.9a65,65,0,0,1-11.941-1.086,32.241,32.241,0,0,1-10.466-3.8,20.967,20.967,0,0,1-7.453-7.353,22.321,22.321,0,0,1-2.81-11.745v-.191Z" transform="translate(-21.002 -500.1)" fill="#e75f49"/><path d="M217.08,552.43l19.051-52.319h18.851L240.777,539.1h31.291a8.757,8.757,0,0,1-1.137,1.671q-1.233,1.672-3.107,3.9t-3.951,4.442a33.314,33.314,0,0,1-3.453,3.308H217.08Z" transform="translate(-5.183 -500.1)" fill="#e75f49"/><path d="M267.068,522.028l7.8-21.916h18.657q-3.453,10.067-5.328,15.646t-2.76,8.357q-.894,2.763-1.086,3.5a4.662,4.662,0,0,0-.2,1.04,13.761,13.761,0,0,0-.491,3.162,7.263,7.263,0,0,0,1.925,5.378,5.87,5.87,0,0,0,4.2,1.925H294.6a9.854,9.854,0,0,0,4.392-1,14.454,14.454,0,0,0,3.6-2.47,20.519,20.519,0,0,0,2.767-3.162,24.335,24.335,0,0,0,1.876-3.059l10.661-29.319h18.754l-8.884,24.379a117.207,117.207,0,0,1-5.036,11.992,37.387,37.387,0,0,1-5.825,8.734,21.822,21.822,0,0,1-7.5,5.378,25.576,25.576,0,0,1-10.167,1.826H287.687a66.987,66.987,0,0,1-11.648-.839,20.369,20.369,0,0,1-7.4-2.614,10.017,10.017,0,0,1-3.951-4.589,17.4,17.4,0,0,1-1.183-6.761q0-1.086.1-2.173c.064-.726.164-1.544.3-2.47a35,35,0,0,1,1.385-5.081Q266.186,525.387,267.068,522.028Z" transform="translate(14.668 -500.101)" fill="#e75f49"/><path d="M371.828,500.111a8.9,8.9,0,0,1,4.887,1.233,9.222,9.222,0,0,1,3.057,3.205,13.7,13.7,0,0,1,1.579,4.643,32.981,32.981,0,0,1,.444,5.431v.2a9.346,9.346,0,0,1-.838,3.848,17.945,17.945,0,0,1-2.075,3.5,18.78,18.78,0,0,1-2.675,2.865,12.653,12.653,0,0,1-2.616,1.824,8.5,8.5,0,0,1,1.979,2.52,8.348,8.348,0,0,1,1,3.6,8.151,8.151,0,0,1-.491,2.76q-.495,1.388-1,2.675l-.393,1.085a37.877,37.877,0,0,1-3.109,5.923,13.084,13.084,0,0,1-4.1,4.011,18.485,18.485,0,0,1-5.973,2.269,43.22,43.22,0,0,1-8.734.742h-45.3l19.051-52.317h45.311ZM351.5,539c.669-.334,1.184-.608,1.577-.838l1.184-.692a4.682,4.682,0,0,0,.892-.641,15.151,15.151,0,0,1,.892-1.578l.194-.492a2.15,2.15,0,0,0,.247-1q.051-.688.05-1.383H333.828l-2.566,6.615Zm-6.912-18.85h15.793c.062,0,.213-.146.441-.445s.477-.642.742-1.035.511-.769.742-1.137a4.1,4.1,0,0,0,.445-.84l.2-.491a1.209,1.209,0,0,1-.2-.491,10.077,10.077,0,0,0-1.036-1.337c-.491-.559-.808-.84-.936-.84H340.54l-5.431,15Z" transform="translate(33.07 -500.102)" fill="#e75f49"/></svg>