<?xml version="1.0" encoding="utf-8"?>
<!-- Generator: Adobe Illustrator 26.0.0, SVG Export Plug-In . SVG Version: 6.00 Build 0)  -->
<svg version="1.1" id="圖層_1" xmlns="http://www.w3.org/2000/svg" xmlns:xlink="http://www.w3.org/1999/xlink" x="0px" y="0px"
	 viewBox="0 0 1366 1396" style="enable-background:new 0 0 1366 1396;" xml:space="preserve">
<style type="text/css">
	.st0{fill:#EDEDED;}
	.st1{fill:url(#SVGID_1_);}
	.st2{fill:url(#circle_Gradient_00000085234222830928288060000002289065253451197062_);}
	.st3{fill:url(#circle_Gradient-2_00000135667308610798198270000003626976206006927238_);}
	.st4{fill:#FFFFFF;}
</style>
<g id="Group_1042" transform="translate(0 -80)">
	<g id="Group_977" transform="translate(0 79.825)">
		<rect y="0.6" class="st0" width="1366" height="1396"/>
		<g id="Path_442" transform="translate(0 210.645)">
			
				<linearGradient id="SVGID_1_" gradientUnits="userSpaceOnUse" x1="2.966512e-02" y1="871.6371" x2="1.0102" y2="870.9166" gradientTransform="matrix(1365 0 0 -1200.2488 0.5 1046156.9375)">
				<stop  offset="0" style="stop-color:#00429D"/>
				<stop  offset="1" style="stop-color:#0C3774"/>
			</linearGradient>
			<path class="st1" d="M0,990.5V-4.9l1366.2-204.8V779L0,990.5z"/>
		</g>
		
			<linearGradient id="circle_Gradient_00000084507566923114791160000011478019394879671683_" gradientUnits="userSpaceOnUse" x1="0.9869" y1="1082.2372" x2="4.486325e-02" y2="1082.9003" gradientTransform="matrix(347 0 0 -347 46 376136.8438)">
			<stop  offset="0" style="stop-color:#FFA10A"/>
			<stop  offset="1" style="stop-color:#FFEF36"/>
		</linearGradient>
		
			<circle id="circle_Gradient" style="fill:url(#circle_Gradient_00000084507566923114791160000011478019394879671683_);" cx="219.5" cy="481.6" r="173.5"/>
		
			<linearGradient id="circle_Gradient-2_00000116196179333327730350000001012062176771862947_" gradientUnits="userSpaceOnUse" x1="0.9869" y1="1082.5084" x2="4.486325e-02" y2="1083.1714" gradientTransform="matrix(267 0 0 -267 1099 290073.9375)">
			<stop  offset="0" style="stop-color:#FFA10A"/>
			<stop  offset="1" style="stop-color:#FFEF36"/>
		</linearGradient>
		
			<circle id="circle_Gradient-2" style="fill:url(#circle_Gradient-2_00000116196179333327730350000001012062176771862947_);" cx="1232.5" cy="952.7" r="133.5"/>
	</g>
	<g id="Group_1062" transform="translate(-6.56 -290)">
		<g id="Group_1043">
			<path id="Path_498" class="st4" d="M1372.4,757.7v1c-93.7-12.6-180.1-29.8-224.1-52.8c-18.1-9.4-27.8-19-29.5-29.2
				c-2.2-13.3,9.2-25.5,20.3-37.4c10.3-11,19.9-21.3,18.9-31.9c-1.1-10.6-31.4-22.3-60.7-33.6c-21-8.1-42.7-16.5-56.1-25.1
				c-9.4-6.1-13.4-12.2-11.9-18.1c4.8-18.6,63.5-35.5,174.5-50.2c82.6-11,164.8-16.6,165.6-16.6l0.1,1c-3.3,0.2-328,22.6-339.2,66.1
				c-1.4,5.5,2.4,11.2,11.5,17c13.3,8.5,34.9,16.9,55.9,25c30.9,11.9,60.2,23.2,61.3,34.4c1.1,11-8.7,21.5-19.2,32.7
				c-10.9,11.7-22.2,23.7-20.1,36.5c1.7,9.8,11.2,19.2,29,28.4C1192.6,728,1278.9,745.1,1372.4,757.7z"/>
		</g>
		<g id="Group_1044">
			<path id="Path_499" class="st4" d="M1040,531.7c-1.4,5.4,2.5,11.1,11.5,16.8c13.3,8.5,35,16.8,55.9,24.8
				c30.9,11.8,60.2,23,61.3,34.1c1.1,11-8.7,21.4-19.2,32.4c-10.9,11.6-22.2,23.5-20.1,36.2c1.7,9.8,11.1,19,29,28.2
				c42.4,21.9,124.5,38.5,213.9,50.9v1.1c-104.6-14.4-176.7-31.6-214.4-51.1c-18.1-9.4-27.8-18.8-29.5-29
				c-2.2-13.2,9.2-25.3,20.3-37.1c10.3-10.9,19.9-21.1,18.9-31.6c-1.1-10.5-31.4-22.1-60.7-33.3c-21-8-42.8-16.3-56.1-24.9
				c-9.4-6-13.4-12-11.9-17.9c4.7-18.5,63.4-35.2,174.5-49.9c69-9.1,137.8-14.5,159-16v1C1325.8,470,1050.2,492,1040,531.7z"/>
		</g>
		<g id="Group_1045">
			<path id="Path_500" class="st4" d="M1049.7,532.2c-1.4,5.4,2.5,11,11.5,16.7c13.3,8.4,34.9,16.6,55.9,24.6
				c30.9,11.8,60.2,22.8,61.3,33.9c1.1,10.9-8.7,21.2-19.2,32.2c-10.9,11.5-22.2,23.3-20.1,35.9c1.7,9.7,11.1,18.9,29,28.1
				c36.4,18.7,105.1,35.2,204.2,49.2v1c-99.3-14-168.2-30.6-204.7-49.4c-18.1-9.3-27.8-18.7-29.5-28.8c-2.2-13,9.2-25.1,20.3-36.8
				c10.3-10.8,19.9-21,18.9-31.4c-1.1-10.5-31.4-21.9-60.7-33.1c-21-8-42.7-16.2-56.1-24.7c-9.4-6-13.4-11.9-11.9-17.8
				c4.7-18.3,63.4-35,174.4-49.5c60.7-7.9,121.2-13,149.4-15.2v1C1306,473.5,1059.2,495,1049.7,532.2z"/>
		</g>
		<g id="Group_1046">
			<path id="Path_501" class="st4" d="M1059.4,532.8c-1.3,5.3,2.5,10.9,11.5,16.5c13.3,8.3,34.9,16.5,55.9,24.4
				c30.9,11.6,60.2,22.7,61.3,33.6c1.1,10.8-8.7,21.1-19.2,31.9c-10.9,11.4-22.2,23.2-20.1,35.6c1.6,9.7,11.1,18.8,29,27.9
				c35.2,17.9,100.6,33.9,194.5,47.5v1c-94.1-13.6-159.7-29.6-195-47.6c-18.2-9.3-27.8-18.6-29.5-28.6c-2.2-12.9,9.3-24.9,20.3-36.5
				c10.3-10.7,19.9-20.8,18.9-31.1c-1.1-10.4-31.4-21.8-60.7-32.8c-21-7.9-42.8-16.1-56.1-24.5c-9.4-5.9-13.4-11.8-11.9-17.6
				c4.6-18.2,63.3-34.7,174.4-49.2c54.4-7.1,108.7-11.9,139.7-14.3v1C1294.6,476.4,1068.4,497.5,1059.4,532.8z"/>
		</g>
		<g id="Group_1047">
			<path id="Path_502" class="st4" d="M1069.2,533.4c-1.3,5.3,2.5,10.8,11.5,16.4c13.3,8.3,34.9,16.4,55.9,24.2
				c30.9,11.6,60.2,22.5,61.3,33.4c1.1,10.7-8.7,20.9-19.2,31.7c-10.9,11.3-22.2,23-20.1,35.3c1.6,9.6,11.1,18.6,29,27.7
				c26.6,13.5,79.6,30.1,184.8,45.8v1c-105.4-15.7-158.6-32.4-185.2-45.9c-18.2-9.2-27.8-18.5-29.5-28.4
				c-2.2-12.8,9.3-24.7,20.4-36.2c10.3-10.6,19.9-20.7,18.9-30.9c-1.1-10.3-31.4-21.6-60.7-32.5c-21-7.8-42.7-16-56.1-24.3
				c-9.4-5.8-13.4-11.7-11.9-17.5c4.5-18.1,63.2-34.5,174.3-48.8c49.1-6.3,98.2-10.8,130-13.4v1C1287,479,1077.6,499.7,1069.2,533.4
				z"/>
		</g>
		<g id="Group_1048">
			<path id="Path_503" class="st4" d="M1078.9,534c-1.3,5.2,2.6,10.7,11.5,16.2c13.3,8.2,35,16.3,55.9,24
				c30.9,11.5,60.2,22.3,61.3,33.1c1.1,10.6-8.7,20.8-19.2,31.5c-10.9,11.2-22.2,22.8-20.1,35c1.6,9.5,11.1,18.5,29,27.5
				c25.7,12.9,76.2,28.8,175.1,44v1c-99.1-15.2-149.8-31.2-175.5-44.1c-18.2-9.1-27.9-18.4-29.5-28.2c-2.1-12.7,9.3-24.5,20.4-35.8
				c10.3-10.5,19.9-20.5,18.9-30.7c-1.1-10.2-31.4-21.4-60.7-32.3c-21-7.8-42.8-15.8-56.1-24.1c-9.3-5.8-13.4-11.6-11.9-17.3
				c4.5-17.9,63.1-34.2,174.3-48.5c44.4-5.7,88.7-9.9,120.4-12.5v1C1281.9,481.5,1086.9,501.7,1078.9,534z"/>
		</g>
		<g id="Group_1049">
			<path id="Path_504" class="st4" d="M1088.6,534.6c-1.3,5.2,2.6,10.6,11.5,16c13.3,8.2,34.9,16.1,55.9,23.8
				c30.9,11.4,60.2,22.1,61.3,32.9c1.1,10.5-8.7,20.6-19.2,31.2c-10.9,11.1-22.1,22.6-20.1,34.7c1.6,9.5,11.1,18.4,29,27.3
				c24.7,12.3,72.7,27.5,165.4,42.1v1c-70.4-11-131.1-24.9-165.8-42.2c-18.2-9.1-27.9-18.2-29.5-28c-2.1-12.6,9.3-24.3,20.4-35.5
				c10.2-10.5,19.9-20.3,18.9-30.4c-1.1-10.1-31.4-21.3-60.7-32c-21-7.7-42.7-15.7-56.1-23.9c-9.3-5.7-13.4-11.5-12-17.1
				c4.4-17.8,63.1-34,174.2-48.1c40-5.1,80-9,110.7-11.6v1c-30.7,2.7-70.6,6.5-110.6,11.6C1152.8,501.1,1092.8,517.4,1088.6,534.6z"
				/>
		</g>
		<g id="Group_1050">
			<path id="Path_505" class="st4" d="M1098.3,535.2c-1.3,5.1,2.6,10.5,11.5,15.9c13.3,8.1,35,16,55.9,23.7
				c30.9,11.3,60.2,22,61.3,32.6c1.1,10.5-8.7,20.4-19.2,31c-10.9,11-22.1,22.4-20.1,34.4c1.6,9.4,11.1,18.3,29,27.1
				c33,16.3,89.6,29.5,155.6,40.2v1c-66.2-10.7-123-24-156.1-40.3c-18.2-9-27.9-18.1-29.5-27.8c-2.1-12.5,9.3-24.1,20.4-35.2
				c10.3-10.4,19.9-20.2,18.9-30.2c-1.1-10-31.4-21.1-60.7-31.8c-21-7.7-42.8-15.6-56.1-23.8c-9.3-5.7-13.3-11.4-12-17
				c4.4-17.7,63-33.8,174.2-47.8c35.9-4.5,71.9-8.1,101-10.7v1c-29.2,2.6-65,6.1-100.9,10.7C1162.4,501.9,1102.5,518.2,1098.3,535.2
				z"/>
		</g>
		<g id="Group_1051">
			<path id="Path_506" class="st4" d="M1108,535.7c-1.2,5.1,2.6,10.3,11.5,15.7c13.3,8,34.9,15.9,55.9,23.5
				c30.9,11.2,60.2,21.8,61.3,32.4c1.1,10.4-8.7,20.3-19.2,30.7c-10.9,10.9-22.1,22.2-20.1,34.1c1.6,9.3,11,18.1,29,26.9
				c31.4,15.4,84.2,28,145.9,38.3v1c-61.9-10.3-114.9-23-146.3-38.4c-18.3-9-27.9-18-29.5-27.7c-2.1-12.4,9.3-23.8,20.4-34.9
				c10.3-10.3,19.9-20,18.9-29.9c-1.1-10-31.4-20.9-60.7-31.5c-21-7.6-42.7-15.5-56.1-23.6c-9.3-5.6-13.3-11.3-12-16.8
				c4.3-17.5,62.9-33.5,174.1-47.4c32.1-4,64.1-7.2,91.4-9.7v1c-27.2,2.5-59.2,5.7-91.2,9.7C1172.1,502.7,1112.2,518.9,1108,535.7z"
				/>
		</g>
		<g id="Group_1052">
			<path id="Path_507" class="st4" d="M1117.7,536.3c-1.2,5,2.7,10.2,11.5,15.6c13.3,8,35,15.8,55.9,23.3
				c30.9,11.1,60.2,21.6,61.3,32.1c1.1,10.3-8.7,20.1-19.2,30.5c-10.8,10.8-22.1,22-20.1,33.8c1.6,9.3,11,18,29,26.7
				c29.7,14.5,78.8,26.5,136.2,36.3v1c-57.6-9.9-106.8-21.9-136.6-36.4c-18.3-8.9-27.9-17.9-29.5-27.5c-2.1-12.3,9.3-23.6,20.4-34.6
				c10.2-10.2,19.9-19.8,18.9-29.7c-1.1-9.9-31.3-20.7-60.6-31.3c-21-7.5-42.8-15.4-56.1-23.4c-9.3-5.6-13.3-11.2-12-16.7
				c4.2-17.4,62.8-33.2,174.1-47c28.4-3.5,56.7-6.4,81.7-8.8l0,1c-25,2.3-53.3,5.3-81.6,8.8C1181.7,503.6,1121.8,519.6,1117.7,536.3
				z"/>
		</g>
		<g id="Group_1053">
			<path id="Path_508" class="st4" d="M1127.4,536.9c-1.2,5,2.7,10.1,11.5,15.4c13.3,7.9,34.9,15.6,55.9,23.1
				c30.9,11,60.2,21.5,61.3,31.9c1.1,10.2-8.7,20-19.2,30.3c-10.8,10.7-22.1,21.8-20.1,33.5c1.5,9.2,11,17.9,29,26.5
				c28.1,13.5,73.3,24.9,126.5,34.3v1c-53.3-9.5-98.8-20.8-126.9-34.4c-18.3-8.8-28-17.8-29.5-27.3c-2-12.2,9.4-23.4,20.4-34.3
				c10.2-10.1,19.9-19.7,18.9-29.5c-1.1-9.8-31.4-20.6-60.7-31c-21-7.5-42.7-15.2-56.1-23.2c-9.3-5.5-13.3-11.1-12-16.5
				c4.2-17.3,62.8-33,174-46.7c24.8-3,49.5-5.6,72-7.8v1C1274.4,492.6,1133.8,510.6,1127.4,536.9z"/>
		</g>
		<g id="Group_1054">
			<path id="Path_509" class="st4" d="M1137.2,537.5c-1.2,4.9,2.7,10,11.5,15.2c13.3,7.8,35,15.5,55.9,22.9
				c30.9,10.9,60.2,21.3,61.3,31.6c1.1,10.2-8.7,19.8-19.2,30c-10.8,10.6-22,21.6-20.1,33.1c1.5,9.1,11,17.8,29,26.4
				c26.3,12.6,67.9,23.3,116.8,32.3v1c-49-9-90.8-19.7-117.2-32.4c-18.3-8.8-28-17.6-29.6-27.1c-2-12.1,9.4-23.2,20.4-34
				c10.2-10,19.9-19.5,18.9-29.2c-1.1-9.7-31.4-20.4-60.7-30.8c-21-7.4-42.7-15.1-56.1-23c-9.3-5.5-13.3-11-12-16.3
				c4.1-17.2,62.7-32.8,174-46.3c21.3-2.6,42.5-4.9,62.4-6.8v1c-19.8,1.9-41,4.2-62.3,6.8C1201,505.2,1141.1,521,1137.2,537.5z"/>
		</g>
		<g id="Group_1055">
			<path id="Path_510" class="st4" d="M1146.9,538c-1.2,4.8,2.7,9.9,11.5,15.1c13.3,7.8,35,15.4,55.9,22.7
				c30.9,10.8,60.2,21.1,61.3,31.3c1.1,10.1-8.7,19.7-19.2,29.8c-10.8,10.5-22,21.4-20.1,32.8c1.5,9.1,11,17.6,29,26.2
				c24.6,11.7,62.4,21.7,107,30.2v1c-44.8-8.5-82.8-18.6-107.5-30.3c-18.3-8.7-28-17.5-29.6-26.9c-2-12,9.4-23,20.4-33.7
				c10.2-10,19.9-19.4,18.9-29c-1.1-9.6-31.4-20.2-60.7-30.5c-21-7.4-42.7-15-56.1-22.8c-9.2-5.4-13.3-10.9-12-16.2
				c4.1-17,62.6-32.5,173.9-46c17.8-2.2,35.7-4.1,52.7-5.8v1c-17,1.7-34.8,3.6-52.6,5.8C1210.6,506.1,1150.8,521.7,1146.9,538z"/>
		</g>
		<g id="Group_1056">
			<path id="Path_511" class="st4" d="M1156.6,538.6c-1.1,4.8,2.7,9.8,11.5,14.9c13.3,7.7,35,15.2,55.9,22.5
				c30.9,10.8,60.2,20.9,61.3,31.1c1.1,10-8.7,19.5-19.2,29.5c-10.8,10.4-22,21.2-20.1,32.5c1.5,9,11,17.5,29,26
				c22.8,10.7,57,20,97.3,28v1c-40.5-8-74.9-17.4-97.7-28.2c-18.4-8.6-28-17.4-29.6-26.7c-2-11.9,9.4-22.8,20.4-33.4
				c10.2-9.9,19.9-19.2,18.9-28.7c-1.1-9.5-31.3-20.1-60.6-30.2c-21-7.3-42.8-14.9-56.1-22.6c-9.2-5.4-13.3-10.8-12-16
				c4-16.9,62.5-32.2,173.9-45.6c14.5-1.7,29-3.3,43-4.8v1c-14,1.5-28.5,3-42.9,4.8C1220.3,506.9,1160.4,522.4,1156.6,538.6z"/>
		</g>
		<g id="Group_1057">
			<path id="Path_512" class="st4" d="M1166.3,539.2c-1.1,4.8,2.8,9.7,11.6,14.8c13.3,7.6,34.9,15.1,55.9,22.3
				c31,10.7,60.2,20.8,61.3,30.8c1.1,9.9-8.7,19.3-19.2,29.3c-10.8,10.3-22,21-20.1,32.2c1.5,8.9,10.9,17.4,29,25.8
				c20.9,9.8,51.6,18.3,87.6,25.8v1c-36.2-7.5-67-16.1-88-26c-18.4-8.6-28.1-17.2-29.6-26.5c-1.9-11.8,9.4-22.6,20.4-33.1
				c10.2-9.8,19.9-19,18.9-28.5c-1.1-9.5-31.4-19.9-60.7-30c-21-7.2-42.7-14.7-56.1-22.4c-9.2-5.3-13.2-10.6-12-15.9
				c3.9-16.8,62.4-32,173.8-45.3c11.2-1.3,22.4-2.6,33.4-3.7v1c-10.9,1.1-22.1,2.4-33.2,3.7C1229.9,507.7,1170.1,523.1,1166.3,539.2
				z"/>
		</g>
		<g id="Group_1058">
			<path id="Path_513" class="st4" d="M1176,539.8c-1.1,4.7,2.8,9.6,11.6,14.6c13.3,7.6,34.9,15,55.9,22.2
				c30.9,10.6,60.2,20.6,61.3,30.6c1.1,9.8-8.7,19.2-19.2,29.1c-10.8,10.2-21.9,20.8-20.1,31.9c1.4,8.9,10.9,17.2,29,25.6
				c19,8.8,46.1,16.6,77.9,23.5v1.2c-33.9-7.4-59.9-15.3-78.3-23.8c-18.4-8.5-28.1-17.1-29.6-26.3c-1.9-11.7,9.4-22.4,20.4-32.8
				c10.2-9.7,19.9-18.9,18.9-28.2c-1.1-9.4-31.4-19.7-60.7-29.8c-21-7.2-42.7-14.6-56.1-22.2c-9.2-5.2-13.2-10.5-12-15.7
				c3.9-16.7,62.4-31.8,173.8-44.9c7.9-0.9,15.8-1.8,23.7-2.7v1C1282,502.8,1181,518.5,1176,539.8z"/>
		</g>
		<g id="Group_1059">
			<path id="Path_514" class="st4" d="M1185.8,540.3c-1.1,4.7,2.8,9.5,11.6,14.5c13.3,7.5,34.9,14.9,55.9,22
				c30.9,10.5,60.2,20.4,61.3,30.3c1.1,9.8-8.7,19-19.2,28.8c-10.8,10.1-21.9,20.6-20.1,31.6c1.4,8.8,10.9,17.1,29,25.4
				c16.4,7.5,39.1,14.6,68.2,21.3v1c-29.2-6.7-52-13.9-68.6-21.4c-18.4-8.4-28.1-17-29.6-26.2c-1.9-11.5,9.5-22.2,20.4-32.5
				c10.2-9.6,19.9-18.7,18.9-28c-1.1-9.3-31.4-19.6-60.7-29.5c-21-7.1-42.7-14.5-56.1-22.1c-9.2-5.2-13.2-10.4-12-15.6
				c4.9-21.1,99.5-36.5,187.8-46.3v1.2C1284.6,504.8,1190.5,520,1185.8,540.3z"/>
		</g>
		<g id="Group_1060">
			<path id="Path_515" class="st4" d="M1195.5,540.9c-1.1,4.6,2.8,9.4,11.6,14.3c13.3,7.5,35,14.8,55.9,21.8
				c30.9,10.4,60.2,20.2,61.3,30.1c1.1,9.7-8.7,18.9-19.2,28.6c-10.8,10-21.9,20.4-20.1,31.3c1.4,8.7,10.9,17,29,25.2
				c14.5,6.6,34,12.9,58.4,18.8v1c-24.6-6-44.2-12.3-58.9-19c-18.4-8.4-28.1-16.9-29.6-26c-1.9-11.5,9.5-22,20.4-32.2
				c10.2-9.5,19.9-18.5,18.9-27.7c-1.1-9.2-31.3-19.4-60.6-29.2c-21-7.1-42.8-14.4-56.1-21.9c-9.2-5.2-13.2-10.3-12.1-15.4
				c4.7-20.2,92.7-35.1,178.1-44.8v1.2C1287.5,506.8,1199.9,521.5,1195.5,540.9z"/>
		</g>
		<g id="Group_1061">
			<path id="Path_516" class="st4" d="M1205.2,541.5c-1,4.5,2.8,9.3,11.6,14.2c13.3,7.4,34.9,14.6,55.9,21.6
				c31,10.3,60.2,20.1,61.4,29.8c1.1,9.6-8.7,18.7-19.2,28.3c-10.8,9.9-21.9,20.2-20.1,31c1.4,8.7,10.9,16.8,29,25
				c12.5,5.7,28.8,11.1,48.7,16.2v1c-20.1-5.2-36.5-10.6-49.1-16.3c-18.4-8.3-28.1-16.8-29.6-25.8c-1.8-11.3,9.5-21.8,20.4-31.9
				c10.2-9.5,19.9-18.4,18.9-27.5c-1.1-9.1-31.4-19.2-60.7-29c-21-7-42.7-14.2-56.1-21.7c-9.2-5.1-13.2-10.2-12.1-15.3
				c4.4-19.3,86.1-33.7,168.3-43.3l0,1.2C1290.6,508.7,1209.4,522.9,1205.2,541.5z"/>
		</g>
	</g>
</g>
</svg>
